<svg width="129" height="50" viewBox="0 0 129 50" fill="none" xmlns="http://www.w3.org/2000/svg">
<path d="M17.0391 48.4758C16.9068 48.7532 17.0552 48.873 17.2811 48.9491C17.2004 48.7911 17.1197 48.6335 17.0391 48.4758ZM13.1845 48.4418C12.9594 48.8379 12.5889 49.0117 12.1078 49.1122C12.6823 49.2103 13.0811 48.9565 13.1845 48.4418ZM27.2748 24.1214L27.2842 24.1295C26.9795 23.7734 27.0428 23.559 27.4695 23.4274C27.7294 23.3473 27.9924 23.2552 28.2285 23.123C29.2007 22.579 30.0142 21.8527 30.6408 20.9275C31.8153 19.193 32.2965 17.2792 32.116 15.1942C31.974 13.5551 31.4188 12.0713 30.4257 10.7622C28.738 8.53714 26.3849 7.59469 23.6944 7.36456C22.8879 7.29559 22.0705 7.35421 21.2581 7.352C21.1318 7.35166 21.0029 7.3527 20.88 7.32867C20.5279 7.25985 20.336 7.02505 20.3242 6.6649C20.3201 6.5384 20.3222 6.41171 20.3222 6.28505C20.3218 4.82887 20.325 3.37268 20.3197 1.91649C20.317 1.19667 19.9487 0.831073 19.2243 0.81979C18.8024 0.813222 18.3799 0.812758 17.9581 0.825084C17.2869 0.844712 16.938 1.29198 17.0691 1.98376C17.1349 1.88125 17.1813 1.78821 17.2467 1.71136C17.3894 1.54363 17.531 1.3722 17.6943 1.22584C17.7909 1.13917 17.9408 1.04196 18.0633 1.14941C18.1886 1.2593 18.1054 1.41605 18.0285 1.52285C17.758 1.89833 17.4918 2.28007 17.1848 2.62453C17.0456 2.78074 16.9789 2.91714 16.9801 3.1206C16.9868 4.28117 16.9848 5.44186 16.9822 6.60246C16.9812 7.06743 16.7585 7.32295 16.2978 7.33419C15.5491 7.35254 14.7997 7.34165 14.0505 7.34261C14.019 7.34265 13.9872 7.33921 13.956 7.33485C13.5184 7.27361 13.2821 7.01249 13.2806 6.56947C13.2767 5.38765 13.2738 4.20583 13.2814 3.02405C13.2829 2.79937 13.2209 2.63562 13.0673 2.46268C12.7319 2.08518 12.43 1.67759 12.1212 1.27715C12.0052 1.12688 12.0529 1.02152 12.2443 0.99312C12.5064 0.954212 12.7251 1.05985 12.8947 1.24713C13.0177 1.38298 13.1098 1.54673 13.2273 1.71453C13.264 1.44302 13.1467 1.2508 12.9745 1.08477C12.7737 0.891309 12.5241 0.818824 12.251 0.817472C11.7339 0.814961 11.2164 0.827827 10.7 0.80901C10.1052 0.787334 9.56189 1.19315 9.57143 1.93546C9.57332 2.08314 9.57043 2.23089 9.57039 2.37864C9.57008 3.65543 9.57035 4.93222 9.56915 6.20901C9.56904 6.34606 9.56826 6.48385 9.55462 6.61997C9.51915 6.97405 9.32685 7.20796 8.97776 7.28485C8.78434 7.32747 8.5806 7.33763 8.3815 7.33798C6.00727 7.34223 3.63305 7.34184 1.25882 7.34269C1.11346 7.34273 0.968107 7.34269 0.805402 7.34269C0.797404 7.46761 0.786392 7.56065 0.786238 7.65369C0.784074 8.93048 0.782684 10.2073 0.783688 11.4841C0.783766 11.5996 0.79273 11.7167 0.813015 11.8303C0.884534 12.2312 1.1815 12.5099 1.5833 12.5525C1.71923 12.5669 1.85717 12.5673 1.99414 12.5664C2.45841 12.5634 2.92284 12.5461 3.38688 12.5544C4.02279 12.5658 4.47825 12.9879 4.55533 13.6213C4.57311 13.7675 4.57732 13.916 4.5774 14.0635C4.58087 20.9223 4.58346 27.7812 4.58454 34.64C4.58454 34.819 4.57964 34.9998 4.5551 35.1766C4.4645 35.8298 3.99006 36.2848 3.33507 36.3523C3.19906 36.3664 3.06109 36.3643 2.92404 36.3647C2.51251 36.3658 2.10055 36.3522 1.68959 36.367C1.17134 36.3858 0.852038 36.6999 0.798563 37.2149C0.78987 37.2987 0.786354 37.3834 0.786238 37.4677C0.784344 38.9344 0.782954 40.4013 0.782954 41.868C0.782954 41.9599 0.795009 42.0523 0.803084 42.1678C0.918302 42.1678 1.01146 42.1678 1.10458 42.1678C1.93815 42.1674 2.77181 42.1666 3.60542 42.1666C5.21987 42.167 6.83436 42.1662 8.4488 42.1697C9.07389 42.1713 9.31229 42.412 9.31302 43.0217C9.31487 44.5413 9.31684 46.0606 9.31932 47.5802C9.31959 47.7595 9.31445 47.9395 9.32666 48.118C9.36452 48.6709 9.77876 49.1304 10.33 49.1678C10.8324 49.2022 11.339 49.1752 11.8152 49.1752C11.873 49.0457 11.894 48.9248 11.9646 48.8529C12.3041 48.5071 12.6385 48.1501 13.0729 47.9183C13.2377 47.8306 13.2812 47.7104 13.276 47.5338C13.2597 46.9856 13.2544 46.4365 13.2502 45.8879C13.2428 44.9068 13.2401 43.9254 13.2337 42.944C13.2323 42.7234 13.2825 42.5248 13.4545 42.3737C13.631 42.2192 13.8452 42.174 14.0723 42.1736C14.7687 42.172 15.4652 42.1662 16.1616 42.1713C16.6972 42.1755 16.9513 42.4363 16.9564 42.9761C16.9609 43.451 16.9561 43.9258 16.9585 44.4007C16.9588 44.4629 16.9781 44.5251 16.9865 44.5749C17.3494 44.0726 17.7045 43.5812 18.0781 43.0642C18.3207 43.4166 18.4245 43.762 18.3909 44.1418C18.3499 44.6055 18.1192 44.981 17.796 45.299C17.6163 45.4764 17.414 45.6309 17.2178 45.7905C17.0639 45.9161 16.9557 46.0575 16.9579 46.2704C16.9626 46.724 16.961 47.1776 16.9548 47.6312C16.9529 47.7603 16.9893 47.846 17.1074 47.9129C17.4595 48.1115 17.6695 48.4472 17.8923 48.7668C17.9419 48.8379 17.9579 48.9325 17.9986 49.0407C17.8446 49.0654 17.731 49.0836 17.6174 49.1014C18.1758 49.2011 18.7343 49.1995 19.2906 49.1671C19.9913 49.1261 20.3124 48.7702 20.3145 48.0663C20.317 47.2641 20.3117 46.4624 20.3099 45.6603C20.308 44.7527 20.3092 43.8455 20.3027 42.9378C20.3007 42.6546 20.3668 42.4027 20.6324 42.2694C20.7668 42.2022 20.933 42.1717 21.0852 42.1701C21.9821 42.1612 22.879 42.1662 23.7759 42.1651C24.4733 42.1643 25.1662 42.1187 25.8539 41.9912C28.0026 41.5921 29.8554 40.6292 31.2597 38.9514C33.6755 36.0647 34.4136 32.7685 33.4356 29.1185C33.0742 27.7694 32.4128 26.5758 31.3989 25.6013C30.3913 24.6329 29.2144 24.0688 27.778 24.1619C27.6118 24.1727 27.4426 24.1361 27.2748 24.1214ZM21.0824 42.9718C21.0824 43.1129 21.0823 43.2269 21.0824 43.3412C21.0833 44.9768 21.0865 46.6123 21.0843 48.2475C21.0833 48.9576 20.7622 49.4851 20.1271 49.798C19.9339 49.8935 19.7059 49.9557 19.4915 49.9626C18.8805 49.9831 18.2678 49.9812 17.6566 49.963C16.7784 49.9367 16.1681 49.1574 16.1818 48.3754C16.2111 46.6981 16.1955 45.02 16.1983 43.3428C16.1984 43.2384 16.1983 43.1345 16.1983 43.0383C15.9564 42.966 14.5324 42.9498 13.9955 43.012V43.3412C13.9954 44.9663 13.9931 46.5911 13.9971 48.2162C13.9978 48.5067 13.9512 48.7807 13.8208 49.0423C13.5373 49.6106 13.0835 49.9336 12.4486 49.9611C11.7848 49.9897 11.1193 50.0098 10.4554 49.9951C9.52843 49.9746 8.82046 49.4074 8.64176 48.5689C8.6005 48.3754 8.59795 48.171 8.59744 47.9712C8.5937 46.4412 8.59489 44.9111 8.59451 43.3814V42.9633C5.71625 42.9626 2.87543 42.9618 0.0195061 42.961C0.012899 42.8223 0.00459208 42.7292 0.00455344 42.6357C0.00354886 40.8838 0.00466956 39.1324 0.00258311 37.3808C0.0019649 36.8597 0.173054 36.4084 0.537332 36.0359C0.823022 35.7438 1.17212 35.5902 1.58469 35.5901C2.01732 35.59 2.45003 35.5927 2.88254 35.5857C3.01828 35.5835 3.15834 35.5708 3.28809 35.5339C3.57574 35.4519 3.75835 35.2548 3.81202 34.9596C3.84003 34.8053 3.84242 34.6449 3.84246 34.4871C3.8442 28.2511 3.8447 22.015 3.84401 15.7789C3.84397 15.2409 3.83512 14.7028 3.82929 14.1648C3.82848 14.0911 3.82523 14.0169 3.8165 13.9438C3.77106 13.5629 3.57648 13.375 3.19489 13.366C2.80469 13.3567 2.41409 13.3636 2.0237 13.3632C1.88653 13.3631 1.74925 13.3652 1.6122 13.361C0.684234 13.3328 0.025727 12.6764 0.00521022 11.7492C-0.00483565 11.2957 0.00273757 10.8417 0.00273757 10.388C0.0026603 9.23788 0.00281476 8.08775 0.00289204 6.93757V6.53438H8.8285C8.83576 6.38014 8.84639 6.25731 8.84658 6.13448C8.84878 4.69943 8.85238 3.26438 8.84898 1.82932C8.8477 1.29233 9.04136 0.843089 9.41564 0.466021C9.70415 0.175386 10.0585 0.0194048 10.4633 0.0116772C11.1279 -0.000957444 11.7932 -0.00663731 12.4575 0.0118316C13.3413 0.0364054 14.036 0.761563 14.0433 1.66245C14.0544 3.04464 14.0505 4.42695 14.0539 5.80927C14.0542 5.95694 14.0545 6.10496 14.0652 6.2521C14.071 6.33266 14.0984 6.41167 14.1179 6.49961H16.2425C16.2483 6.36936 16.2576 6.25689 16.2578 6.14441C16.2598 4.73046 16.2534 3.31642 16.2676 1.90262C16.2703 1.63389 16.3123 1.35083 16.4061 1.10061C16.6651 0.409532 17.1871 0.0409648 17.9264 0.0140727C18.4216 -0.00393256 18.9185 -0.00312119 19.4139 0.0122567C20.3445 0.0411193 21.0752 0.766702 21.0871 1.6988C21.1045 3.05975 21.0937 4.42108 21.0964 5.78222C21.0969 6.02189 21.1044 6.26156 21.1093 6.52894C21.2598 6.52894 21.3738 6.52685 21.4878 6.52925C22.405 6.54864 23.3294 6.50212 24.2382 6.60046C28.1622 7.02505 31.6587 9.42373 32.6624 13.8394C33.3349 16.7981 32.7301 19.5146 30.8574 21.9216C30.4157 22.4892 29.9049 22.9944 29.2733 23.3598C29.2307 23.3844 29.1948 23.4206 29.1382 23.4653C30.3884 23.7577 31.3753 24.4341 32.2193 25.3348C32.9196 26.0821 33.441 26.946 33.82 27.8964C34.4109 29.3784 34.6583 30.9148 34.5841 32.5096C34.4616 35.1467 33.5323 37.4654 31.8242 39.4634C30.3086 41.2362 28.3677 42.2972 26.0853 42.7416C25.3275 42.8892 24.5622 42.9529 23.7886 42.9436C22.9659 42.9336 22.1428 42.9479 21.3198 42.9529C21.2578 42.9533 21.1958 42.9626 21.0824 42.9718Z" fill="#FF7900"/>
<path d="M13.1846 48.4423C13.0812 48.9569 12.6824 49.2108 12.1079 49.1123C12.589 49.0121 12.9595 48.8381 13.1846 48.4423Z" fill="#FF7900"/>
<path d="M17.0391 48.4759C17.1197 48.6336 17.2004 48.7914 17.2811 48.9492C17.0552 48.8731 16.9068 48.7535 17.0391 48.4759Z" fill="#FF7900"/>
<path d="M14.0157 35.5656C14.1003 35.5738 14.1516 35.5831 14.203 35.5831C15.9751 35.5834 17.7474 35.591 19.5194 35.5785C20.2411 35.5734 20.9478 35.4416 21.6171 35.1622C23.2298 34.489 24.3166 33.3718 24.521 31.5707C24.7429 29.6154 23.6718 27.894 21.9607 27.2096C21.3346 26.9592 20.6818 26.8436 20.0146 26.837C18.0845 26.8178 16.1542 26.8161 14.224 26.8102C14.1554 26.81 14.0868 26.8367 14.0157 26.8515V35.5656ZM13.2171 31.1563C13.2171 29.7323 13.2321 28.308 13.2102 26.8842C13.2006 26.2559 13.4524 26.0074 14.0726 26.014C16.0134 26.0347 17.9546 26.0236 19.8956 26.0253C20.6822 26.026 21.4514 26.1282 22.1879 26.4202C24.0062 27.141 25.2158 28.9364 25.2881 30.8893C25.3914 33.6801 23.3571 35.666 21.0748 36.1551C20.4853 36.2814 19.8903 36.3573 19.2866 36.3582C17.5566 36.3606 15.8265 36.364 14.0964 36.3664C14.0121 36.3665 13.9273 36.3666 13.8435 36.3581C13.4901 36.3221 13.2425 36.0707 13.2284 35.7134C13.2159 35.3974 13.2238 35.0805 13.2237 34.7641C13.2234 33.5615 13.2236 32.3589 13.2236 31.1563H13.2171Z" fill="#FF7900"/>
<path d="M14.0299 20.9415C14.1084 20.9484 14.1603 20.957 14.2122 20.957C15.8048 20.9579 17.3975 20.9648 18.99 20.9525C19.3139 20.95 19.6451 20.9066 19.9594 20.828C21.2623 20.5023 22.2573 19.7827 22.755 18.4966C23.4471 16.7083 22.8233 14.7172 20.8472 13.8786C20.1992 13.6036 19.5149 13.4782 18.8129 13.4742C17.3152 13.4657 15.8175 13.4684 14.3198 13.4681C14.2293 13.4681 14.1388 13.4827 14.0299 13.492V20.9415ZM13.2216 17.2323C13.2216 16.0295 13.2214 14.8267 13.2219 13.6238C13.2219 13.5184 13.2194 13.4122 13.2301 13.3076C13.264 12.9774 13.5052 12.7201 13.8343 12.6681C13.9587 12.6485 14.0865 12.6427 14.2127 12.6433C15.7637 12.6503 17.3148 12.6509 18.8655 12.6721C19.6845 12.6833 20.4827 12.8347 21.2285 13.1871C22.4802 13.7788 23.3683 14.7106 23.6636 16.0825C24.1912 18.5331 22.9004 20.7871 20.4413 21.525C19.8723 21.6958 19.2882 21.7704 18.6932 21.7695C17.2055 21.7673 15.7177 21.7718 14.23 21.7703C14.0727 21.7701 13.912 21.765 13.7589 21.7332C13.4127 21.6614 13.2318 21.4429 13.2148 21.094C13.206 20.915 13.2113 20.7354 13.2112 20.556C13.211 19.4481 13.2112 18.3402 13.2112 17.2324C13.2146 17.2323 13.2181 17.2323 13.2216 17.2323Z" fill="#FF7900"/>
<path d="M8.77851 15.768C8.69849 15.8574 8.63204 15.939 8.55801 16.0131C7.91623 16.6545 7.57892 17.4411 7.53789 18.3342C7.43808 20.5061 8.41991 22.098 10.241 23.2098C10.6426 23.455 11.1032 23.5544 11.5654 23.6072C12.3766 23.7 13.1868 23.6916 13.9868 23.4991C14.7226 23.3221 15.3642 22.98 15.8771 22.414C15.9266 22.3594 15.9729 22.2942 16.0351 22.261C16.09 22.2317 16.1911 22.2105 16.2247 22.2397C16.2657 22.2754 16.2778 22.3719 16.2649 22.4342C16.2508 22.5019 16.2006 22.5665 16.154 22.6223C15.9011 22.9243 15.6097 23.1808 15.2559 23.3605C14.1408 23.9267 12.9586 24.1044 11.7226 23.9709C11.6178 23.9596 11.5119 23.9544 11.4084 23.9357C11.2525 23.9075 11.1272 23.9543 10.9944 24.0393C10.8093 24.1578 10.6121 24.2655 10.4069 24.3434C9.4393 24.7106 8.45817 25.0314 7.41571 25.1067C6.95186 25.1402 6.48987 25.1449 6.03228 25.0326C5.66228 24.9418 5.43621 24.703 5.27637 24.3516C6.10465 23.9301 6.91176 23.4937 7.87918 23.591C8.26729 23.63 8.65746 23.653 9.04345 23.7067C9.37195 23.7524 9.66742 23.6721 10.0007 23.5345C9.90357 23.4642 9.83236 23.4102 9.75884 23.3597C8.42992 22.4468 7.56246 21.2201 7.24775 19.6283C6.97346 18.2407 7.27005 16.9902 8.19632 15.9058C8.29782 15.7869 8.42022 15.6859 8.5412 15.5686C8.06943 15.0633 7.94463 14.4482 7.90885 13.809C7.88945 13.4626 7.89552 13.1129 7.91812 12.7665C7.94567 12.3443 8.15196 12.0056 8.48143 11.7439C8.79833 11.4921 9.09789 11.4694 9.45004 11.6671C9.80764 11.8678 10.0132 12.1816 10.0512 12.5816C10.079 12.8732 10.0678 13.1717 10.0426 13.4643C10.0128 13.81 9.93387 14.1515 9.90381 14.4973C9.86111 14.9887 9.85678 15.4837 9.80655 15.9741C9.79284 16.1081 9.84701 16.1686 9.91559 16.2428C10.1035 16.4463 10.261 16.6651 10.3412 16.9369C10.4185 17.1989 10.3647 17.4112 10.1563 17.5901C9.79844 17.8975 9.39378 18.0356 8.92623 17.928C8.4754 17.8244 8.25408 17.4598 8.40268 17.0194C8.5201 16.6716 8.68837 16.3409 8.83458 16.0029C8.87082 15.9191 8.94342 15.8305 8.77851 15.768Z" fill="#FF7900"/>
<path d="M17.0003 23.9845C17.1938 24.126 17.3876 24.1079 17.5735 24.006C17.7858 23.8896 17.9908 23.7594 18.1952 23.6294C18.3905 23.5053 18.4616 23.3101 18.4788 23.0906C18.497 22.8592 18.5091 22.6274 18.5296 22.3964C18.5369 22.3131 18.5494 22.227 18.579 22.1497C18.701 21.8309 18.9629 21.7712 19.2264 21.9814C19.8728 22.4969 19.8118 23.5223 19.4248 23.9879C19.3116 24.124 19.1992 24.2606 19.0501 24.4409C19.3983 24.5101 19.7035 24.5717 20.009 24.6311C20.1847 24.6653 20.3693 24.6727 20.5358 24.732C21.5827 25.1041 22.6729 25.1976 23.7695 25.2642C24.5251 25.3101 25.1392 25.6658 25.6411 26.2081C25.784 26.3624 25.8864 26.5844 25.933 26.792C26.0597 27.3567 25.5554 27.7968 25.0096 27.6057C24.8356 27.5447 24.673 27.4315 24.5273 27.3146C24.3056 27.1367 24.1071 26.9304 23.892 26.7439C23.0087 25.9779 21.9626 25.603 20.8173 25.4566C20.4051 25.4039 20.0073 25.4471 19.596 25.4875C18.9825 25.5478 18.3562 25.4951 17.7366 25.465C17.5903 25.4579 17.4355 25.3692 17.3082 25.283C17.0981 25.1407 17.0884 25.055 17.1859 24.8123C16.9772 24.7275 16.7578 24.6628 16.5628 24.5542C16.1122 24.3031 15.9805 23.8861 16.016 23.398C16.019 23.3566 16.03 23.3143 16.0453 23.2756C16.2068 22.8684 16.8554 22.488 17.286 22.5464C17.5845 22.5869 17.7671 22.8026 17.7131 23.1001C17.6396 23.5051 17.4157 23.8071 17.0003 23.9845Z" fill="#FF7900"/>
<path d="M9.75796 7.48666C9.83381 7.49505 9.92831 7.50332 10.0221 7.51626C10.5048 7.5828 10.8589 7.83205 10.9922 8.30451C11.1259 8.77849 10.9812 9.20204 10.6257 9.54344C10.5439 9.62203 10.4414 9.68822 10.3368 9.73246C10.0134 9.86916 9.71553 9.7233 9.61871 9.3856C9.58996 9.2853 9.57053 9.178 9.57188 9.07426C9.57512 8.82392 9.78087 8.70028 10.012 8.80175C10.0502 8.81848 10.0863 8.84232 10.1191 8.86824C10.2179 8.94617 10.3087 8.94787 10.3961 8.85039C10.4854 8.75063 10.5012 8.63761 10.4243 8.53228C10.1978 8.22229 9.43182 8.06059 9.13152 8.55408C8.85646 9.0061 8.94517 9.51794 9.39727 9.79756C9.6434 9.94976 9.92777 10.0622 10.2099 10.1297C10.9164 10.2988 11.6325 10.4271 12.3426 10.5814C12.7955 10.6797 13.2501 10.7771 13.6935 10.9098C13.9616 10.99 14.2245 11.113 14.4626 11.2606C14.7028 11.4096 14.7987 11.6594 14.7541 11.948C14.7185 12.1784 14.6119 12.2573 14.3828 12.2245C14.331 12.2171 14.2797 12.2022 14.23 12.1854C13.471 11.9296 12.6831 11.8766 11.8912 11.8499C11.1497 11.8249 10.4202 11.7261 9.72349 11.4583C9.08871 11.2143 8.55083 10.8419 8.18211 10.2531C7.81064 9.65978 7.80821 9.05057 8.14108 8.45319C8.4843 7.83719 9.02175 7.50486 9.75796 7.48666Z" fill="#FF7900"/>
<path d="M15.0806 37.2026C15.1772 37.0747 15.2748 37.0752 15.3726 37.1458C15.4404 37.1948 15.5011 37.2553 15.5583 37.3169C15.666 37.4327 15.7724 37.5502 15.8732 37.672C16.2619 38.1421 16.7578 38.4422 17.3354 38.6258C19.0963 39.1854 20.7904 39.0278 22.4129 38.1504C22.7445 37.9711 23.0496 37.7423 23.3649 37.5332C23.5053 37.4401 23.6325 37.324 23.7799 37.2445C24.6109 36.7962 25.2338 36.1268 25.7444 35.3545C26.3343 34.4624 26.796 33.5029 27.0896 32.4699C27.3988 31.382 27.3726 30.2812 27.1923 29.1772C27.1532 28.938 27.0955 28.7019 27.0577 28.4626C27.0302 28.2895 26.9747 28.1126 27.0566 27.9402C27.2595 27.8638 27.3097 28.0013 27.3369 28.1402C27.4303 28.6158 27.5301 29.0908 27.5997 29.5702C27.8335 31.1806 27.5015 32.6928 26.7843 34.1358C26.3651 34.9793 25.8893 35.7853 25.2714 36.5012C25.253 36.5226 25.2431 36.5514 25.213 36.6065C25.3503 36.5964 25.4617 36.5892 25.5728 36.5798C26.8195 36.4746 27.8532 36.9015 28.6608 37.8496C29.1455 38.4187 29.3493 39.0982 29.3335 39.8432C29.3309 39.966 29.3483 40.1097 29.1788 40.148C29.0403 40.1794 28.9159 40.0803 28.8693 39.8991C28.8431 39.7973 28.8236 39.6925 28.8141 39.5878C28.7082 38.4261 28.0362 37.6975 26.9957 37.2944C25.1208 36.5681 23.2533 37.6387 22.8499 39.6421C22.7612 40.0826 22.7787 40.5227 22.8194 40.9651C22.8349 41.1327 22.8444 41.3012 22.847 41.4695C22.8488 41.5977 22.7932 41.7034 22.6545 41.7172C22.5137 41.7312 22.414 41.655 22.3616 41.5233C22.3501 41.4945 22.344 41.4616 22.3435 41.4305C22.3356 40.8306 22.3095 40.2302 22.3284 39.6312C22.3415 39.2167 22.4925 38.8281 22.6904 38.4619C22.7084 38.4286 22.7165 38.3899 22.7451 38.3084C21.9422 38.829 21.1025 39.1144 20.2062 39.2289C19.0558 39.3759 17.9331 39.2645 16.8538 38.8205C16.1023 38.5113 15.586 37.9297 15.1143 37.2991C15.0966 37.2753 15.0934 37.2408 15.0806 37.2026Z" fill="#FF7900"/>
<path d="M20.4336 10.6419C20.2124 10.5057 20.2773 10.3498 20.3476 10.1927C20.4335 10.0007 20.5346 9.81359 20.6004 9.61483C20.7235 9.24279 20.7169 8.86499 20.5677 8.49978C20.4385 8.18326 20.1985 8.04837 19.8956 8.09849C19.7759 8.11835 19.6777 8.16174 19.6257 8.32444C19.7278 8.34009 19.8155 8.3523 19.9028 8.36718C20.0311 8.38904 20.1564 8.42212 20.1974 8.56713C20.2414 8.72268 20.1994 8.86 20.0808 8.96989C19.8914 9.14515 19.6633 9.17332 19.4306 9.10083C19.1778 9.02209 19.0306 8.83481 18.9925 8.57053C18.9084 7.98729 19.4617 7.44686 20.0797 7.50497C20.4331 7.53824 20.7337 7.68626 20.9595 7.95421C21.6592 8.78466 21.5652 9.76776 20.8682 10.4595C20.8168 10.5105 20.7583 10.5545 20.6717 10.6287C21.0462 10.6701 21.3982 10.683 21.7382 10.7538C22.0839 10.8257 22.4178 10.9548 22.7715 11.0633C22.7669 10.9962 22.7458 10.9225 22.7605 10.8567C22.7943 10.7049 22.8223 10.5445 22.8948 10.4105C23.0108 10.1959 23.2365 10.0949 23.4224 10.1454C23.6358 10.2034 23.705 10.3851 23.7536 10.5718C23.8088 10.7843 23.7375 10.9711 23.54 11.085C23.4175 11.1556 23.2728 11.1876 23.1199 11.2435C23.2801 11.3403 23.4362 11.4253 23.5826 11.5245C25.1414 12.5812 26.0589 14.0552 26.3921 15.8962C26.5496 16.7654 26.5434 17.6383 26.3391 18.5033C26.3199 18.5851 26.3 18.6693 26.2625 18.7432C26.2434 18.781 26.1779 18.8267 26.1455 18.8189C26.0936 18.8064 26.0171 18.7563 26.0123 18.715C25.9994 18.6026 26.0028 18.4829 26.0278 18.3725C26.222 17.5126 26.1982 16.6493 26.0172 15.7972C25.5602 13.6462 24.3501 12.0934 22.2882 11.2632C21.4986 10.9453 20.6752 10.878 19.8354 11.0801C19.2402 11.2233 18.7585 11.5478 18.3243 11.961C18.2175 12.0627 18.1087 12.163 17.993 12.2539C17.9369 12.2979 17.8647 12.336 17.796 12.3441C17.7451 12.35 17.6743 12.3151 17.6389 12.275C17.6163 12.2494 17.6291 12.1744 17.6498 12.1336C17.6774 12.0789 17.7248 12.0325 17.7694 11.9883C18.4687 11.2946 19.2698 10.7968 20.2732 10.688C20.3126 10.6838 20.3506 10.6663 20.4336 10.6419Z" fill="#FF7900"/>
<path d="M26.8341 39.602C26.9222 38.9097 26.6194 38.4847 25.9374 38.3589C25.6727 38.3101 25.3874 38.2988 25.1225 38.3405C24.2986 38.4699 23.809 39.371 24.1189 40.1527C24.1808 40.3087 24.2718 40.4529 24.3409 40.6064C24.401 40.7402 24.4709 40.8751 24.4984 41.017C24.5809 41.4425 24.2101 41.757 23.7955 41.625C23.5566 41.549 23.397 41.3782 23.3121 41.1559C22.8716 40.0032 23.2634 38.4818 24.4082 37.92C25.0906 37.5852 25.799 37.6052 26.5019 37.8225C27.2129 38.0423 27.7559 38.502 28.1606 39.1213C28.3237 39.3709 28.4271 39.6465 28.4285 39.9524C28.4304 40.3846 28.2046 40.6752 27.8106 40.7426C27.437 40.8065 27.0357 40.5676 26.9251 40.1894C26.8699 40.0009 26.8629 39.7983 26.8341 39.602Z" fill="#FF7900"/>
<path d="M11.1184 30.4741C10.6618 31.8757 10.6618 31.8757 9.13934 33.6292C9.18065 33.7243 9.23996 33.8124 9.25661 33.908C9.31719 34.2557 9.50254 34.5321 9.73016 34.7867C10.1266 35.2302 10.3851 35.7402 10.4787 36.3298C10.4935 36.4231 10.5016 36.5181 10.5038 36.6125C10.5077 36.7786 10.4305 36.8951 10.2722 36.9513C10.1228 37.0044 9.9507 36.9515 9.86199 36.7983C9.80052 36.692 9.77517 36.5642 9.73777 36.4447C9.60269 36.0134 9.48021 35.5778 9.33234 35.1509C9.18451 34.7241 9.01195 34.3059 8.83453 33.8428C8.79975 33.8293 8.7163 33.7968 8.62905 33.7628C8.63635 33.7174 8.63118 33.6801 8.64741 33.6601C8.74651 33.538 8.84202 33.4112 8.95431 33.302C9.417 32.8516 9.84302 32.3706 10.1934 31.8271C10.5788 31.2295 10.8292 30.5934 10.7608 29.8605C10.6895 29.0952 10.1105 28.5636 9.36522 28.6114C9.22126 28.6207 9.06647 28.6514 8.94024 28.7173C8.18781 29.1105 7.72755 29.7157 7.65425 30.5792C7.61453 31.0469 7.67334 31.5046 7.82492 31.9506C7.92661 32.25 8.02217 32.5516 8.1125 32.8545C8.14411 32.9605 8.1518 33.0736 8.17224 33.1942C7.99543 33.2306 7.88879 33.177 7.83176 33.05C7.37444 32.0304 7.06031 30.9899 7.44151 29.8694C7.6626 29.2196 8.09129 28.739 8.70559 28.4366C9.76903 27.9131 10.9041 28.5185 11.0772 29.6951C11.1057 29.8894 11.1207 30.0857 11.1455 30.3132C11.3008 30.1731 11.422 30.0414 11.5651 29.9406C11.727 29.8266 11.8983 29.7094 12.0836 29.649C12.4028 29.5448 12.6621 29.7344 12.7223 30.076C12.7847 30.4302 12.5893 30.6989 12.2465 30.7139C12.1325 30.7188 12.0146 30.7008 11.9027 30.6749C11.6467 30.6158 11.3934 30.5453 11.1184 30.4741Z" fill="#FF7900"/>
<path d="M26.8328 21.3263C26.7391 21.169 26.6115 21.1212 26.4517 21.1705C26.3034 21.2163 26.2112 21.3592 26.2018 21.5371C26.1832 21.8869 26.4031 22.1694 26.7514 22.2432C27.3406 22.3682 27.8998 21.9705 27.9728 21.3461C28.0321 20.8394 27.8896 20.3851 27.5129 20.0225C27.2908 19.8088 27.0273 19.6938 26.7145 19.7007C26.5354 19.7046 26.3546 19.7172 26.1778 19.6972C26.1001 19.6883 25.9872 19.6201 25.9689 19.5564C25.9486 19.4853 25.9931 19.357 26.0533 19.3101C26.1572 19.2293 26.2902 19.1712 26.4197 19.1401C27.2366 18.9443 28.4465 19.3496 28.917 20.3352C29.1209 20.7622 29.102 21.1917 28.9382 21.6232C28.5487 22.6491 27.4127 23.2065 26.4231 22.8587C25.9095 22.6782 25.5879 22.299 25.5675 21.8328C25.5429 21.2688 25.8047 20.86 26.2884 20.5956C26.6466 20.3999 27.0606 20.4939 27.2816 20.7951C27.4836 21.0704 27.4423 21.6061 27.1999 21.8564C27.0715 21.989 26.8705 22.0147 26.7407 21.9152C26.6035 21.8101 26.5904 21.6332 26.7108 21.467C26.7465 21.4176 26.7907 21.3744 26.8328 21.3263Z" fill="#FF7900"/>
<path d="M2.91106 10.6198C2.67761 10.4717 2.51718 10.5069 2.42341 10.7182C2.27403 11.0547 2.41695 11.3668 2.77521 11.4528C3.1153 11.5345 3.42711 11.4796 3.66419 11.1948C3.90038 10.911 3.91831 10.5962 3.75174 10.2797C3.52579 9.85033 3.18245 9.53384 2.70268 9.43474C2.31796 9.35522 2.09104 9.13112 1.9324 8.80305C1.82703 8.58505 1.71915 8.36717 1.63423 8.14106C1.60618 8.06637 1.61846 7.94467 1.66464 7.88478C1.69701 7.84285 1.83136 7.84007 1.89747 7.86998C2.4243 8.10822 2.97925 8.30678 3.45952 8.61913C3.96301 8.94662 4.19005 9.50235 4.30071 10.0888C4.35322 10.367 4.40214 10.6474 4.42455 10.9291C4.43378 11.045 4.39275 11.1804 4.33398 11.2838C3.91982 12.0126 3.08705 12.3495 2.27106 12.13C2.22017 12.1163 2.16913 12.1028 2.11929 12.0858C1.53871 11.8883 1.48899 11.8184 1.49884 11.2016C1.50104 11.0647 1.50108 10.9266 1.51974 10.7914C1.5777 10.3716 1.91099 10.0008 2.32001 9.90546C2.91052 9.7678 3.37653 10.2028 3.4569 10.7274C3.48707 10.9243 3.37877 11.082 3.21294 11.1707C3.13369 11.2131 2.98184 11.2255 2.92508 11.1776C2.85233 11.1163 2.81724 10.9816 2.81311 10.8767C2.80979 10.7919 2.87632 10.7043 2.91106 10.6198Z" fill="#FF7900"/>
<path d="M21.8736 21.2504C22.7377 21.1551 23.7566 22.4183 23.4273 23.3439C23.3145 23.6611 23.2226 23.9858 23.1246 24.3082C23.0641 24.5071 22.9235 24.6231 22.7401 24.6992C21.847 25.0692 20.6815 24.6816 20.1931 23.8464C19.95 23.4306 19.9304 22.9863 20.0651 22.5329C20.0944 22.4341 20.1482 22.3382 20.2084 22.2535C20.4264 21.9464 20.9116 21.792 21.2218 21.9232C21.5063 22.0435 21.7388 22.471 21.6845 22.8238C21.6544 23.0191 21.5819 23.2087 21.5188 23.3976C21.4857 23.4968 21.4254 23.5867 21.3881 23.6849C21.2454 24.0611 21.3893 24.2847 21.7873 24.3037C22.0823 24.3178 22.3173 24.2039 22.4986 23.9672C23.0867 23.1997 22.7144 22.0599 21.7739 21.7584C21.6841 21.7296 21.5778 21.7249 21.5069 21.6718C21.4421 21.6234 21.3877 21.5278 21.3779 21.4471C21.3651 21.3406 21.4485 21.2789 21.5589 21.2711C21.6638 21.2637 21.7687 21.2573 21.8736 21.2504Z" fill="#FF7900"/>
<path d="M3.54219 38.7472C3.35909 38.9216 3.21505 39.1125 3.02541 39.2297C2.35423 39.6443 1.61142 39.3426 1.4093 38.5808C1.29072 38.1338 1.35069 37.7 1.5989 37.3034C1.92311 36.7855 2.57211 36.5774 3.14762 36.7938C3.20759 36.8164 3.2861 36.8156 3.34924 36.7994C3.61383 36.7314 3.68894 36.7433 3.82151 36.9728C3.94739 37.1907 4.07447 37.4164 4.14676 37.6551C4.29618 38.1483 4.41425 38.6513 4.53279 39.1531C4.55146 39.2322 4.52893 39.3463 4.4794 39.4061C4.45204 39.4391 4.32063 39.4112 4.25058 39.3792C3.94554 39.2398 3.71641 39.0095 3.54219 38.7472Z" fill="#FF7900"/>
<path d="M27.2749 24.1218C27.3751 24.2316 27.3509 24.3315 27.2862 24.4594C27.1445 24.7398 26.9864 25.0228 26.9112 25.3238C26.706 26.1459 27.3744 26.8595 28.222 26.7553C28.4554 26.7265 28.6785 26.6662 28.8651 26.5151C29.1029 26.3225 29.221 26.073 29.1884 25.765C29.1519 25.4198 28.7998 25.2463 28.4757 25.4333C28.5259 25.5203 28.5791 25.6059 28.6258 25.6949C28.7329 25.899 28.7091 26.0937 28.5661 26.2136C28.4085 26.3459 28.1854 26.3492 28.0134 26.2079C27.8014 26.0336 27.7106 25.8082 27.7669 25.5332C27.8464 25.1449 28.1974 24.7604 28.5554 24.7086C28.9774 24.6475 29.3304 24.8093 29.5782 25.1468C29.8839 25.5632 29.9186 26.033 29.7001 26.4938C29.5995 26.7058 29.4367 26.9029 29.2617 27.0622C28.6617 27.6085 27.227 27.6891 26.4998 26.838C26.1631 26.4439 26.0636 26.0071 26.243 25.5135C26.4147 25.041 26.6801 24.6246 27.0144 24.2538C27.0753 24.1863 27.1931 24.17 27.2845 24.13C27.2843 24.1298 27.2749 24.1218 27.2749 24.1218Z" fill="#FF7900"/>
<path d="M31.5583 29.185C31.6332 29.2172 31.6972 29.2422 31.7591 29.2718C31.9554 29.3654 31.998 29.4799 31.9141 29.6819C31.7965 29.965 31.4935 30.1313 31.2262 30.0594C30.9332 29.9807 30.7092 29.6743 30.7788 29.3862C30.8963 28.8999 31.2511 28.6253 31.7065 28.4823C32.0737 28.3672 32.4922 28.5303 32.7367 28.8655C33.0277 29.2646 33.0742 29.7028 32.8806 30.1531C32.5022 31.0334 31.5047 31.3535 30.6877 30.8524C30.493 30.7331 30.3045 30.581 30.1612 30.4049C29.5741 29.6834 29.2987 28.8465 29.3099 27.9169C29.313 27.6565 29.402 27.4205 29.5554 27.2114C29.5892 27.1654 29.6459 27.1363 29.738 27.0626C29.7698 27.1865 29.8102 27.2695 29.8091 27.3519C29.8027 27.8592 29.9538 28.3261 30.1401 28.7896C30.2852 29.1505 30.4033 29.5222 30.532 29.8897C30.721 30.4292 31.2561 30.7059 31.7663 30.5267C32.2118 30.3703 32.4663 29.8815 32.3381 29.4285C32.2423 29.0898 31.8488 28.9546 31.5583 29.185Z" fill="#FF7900"/>
<path d="M12.285 46.3966C11.8053 46.1428 11.4363 45.7874 11.1231 45.3752C10.8715 45.0442 10.6662 44.6856 10.6891 44.2488C10.6954 44.1264 10.7209 43.9906 10.7842 43.8904C10.8311 43.8161 10.9542 43.7522 11.0421 43.7538C11.1084 43.7549 11.19 43.857 11.2335 43.9323C11.2793 44.0116 11.2943 44.1112 11.3118 44.2039C11.4502 44.9373 11.8844 45.455 12.5002 45.8412C12.6251 45.9196 12.7546 45.9913 12.8753 46.0757C13.1396 46.2604 13.2336 46.7335 13.0494 47.0004C12.8946 47.2246 12.7032 47.3939 12.3939 47.3561C12.1223 47.3229 11.8479 47.3107 11.5747 47.2905C11.269 47.268 11.0085 47.1478 10.7765 46.948C10.6578 46.8458 10.5243 46.7569 10.3869 46.6814C10.2451 46.6035 10.0931 46.592 9.92943 46.6451C9.6456 46.7371 9.48641 46.6048 9.50287 46.3093C9.52099 45.9842 9.82758 45.8025 10.1509 45.9462C10.2912 46.0086 10.4174 46.115 10.5318 46.2211C10.7402 46.4144 10.9344 46.623 11.1362 46.8237C11.1691 46.8563 11.2102 46.8808 11.2815 46.8782C11.2505 46.8306 11.2222 46.7809 11.188 46.7357C10.9716 46.4504 10.74 46.1754 10.5397 45.8792C10.1963 45.3715 10.1192 44.8117 10.2856 44.1491C10.5258 45.029 10.8934 45.7611 11.6384 46.2347C11.8593 46.3751 12.019 46.4073 12.285 46.3966Z" fill="#FF7900"/>
<path d="M5.20239 25.9003C5.22785 25.6241 5.31784 25.5091 5.55566 25.4648C5.68861 25.44 5.82817 25.4437 5.9646 25.4459C6.50144 25.4548 7.03924 25.4942 7.5748 25.4738C8.41468 25.4417 9.21263 25.2016 9.99984 24.9185C10.3952 24.7763 10.8004 24.6578 11.2079 24.5553C11.3538 24.5186 11.5255 24.535 11.675 24.5709C12.0743 24.667 12.2109 25.0002 11.9956 25.3475C11.7554 25.7349 11.4186 26.0006 10.947 26.019C10.2409 26.0465 9.53352 26.0729 8.82737 26.0606C7.79407 26.0427 6.76128 25.9916 5.72845 25.9508C5.55241 25.9439 5.37707 25.9175 5.20239 25.9003Z" fill="#FF7900"/>
<path d="M17.832 46.4473C18.8728 46.249 19.4095 45.5249 19.7523 44.5898C19.9168 44.895 19.9497 45.2455 19.7988 45.5887C19.6651 45.893 19.4832 46.1761 19.3139 46.4843C19.3977 46.5178 19.4942 46.5524 19.5874 46.5943C19.8007 46.6902 19.9526 46.8432 20.0052 47.0772C20.0542 47.2955 19.9748 47.4361 19.7544 47.4692C19.6013 47.4922 19.4381 47.4825 19.2842 47.4576C18.9831 47.4089 18.6836 47.3463 18.3867 47.2754C18.2367 47.2396 18.1135 47.2426 17.9672 47.3182C17.5008 47.5592 17.0026 47.2279 17.0174 46.7085C17.0261 46.4033 17.1327 46.1575 17.3861 45.9778C17.5494 45.8621 17.7089 45.7406 17.8654 45.6158C18.3316 45.2441 18.6176 44.7704 18.6791 44.1694C18.6887 44.0758 18.707 43.9805 18.7385 43.8921C18.7942 43.7357 18.8904 43.707 19.0324 43.7973C19.2213 43.9174 19.2831 44.1015 19.2775 44.3141C19.269 44.6361 19.1858 44.938 19.0259 45.2184C18.7757 45.6572 18.417 45.9958 18.0242 46.3029C17.9611 46.3522 17.8961 46.3992 17.832 46.4473Z" fill="#FF7900"/>
<path d="M30.5972 33.7919C30.6358 33.554 30.6484 33.3081 30.7179 33.0795C30.9452 32.3314 31.5857 31.857 32.4475 31.8764C32.8335 31.8851 33.0908 32.1107 33.2536 32.4471C33.4094 32.769 33.4472 33.0921 33.2213 33.4021C33.1783 33.461 33.1293 33.5197 33.0714 33.5627C32.9412 33.6592 32.7991 33.7311 32.6329 33.6511C32.4772 33.5762 32.4564 33.4247 32.4399 33.2774C32.4329 33.216 32.445 33.1514 32.4549 33.0894C32.4795 32.9357 32.4262 32.8199 32.2907 32.7454C32.1435 32.6645 32.0002 32.6418 31.8483 32.7508C31.5547 32.9616 31.4427 33.2503 31.4587 33.5995C31.4834 34.1384 31.8913 34.5481 32.4274 34.5746C32.5325 34.5798 32.6391 34.5751 32.7426 34.5907C32.9939 34.6285 33.0947 34.8342 32.9685 35.0558C32.8571 35.2513 32.6699 35.3462 32.4599 35.4003C31.646 35.61 30.7526 35.0085 30.641 34.1739C30.6243 34.0491 30.6232 33.9221 30.6149 33.7961C30.609 33.7947 30.6031 33.7933 30.5972 33.7919Z" fill="#FF7900"/>
<path d="M15.5008 11.5631C15.2741 11.8266 15.1319 11.813 15.0139 11.5494C14.9667 11.444 14.9309 11.3336 14.887 11.2266C14.7506 10.8944 14.5111 10.6647 14.1669 10.5696C13.8229 10.4746 13.4711 10.4083 13.1226 10.3299C13.0406 10.3115 12.9582 10.2945 12.8759 10.2774C12.3578 10.1697 12.0215 9.84627 11.9169 9.34378C11.8342 8.94689 11.8371 8.53123 11.8157 8.12317C11.8093 8.00127 11.8226 7.85962 11.9767 7.81225C12.1143 7.7699 12.2226 7.84038 12.3194 7.92619C12.5475 8.1285 12.7577 8.35515 13.0035 8.53266C13.3181 8.75981 13.6595 8.95002 13.9914 9.15291C14.1528 9.25163 14.3187 9.34305 14.4826 9.43787C14.8548 9.6532 15.0589 9.98042 15.1252 10.4004C15.1416 10.5042 15.1675 10.6066 15.1833 10.7106C15.2293 11.0135 15.2767 11.3155 15.5008 11.5631Z" fill="#FF7900"/>
<path d="M16.5256 39.7175C16.2111 39.4829 15.9035 39.4408 15.5656 39.5029C15.1105 39.5867 14.676 39.4938 14.3034 39.2257C14.0241 39.0248 13.7725 38.7819 13.5254 38.5405C13.2104 38.2327 13.1662 37.8388 13.2286 37.426C13.283 37.0663 13.5115 36.8731 13.8789 36.8693C14.3087 36.8648 14.6765 37.0223 14.9076 37.3833C15.2676 37.9458 15.7063 38.4397 16.1492 38.9335C16.368 39.1775 16.4436 39.3543 16.5256 39.7175Z" fill="#FF7900"/>
<path d="M3.00235 41.6709C2.90703 41.3086 2.95127 41.0517 3.17707 40.8469C3.41048 40.6352 3.62968 40.396 3.89489 40.2338C4.38725 39.9327 4.89689 39.6535 5.42101 39.4122C5.98076 39.1545 6.58255 39.122 7.18425 39.2565C7.97564 39.4333 8.51054 40.2809 8.32535 41.0713C8.28845 41.229 8.19197 41.3774 8.10191 41.5164C8.03526 41.6193 7.91919 41.6651 7.79628 41.6089C7.67712 41.5544 7.68419 41.4432 7.70162 41.3356C7.71672 41.2421 7.73523 41.1492 7.75235 41.056C7.82329 40.67 7.68504 40.3562 7.31925 40.2082C7.09083 40.1158 6.8328 40.0651 6.58587 40.0562C5.96441 40.0339 5.3675 40.167 4.83027 40.4873C4.43331 40.724 4.05887 40.9982 3.67187 41.2518C3.46473 41.3875 3.25222 41.5149 3.00235 41.6709Z" fill="#FF7900"/>
<path d="M30.3751 34.7217C30.5886 35.0071 30.7944 35.2596 30.9756 35.5287C31.5885 36.4384 31.5152 37.6316 30.8353 38.4407C30.5762 38.749 30.2409 38.7682 29.8957 38.7851C29.8404 38.7878 29.7448 38.6977 29.7298 38.6354C29.7009 38.5162 29.6993 38.3837 29.7162 38.2609C29.8526 37.2697 29.9929 36.279 30.14 35.2894C30.1689 35.0949 30.2033 34.8935 30.3751 34.7217Z" fill="#FF7900"/>
<path d="M5.30477 37.8919C5.28406 37.8507 5.27885 37.8282 5.26494 37.8145C4.83432 37.3904 4.94482 36.8164 5.41744 36.4472C5.87128 36.0926 6.50556 36.1644 6.84797 36.6301C7.20039 37.1094 7.20731 37.649 7.07362 38.2027C7.06168 38.252 7.02899 38.2981 6.99959 38.3413C6.67882 38.8136 5.92228 39.013 5.41481 38.7518C5.31443 38.7002 5.21509 38.6271 5.14497 38.5399C4.97361 38.327 5.02897 38.1184 5.30477 37.8919Z" fill="#FF7900"/>
<path d="M14.5917 39.9737C14.1027 40.5122 13.6142 40.962 12.9249 41.1289C12.5887 41.2102 12.2782 41.1742 11.9968 40.9613C11.9381 40.9168 11.8749 40.8783 11.8154 40.8349C11.3889 40.5243 10.9372 40.302 10.3767 40.4299C10.9832 39.8362 11.6785 39.4586 12.5326 39.4524C12.7495 39.4508 12.9702 39.507 13.1832 39.5603C13.591 39.6622 13.9948 39.7805 14.3997 39.8938C14.4484 39.9074 14.4939 39.9325 14.5917 39.9737Z" fill="#FF7900"/>
<path d="M17.4224 10.3501C17.4085 10.8224 17.307 11.2675 17.0103 11.6505C16.9718 11.7003 16.9331 11.7519 16.8859 11.7928C16.7003 11.9534 16.5553 11.9017 16.5195 11.654C16.4714 11.3207 16.4441 10.9845 16.3945 10.6515C16.3284 10.2076 16.1663 9.7993 15.902 9.43386C15.7786 9.2632 15.6574 9.09095 15.5323 8.92152C15.3172 8.63027 15.3584 8.3265 15.4954 8.02458C15.5881 7.82054 15.8137 7.76281 15.9562 7.93243C16.3886 8.44697 16.9006 8.89807 17.2275 9.498C17.372 9.76333 17.4344 10.048 17.4224 10.3501Z" fill="#FF7900"/>
<path d="M10.087 14.9965C10.0816 14.8445 10.0527 14.6889 10.0757 14.5414C10.121 14.2512 10.1663 13.9553 10.2631 13.6799C10.5035 12.9954 11.0185 12.6054 11.7125 12.4519C12.1963 12.3449 12.586 12.6159 12.6981 13.1079C12.7938 13.5276 12.5532 13.9177 12.106 14.0491C11.9657 14.0904 11.8172 14.1209 11.6716 14.1244C11.2344 14.1349 10.8807 14.3203 10.5745 14.6153C10.4397 14.7452 10.3101 14.8807 10.1782 15.0136C10.1478 15.0079 10.1174 15.0022 10.087 14.9965Z" fill="#FF7900"/>
<path d="M12.6849 35.9466C12.6407 36.1833 12.6077 36.4228 12.5485 36.6557C12.5067 36.8204 12.4314 36.9807 12.2205 36.9877C12.0613 36.9931 11.9679 36.9015 11.8893 36.6617C11.8501 36.5419 11.8165 36.4194 11.7913 36.2959C11.6455 35.5823 11.2948 34.9846 10.7906 34.4645C10.5272 34.1928 10.2812 33.9029 10.0443 33.6077C9.94794 33.4876 9.87804 33.337 9.83276 33.189C9.81062 33.1166 9.84682 32.9842 9.90354 32.942C9.9581 32.9015 10.0794 32.9246 10.1599 32.9527C10.2356 32.9792 10.299 33.0456 10.3631 33.1C10.8287 33.4957 11.2947 33.891 11.7568 34.2907C11.908 34.4214 12.0535 34.5597 12.1921 34.7037C12.5239 35.0483 12.6673 35.4666 12.6849 35.9466Z" fill="#FF7900"/>
<path d="M30.2944 18.6793C29.9149 18.8402 29.5159 18.9623 29.1125 19.0778C28.5563 19.2371 28.0954 19.0688 27.6863 18.6991C27.2231 18.2803 27.3595 17.6216 27.9471 17.4124C28.23 17.3117 28.5107 17.3571 28.7895 17.4188C29.2749 17.5263 29.6988 17.7513 30.0391 18.1183C30.1756 18.2655 30.2928 18.4277 30.2944 18.6793Z" fill="#FF7900"/>
<path d="M10.6366 3.22072C11.4696 2.80703 12.296 2.98665 13.158 3.10396C13.158 3.42268 13.1733 3.70582 13.1498 3.98568C13.1414 4.08606 13.0537 4.19339 12.9755 4.27032C12.9035 4.34107 12.8009 4.39335 12.7026 4.42248C12.2408 4.55937 11.8743 4.82713 11.5782 5.20161C11.5152 5.28125 11.453 5.38399 11.3204 5.32035C11.1918 5.25868 11.178 5.15073 11.2026 5.02655C11.2738 4.66663 11.4744 4.38883 11.7641 4.17724C11.8989 4.07879 12.0552 4.00959 12.2018 3.92722C12.28 3.88325 12.3584 3.83939 12.4366 3.79546C12.433 3.77278 12.4293 3.75014 12.4256 3.72746C12.1264 3.71324 11.8275 3.69207 11.5282 3.68674C11.2217 3.68129 10.9145 3.69338 10.6253 3.49818C10.5281 3.61618 10.4591 3.79473 10.2699 3.75068C10.1622 3.72557 10.0446 3.68337 9.96427 3.61197C9.74762 3.41944 9.74507 3.1414 9.93807 2.97726C10.1828 2.76912 10.3088 2.81286 10.6366 3.22072Z" fill="#FF7900"/>
<path d="M10.9012 17.7029C10.7761 17.8279 10.7019 17.9092 10.6204 17.9822C10.3458 18.2279 10.151 18.5201 10.0729 18.8851C9.9849 19.296 10.045 19.6601 10.3889 19.9418C10.751 20.2385 11.1487 20.3327 11.5979 20.1691C11.7456 20.1152 11.8948 20.0544 12.0485 20.0301C12.3924 19.9758 12.661 20.1305 12.7921 20.433C12.9087 20.7019 12.856 20.9462 12.6001 21.0882C12.4418 21.1761 12.2447 21.2296 12.0635 21.2341C11.5379 21.247 11.0359 21.1069 10.5788 20.8581C9.96276 20.5228 9.74801 19.9294 9.68681 19.2761C9.62634 18.6307 9.89654 18.1311 10.435 17.774C10.5883 17.6723 10.5875 17.671 10.9012 17.7029Z" fill="#FF7900"/>
<path d="M6.84222 12.5871C6.77994 12.808 6.73995 13.0385 6.64985 13.2473C6.5303 13.5243 6.30462 13.6244 6.00413 13.5845C5.28075 13.4883 4.7494 12.6337 4.98548 11.9422C5.11333 11.5676 5.37796 11.3485 5.76944 11.3006C6.13731 11.2556 6.39074 11.4462 6.58524 11.7362C6.75614 11.9909 6.80969 12.2772 6.84222 12.5871Z" fill="#FF7900"/>
<path d="M7.63541 28.9343C7.5033 28.8312 7.40702 28.7693 7.32673 28.6911C6.65613 28.038 5.9858 27.3845 5.32149 26.725C5.11466 26.5196 5.14585 26.4036 5.42195 26.3409C6.05708 26.1967 6.65396 26.2727 7.18767 26.6779C7.40899 26.8459 7.55423 27.0649 7.581 27.3366C7.62741 27.8073 7.64889 28.2806 7.67798 28.7529C7.6803 28.7907 7.66079 28.8298 7.63541 28.9343Z" fill="#FF7900"/>
<path d="M12.3392 32.0715C12.6839 32.3539 12.6931 32.6265 12.3678 32.9547C12.1562 33.1682 11.9073 33.2797 11.601 33.2525C11.2143 33.2181 10.8707 33.0822 10.5376 32.8366C10.8539 32.3881 11.3335 32.2861 11.8315 32.1313C11.6322 32.0389 11.4573 31.9767 11.3031 31.881C11.1464 31.7839 11.0103 31.6539 10.8415 31.5195C10.9324 31.4177 10.9803 31.3204 11.0563 31.2867C11.3717 31.147 11.689 31.0042 12.0186 30.9063C12.2578 30.8353 12.4778 30.9283 12.6128 31.1579C12.7327 31.362 12.6988 31.6716 12.5349 31.8687C12.4749 31.9408 12.4046 32.0043 12.3392 32.0715Z" fill="#FF7900"/>
<path d="M19.1962 2.89348C19.4476 3.10444 19.5239 2.7647 19.7355 2.7373C19.7275 2.80739 19.7425 2.88761 19.7092 2.92764C19.624 3.03018 19.5315 3.16518 19.4167 3.19756C19.0211 3.30903 18.7105 3.61589 18.2934 3.66833C18.2743 3.67072 18.2569 3.68776 18.2147 3.71145C18.6944 3.88172 19.0057 4.22974 19.277 4.61882C19.4437 4.85787 19.5358 5.12463 19.5065 5.42199C19.4874 5.61583 19.4194 5.7831 19.2166 5.92088C19.155 5.79786 19.1004 5.70064 19.0568 5.59864C18.9907 5.44393 18.9331 5.28559 18.8705 5.12938C18.6996 4.70274 18.3845 4.45519 17.9348 4.36991C17.7696 4.33858 17.6043 4.30264 17.4435 4.25396C17.0451 4.13333 16.9182 3.61408 17.2238 3.32503C17.327 3.22747 17.4654 3.15405 17.6007 3.10603C18.0499 2.94668 18.5054 2.92385 18.9622 3.11263C19.0366 3.04301 19.1044 2.97949 19.1962 2.89348Z" fill="#FF7900"/>
<path d="M27.9865 16.6217C27.9899 16.6039 27.9998 16.5308 28.0174 16.4596C28.18 15.8014 28.4799 15.2164 28.9676 14.74C29.4614 14.2576 30.0112 13.8536 30.6656 13.6126C30.7598 13.5779 30.8735 13.5515 30.9677 13.5711C31.1497 13.609 31.1878 13.7704 31.0531 13.902C30.9789 13.9745 30.8869 14.0311 30.7971 14.0851C29.9162 14.6145 29.2977 15.3601 28.9249 16.3179C28.8461 16.5205 28.7341 16.7173 28.6024 16.8901C28.4803 17.0505 28.2892 17.0725 28.1488 16.9934C28.026 16.9243 27.9746 16.8161 27.9865 16.6217Z" fill="#FF7900"/>
<path d="M18.03 41.2716C17.9523 41.2202 17.908 41.1941 17.8672 41.1634C17.6544 41.0036 17.6516 40.8422 17.8576 40.6838C18.0395 40.5439 18.2668 40.5239 18.4488 40.6399C18.6712 40.7814 18.7334 41.003 18.7034 41.2443C18.6293 41.8405 18.0417 42.1881 17.4192 42.0154C16.4845 41.756 16.1234 40.6463 16.7352 39.8817C16.8644 39.7202 17.0376 39.5898 17.2051 39.4647C17.2982 39.3951 17.4313 39.3666 17.5233 39.4742C17.6102 39.5758 17.5198 39.6653 17.4734 39.7595C17.3719 39.9655 17.2645 40.1718 17.1942 40.3891C17.1284 40.593 17.1529 40.8088 17.2433 41.0077C17.389 41.3282 17.6601 41.4297 18.03 41.2716Z" fill="#FF7900"/>
<path d="M22.4622 20.6483C22.5818 20.6609 22.6727 20.6603 22.7584 20.6813C23.0625 20.7561 23.3287 20.9063 23.5322 21.1435C24.0391 21.7348 24.3995 22.3899 24.3265 23.2029C24.3041 23.4515 24.248 23.6989 24.1869 23.9416C24.141 24.124 24.0639 24.2987 23.998 24.4759C23.928 24.6642 23.8061 24.811 23.6023 24.8424C23.5232 24.8546 23.4194 24.8101 23.3506 24.7592C23.2625 24.6941 23.3205 24.6126 23.3707 24.5395C23.399 24.4983 23.4226 24.4466 23.4277 24.3975C23.473 23.9585 23.5365 23.5198 23.5508 23.0797C23.5768 22.2832 23.2627 21.6095 22.7345 21.0273C22.6569 20.9417 22.5754 20.8595 22.4981 20.7736C22.4858 20.76 22.4862 20.7349 22.4622 20.6483Z" fill="#FF7900"/>
<path d="M29.9617 34.4025C30.0504 34.6764 29.9687 34.9129 29.9335 35.1446C29.8654 35.5932 29.7101 36.0177 29.5081 36.4244C29.3875 36.6673 29.2089 36.8564 28.9685 36.9801C28.7506 37.0924 28.5191 37.1187 28.3118 36.9682C28.1065 36.8192 28.1 36.6022 28.1539 36.37C28.2541 35.9379 28.4804 35.5764 28.7645 35.2468C29.028 34.9411 29.3484 34.7038 29.6991 34.5075C29.7768 34.464 29.8656 34.4402 29.9617 34.4025Z" fill="#FF7900"/>
<path d="M29.0891 16.8317C29.1283 16.6878 29.1513 16.577 29.1883 16.4711C29.4502 15.7228 29.9246 15.1279 30.5384 14.6413C30.6669 14.5395 30.8265 14.466 30.9832 14.4132C31.2548 14.3216 31.461 14.383 31.5798 14.5576C31.7004 14.7346 31.7007 15.0655 31.5699 15.2469C31.5153 15.3226 31.4469 15.3938 31.3711 15.4479C30.7971 15.8572 30.2219 16.2649 29.642 16.6656C29.4978 16.7653 29.3406 16.856 29.0891 16.8317Z" fill="#FF7900"/>
<path d="M11.7284 19.7638C11.1769 19.7673 10.6949 19.3433 10.703 18.8617C10.7112 18.3726 11.1689 17.9182 11.6606 17.9109C12.2406 17.9024 12.6629 18.2842 12.662 18.8163C12.6612 19.3529 12.2596 19.7604 11.7284 19.7638Z" fill="#FF7900"/>
<path d="M7.1491 29.7507C7.15204 30.1732 6.95673 30.3079 6.61888 30.1464C6.15742 29.9257 5.75752 29.6174 5.441 29.2128C5.26172 28.9836 5.1424 28.7207 5.18374 28.4226C5.20314 28.2825 5.2553 28.1333 5.33559 28.0182C5.48342 27.8062 5.76158 27.7527 5.94499 27.9077C6.47375 28.3547 6.93389 28.8569 7.11217 29.5547C7.13288 29.6357 7.14331 29.7193 7.1491 29.7507Z" fill="#FF7900"/>
<path d="M12.7863 7.73272C13.5318 7.62573 14.9102 8.38095 15.4705 9.19146C16.0369 10.0109 16.3843 11.4513 16.1226 11.9324C15.9121 11.844 15.7902 11.6841 15.7525 11.4643C15.7204 11.2776 15.7125 11.0868 15.6817 10.8998C15.5534 10.1212 15.1504 9.50682 14.5246 9.04216C14.2549 8.8419 13.9542 8.68364 13.6686 8.50448C13.4456 8.36449 13.2203 8.22741 13.0038 8.0778C12.895 8.00257 12.7717 7.9234 12.7863 7.73272Z" fill="#FF7900"/>
<path d="M8.3593 32.5037C7.58364 31.3372 8.42242 29.3241 9.68383 29.0813C9.69585 29.1471 9.73271 29.2199 9.71623 29.2775C9.39799 30.3916 9.04286 31.4914 8.40858 32.4764C8.39964 32.4903 8.37611 32.4949 8.3593 32.5037Z" fill="#FF7900"/>
<path d="M4.03394 41.4463C4.12315 41.3625 4.18969 41.2829 4.27179 41.2256C4.87852 40.8024 5.55905 40.5614 6.28375 40.4455C6.57063 40.3996 6.85234 40.4419 7.08881 40.6368C7.32152 40.8284 7.38535 41.1341 7.24073 41.3713C7.13239 41.5488 6.96482 41.634 6.76243 41.6247C5.88995 41.5845 5.01777 41.5377 4.1456 41.4917C4.11909 41.4903 4.09352 41.4712 4.03394 41.4463Z" fill="#FF7900"/>
<path d="M12.8675 2.84055C12.2099 2.7431 11.597 2.66698 10.9904 2.55656C10.6552 2.49555 10.4569 2.23308 10.3133 1.94291C10.2214 1.7571 10.3129 1.53265 10.5186 1.36716C10.8238 1.12166 11.4189 1.08487 11.7373 1.31686C12.2597 1.6976 12.6266 2.19989 12.8675 2.84055Z" fill="#FF7900"/>
<path d="M24.6386 22.8961C24.5889 22.6184 24.5367 22.3957 24.5113 22.1699C24.457 21.6884 24.2616 21.2867 23.8947 20.9655C23.7939 20.8773 23.6844 20.7755 23.6349 20.6566C23.4844 20.2945 23.8467 19.8598 24.2378 19.9163C24.2996 19.9253 24.3616 19.9438 24.4193 19.968C24.975 20.2014 25.3881 20.9023 25.3224 21.4965C25.2754 21.9218 24.9929 22.5234 24.6386 22.8961Z" fill="#FF7900"/>
<path d="M20.2358 40.8452C20.2058 41.1331 20.1461 41.3968 20.0128 41.6424C19.9154 41.8219 19.7856 41.9712 19.5922 42.0522C19.1747 42.2271 18.7891 41.9775 18.7858 41.5268C18.785 41.412 18.7857 41.2899 18.8219 41.1834C18.9602 40.7762 19.1062 40.3711 19.2648 39.9714C19.3139 39.8477 19.3963 39.7275 19.4912 39.6337C19.6767 39.4503 19.9347 39.5204 19.9989 39.7728C20.0891 40.1274 20.1578 40.4875 20.2358 40.8452Z" fill="#FF7900"/>
<path d="M30.8508 12.3331C30.7845 12.3572 30.7589 12.3757 30.7473 12.3693C30.4777 12.2176 30.2153 12.2839 29.9317 12.3497C29.0312 12.5586 28.1542 12.4805 27.3232 12.0458C27.0212 11.8879 26.7492 11.692 26.5324 11.4273C26.4664 11.3468 26.4081 11.2564 26.365 11.1619C26.301 11.0215 26.3412 10.8938 26.453 10.7904C26.5574 10.6939 26.6806 10.6742 26.8031 10.7405C26.9132 10.8002 27.0158 10.8757 27.116 10.9518C27.3674 11.1429 27.6052 11.3538 27.8671 11.5287C28.4666 11.929 29.1243 12.1016 29.8485 11.992C30.1635 11.9443 30.4837 11.9166 30.7414 12.1694C30.7824 12.2097 30.8072 12.2666 30.8508 12.3331Z" fill="#FF7900"/>
<path d="M7.6279 33.4736C7.55495 33.586 7.51013 33.6812 7.44228 33.7554C7.07287 34.159 6.62776 34.4556 6.11917 34.654C5.89526 34.7414 5.66505 34.752 5.44532 34.6345C5.1208 34.4611 5.02629 34.115 5.21681 33.8005C5.33516 33.6052 5.50173 33.4585 5.71347 33.3753C6.24281 33.1674 6.78324 33.1591 7.32575 33.3174C7.42188 33.3455 7.50739 33.41 7.6279 33.4736Z" fill="#FF7900"/>
<path d="M10.0266 15.7004C10.0907 15.5751 10.1106 15.5155 10.1469 15.4684C10.5947 14.8873 11.1662 14.531 11.9168 14.5082C12.0006 14.5056 12.0862 14.5095 12.1686 14.5241C12.5405 14.59 12.7108 14.7767 12.7331 15.1349C12.7537 15.4639 12.5756 15.7237 12.2525 15.831C11.9915 15.9177 11.7314 15.8873 11.4742 15.8124C11.3733 15.783 11.275 15.7435 11.1771 15.7047C10.8944 15.5926 10.6075 15.558 10.3108 15.6448C10.243 15.6646 10.1717 15.6725 10.0266 15.7004Z" fill="#FF7900"/>
<path d="M29.7289 11.7161C28.7581 11.7099 27.9663 11.2937 27.273 10.6478C27.093 10.4801 27.0457 10.2761 27.0858 10.0447C27.1176 9.86066 27.2215 9.8092 27.3743 9.90598C27.4534 9.9561 27.5198 10.0265 27.5905 10.0894C28.0799 10.5246 28.6233 10.8363 29.2908 10.9207C29.589 10.9584 29.8783 11.0714 30.1697 11.1568C30.2387 11.1771 30.3093 11.2134 30.3625 11.2609C30.4211 11.3132 30.5094 11.3995 30.4968 11.4484C30.4773 11.5246 30.3948 11.6113 30.3188 11.6403C30.1938 11.688 30.053 11.6963 29.9181 11.7147C29.8561 11.7231 29.792 11.7161 29.7289 11.7161Z" fill="#FF7900"/>
<path d="M12.3959 23.247C12.3048 23.247 12.2732 23.2476 12.2417 23.247C11.6518 23.2364 11.3889 22.8341 11.6171 22.2876C11.7149 22.0537 11.8855 21.9127 12.148 21.9124C12.5962 21.912 13.0257 21.9995 13.4254 22.2075C13.5081 22.2506 13.5881 22.3071 13.654 22.3729C13.908 22.6263 13.8709 22.888 13.5349 23.0093C13.2412 23.1153 12.9265 23.1644 12.6193 23.231C12.528 23.2508 12.431 23.2448 12.3959 23.247Z" fill="#FF7900"/>
<path d="M12.846 47.6508C12.4561 47.9978 12.0743 48.3547 11.6736 48.6887C11.354 48.955 10.9626 48.9937 10.5654 48.9425C10.2106 48.8968 10.0801 48.6277 10.2759 48.3241C10.5774 47.8567 10.996 47.5565 11.5747 47.5542C11.9917 47.5525 12.4088 47.5741 12.8259 47.5853C12.8326 47.6071 12.8393 47.629 12.846 47.6508Z" fill="#FF7900"/>
<path d="M8.97786 35.8187C8.95124 36.1406 8.86759 36.4398 8.59855 36.6541C8.4112 36.8034 8.20529 36.861 7.98216 36.742C7.76219 36.6247 7.66842 36.4359 7.71131 36.1882C7.82568 35.5273 8.04958 34.9049 8.39474 34.3301C8.44071 34.2536 8.56695 34.1665 8.63804 34.1798C8.71342 34.1941 8.77173 34.3192 8.82852 34.4021C8.85051 34.4342 8.85205 34.4826 8.85603 34.5243C8.89734 34.9546 8.93725 35.385 8.97786 35.8187Z" fill="#FF7900"/>
<path d="M29.3198 29.445C29.3255 29.6151 29.2519 29.7381 29.1215 29.826C29.0437 29.8785 28.9586 29.9235 28.8712 29.9578C28.4397 30.1266 28.2685 30.0731 28.1227 29.6403C27.9688 29.1831 27.8694 28.7074 27.7493 28.2391C27.7148 28.1043 27.7879 28.0155 27.8993 27.9572C28.0709 27.8674 28.2467 27.8686 28.4124 27.9683C28.9708 28.3044 29.2142 28.8337 29.3198 29.445Z" fill="#FF7900"/>
<path d="M6.84753 8.34915C6.87905 8.34915 6.91058 8.34958 6.94207 8.34911C7.31481 8.34351 7.49278 8.39366 7.37327 8.91524C7.30728 9.20324 7.12433 9.40246 6.83671 9.48132C6.4115 9.59789 5.98474 9.71041 5.55462 9.80669C5.26866 9.87068 5.15912 9.75418 5.19838 9.46614C5.27183 8.92741 5.62881 8.53682 6.15992 8.43215C6.38592 8.38764 6.61674 8.36766 6.84536 8.33652C6.84606 8.34073 6.84679 8.34494 6.84753 8.34915Z" fill="#FF7900"/>
<path d="M17.3154 47.6295C17.6582 47.5075 17.9615 47.5149 18.2602 47.5745C18.5788 47.638 18.8945 47.7204 19.2059 47.8134C19.3539 47.8577 19.504 47.9256 19.6266 48.018C19.9243 48.2425 19.8854 48.6413 19.5617 48.8253C19.1043 49.0855 18.3643 48.9568 18.0344 48.5511C17.7976 48.2599 17.5722 47.9595 17.3154 47.6295Z" fill="#FF7900"/>
<path d="M8.17316 33.6176C8.18711 33.7122 8.21307 33.7736 8.20032 33.8254C8.17285 33.9368 8.1305 34.0454 8.0853 34.1513C7.87959 34.6339 7.67666 35.1177 7.46145 35.596C7.24172 36.0843 6.79255 36.1839 6.38376 35.8456C6.16515 35.6645 6.09764 35.4449 6.259 35.2062C6.41482 34.9757 6.61783 34.7708 6.8264 34.5839C7.02863 34.4027 7.26324 34.2574 7.48552 34.099C7.6988 33.947 7.91452 33.7984 8.17316 33.6176Z" fill="#FF7900"/>
<path d="M13.0863 45.7028C12.07 45.5178 11.3612 44.4609 11.579 43.4808C11.6305 43.2492 11.7448 43.2025 11.936 43.3584C12.0987 43.4911 12.2415 43.6485 12.3917 43.7964C12.4519 43.8555 12.5091 43.9176 12.5662 43.9797C13.177 44.6441 13.2109 44.7549 13.0863 45.7028Z" fill="#FF7900"/>
<path d="M18.8945 6.58305C18.8496 6.56589 18.7981 6.55442 18.7555 6.52845C18.3873 6.30474 18.0185 6.0818 17.6549 5.8509C17.5405 5.77818 17.4226 5.69661 17.3398 5.59241C17.2589 5.49044 17.1839 5.35811 17.1715 5.23265C17.1459 4.97439 17.1638 4.71185 17.1638 4.42017C17.254 4.42017 17.3254 4.40773 17.391 4.42218C17.8599 4.52577 18.274 4.74349 18.5244 5.15723C18.7233 5.48612 18.8529 5.85797 19.0028 6.21514C19.059 6.34906 19.0454 6.48371 18.8945 6.58305Z" fill="#FF7900"/>
<path d="M26.0972 8.30531C25.8147 8.64386 25.5053 8.81634 25.1443 8.85652C24.6749 8.90876 24.2009 8.92132 23.7286 8.94268C23.4999 8.95304 23.3108 8.86351 23.2207 8.64281C23.1294 8.41921 23.1273 8.18889 23.2652 7.97897C23.3518 7.84722 23.4881 7.77636 23.6436 7.79135C23.8719 7.81337 24.1043 7.83597 24.3235 7.89865C24.5747 7.97051 24.814 8.08465 25.0571 8.18376C25.3708 8.31157 25.6879 8.41269 26.0972 8.30531Z" fill="#FF7900"/>
<path d="M25.859 9.80655C25.6792 9.71386 25.5595 9.66042 25.4483 9.59296C25.2462 9.47044 25.061 9.46719 24.8242 9.54323C24.3029 9.71049 23.7569 9.8052 23.2065 9.74395C22.6214 9.67885 21.9313 9.20268 22.025 8.29325C22.0497 8.05347 22.1575 7.86661 22.2863 7.86839C22.4958 7.87129 22.5532 8.04489 22.6179 8.20033C22.6744 8.33622 22.7255 8.47447 22.7768 8.61248C22.9187 8.99364 23.1927 9.19723 23.5933 9.26662C23.9868 9.33478 24.3688 9.28154 24.7541 9.21983C25.1767 9.15214 25.518 9.30031 25.7865 9.62607C25.8092 9.65354 25.8151 9.69477 25.859 9.80655Z" fill="#FF7900"/>
<path d="M28.3337 34.2617C28.2469 34.2474 28.077 34.236 27.9175 34.1892C27.7278 34.1336 27.67 34.0457 27.7282 33.8564C27.8076 33.5977 27.8965 33.333 28.0357 33.104C28.2006 32.8327 28.3948 32.7939 28.6901 32.9244C28.9784 33.0517 29.2604 33.1952 29.5373 33.3461C29.6455 33.405 29.7483 33.4904 29.8253 33.5865C29.9786 33.778 29.9416 33.9141 29.7105 33.9963C29.2925 34.1451 28.8613 34.2402 28.3337 34.2617Z" fill="#FF7900"/>
<path d="M12.8315 41.4421C12.8787 41.4263 12.9162 41.4035 12.9543 41.4027C13.4081 41.3926 13.8155 41.2298 14.2113 41.0264C14.5235 40.8661 14.8564 40.771 15.2041 40.7358C15.6948 40.6862 16.082 40.9809 16.1529 41.4607C16.111 41.4786 16.0669 41.5096 16.0194 41.5159C15.2388 41.6211 14.4583 41.7287 13.6761 41.8214C13.503 41.8419 13.3177 41.8309 13.1484 41.7909C12.9878 41.7529 12.8397 41.6587 12.8315 41.4421Z" fill="#FF7900"/>
<path d="M7.38011 32.5511C6.99539 32.6668 6.62551 32.7783 6.25547 32.8893C5.70527 33.0543 5.26109 32.8396 5.12775 32.3445C5.04954 32.0541 5.1451 31.857 5.41166 31.7229C5.87674 31.4889 7.09434 31.7316 7.36075 32.4619C7.37439 32.4994 7.37791 32.5405 7.38011 32.5511Z" fill="#FF7900"/>
<path d="M17.5657 8.16868H17.812V7.6801C17.7059 7.69656 17.6301 7.70834 17.5457 7.72144C17.5529 7.88036 17.5588 8.01439 17.5657 8.16868ZM17.332 7.43869C17.3431 7.30431 17.3524 7.19056 17.3623 7.07093C17.6236 6.94698 17.879 7.04172 18.1541 7.04848C18.1713 7.18395 18.1867 7.30485 18.2032 7.43506C18.2247 7.44703 18.249 7.46856 18.2766 7.47466C18.5623 7.53756 18.5629 7.53683 18.5688 7.81332C18.5706 7.89732 18.5624 7.98209 18.5709 8.06524C18.5889 8.24209 18.5299 8.37137 18.3641 8.44722C18.3263 8.46449 18.2808 8.48388 18.2599 8.51599C18.0467 8.84411 17.7422 8.75663 17.4331 8.70849C17.3997 8.61889 17.3674 8.53234 17.3295 8.43076C17.2852 8.42585 17.2351 8.41739 17.1847 8.41515C16.8127 8.39876 16.7551 8.33803 16.7547 7.9586C16.7541 7.4992 16.7541 7.49947 17.2193 7.46461C17.2493 7.46237 17.2786 7.45128 17.332 7.43869Z" fill="#FF7900"/>
<path d="M17.7544 2.57425C17.9768 2.2 18.2215 1.88688 18.5058 1.60467C18.7853 1.32717 19.1282 1.26554 19.4997 1.33753C19.8717 1.40959 20.0281 1.74183 19.8543 2.07667C19.8011 2.17925 19.7374 2.27658 19.6758 2.37468C19.5976 2.49952 19.4829 2.57201 19.3359 2.57297C18.8219 2.57626 18.3079 2.57425 17.7544 2.57425Z" fill="#FF7900"/>
<path d="M30.9295 13.0042C30.377 13.1594 29.9561 13.5317 29.4984 13.8445C29.2823 13.9922 29.0577 14.1294 28.8274 14.2536C28.6539 14.3472 28.4637 14.3558 28.282 14.2599C28.0436 14.1339 27.9782 13.892 28.1423 13.6789C28.2233 13.5736 28.3352 13.4842 28.4491 13.4133C29.1424 12.982 29.915 12.8634 30.7137 12.8625C30.7876 12.8624 30.8617 12.9048 30.9357 12.9275C30.9336 12.9531 30.9315 12.9786 30.9295 13.0042Z" fill="#FF7900"/>
<path d="M2.32565 41.0232V40.4662C2.17125 40.4918 2.04266 40.5131 1.92659 40.5323V41.0518C2.06839 41.0416 2.18767 41.0331 2.32565 41.0232ZM1.20947 40.3211C1.34865 40.2979 1.46943 40.2778 1.60574 40.255C1.61807 40.1254 1.6307 39.992 1.64442 39.8476C1.90975 39.7489 2.16066 39.8049 2.43634 39.8678C2.44817 40.0184 2.45945 40.162 2.47205 40.3227C2.6045 40.333 2.73502 40.3432 2.89289 40.3555V41.0208C2.77848 41.0485 2.66751 41.0755 2.54032 41.1063C2.53464 41.184 2.52699 41.2662 2.52285 41.3486C2.51007 41.6049 2.48851 41.627 2.22511 41.6434C2.18307 41.646 2.14088 41.6475 2.09873 41.648C1.76775 41.652 1.69693 41.5897 1.6535 41.2557C1.64813 41.2141 1.64593 41.172 1.64075 41.1133C1.57066 41.1041 1.49976 41.0974 1.4299 41.0851C1.35943 41.0727 1.28992 41.0547 1.20947 41.0368V40.3211Z" fill="#FF7900"/>
<path d="M31.3009 17.4811C31.3523 17.2879 31.3326 17.1087 31.2805 16.911C31.1662 16.8914 31.0581 16.8728 30.9226 16.8495V17.4811H31.3009ZM30.6294 16.6338C30.6364 16.4893 30.6425 16.3649 30.6491 16.23C30.8899 16.1271 31.126 16.1805 31.3928 16.1954C31.4054 16.3684 31.4173 16.5314 31.4302 16.7092C31.5114 16.715 31.5884 16.7041 31.6509 16.7292C31.7239 16.7586 31.8047 16.8061 31.846 16.8694C31.9586 17.0419 31.9004 17.4327 31.7534 17.5978C31.7395 17.6133 31.7141 17.6237 31.7087 17.6411C31.6013 17.9829 31.319 17.9778 31.0405 17.9797C30.8139 17.9813 30.7962 17.9626 30.7943 17.7262C30.7939 17.6765 30.7942 17.6267 30.7942 17.5601C30.6598 17.5814 30.5494 17.6041 30.438 17.6153C30.2857 17.6306 30.1956 17.5645 30.1913 17.4031C30.1887 17.3083 30.1819 17.2134 30.1836 17.1187C30.1912 16.7255 30.2198 16.6936 30.6294 16.6338Z" fill="#FF7900"/>
<path d="M9.99089 20.647C9.90843 20.636 9.86562 20.6379 9.82845 20.6243C9.47314 20.4941 9.11728 20.365 8.7644 20.2283C8.24696 20.0278 8.10099 19.7652 8.22023 19.2213C8.26261 19.0281 8.32656 18.8341 8.41566 18.6582C8.52048 18.4512 8.6816 18.4395 8.84933 18.6028C8.90899 18.6609 8.96022 18.7307 9.00315 18.8024C9.10585 18.974 9.20804 19.1465 9.29807 19.3248C9.40711 19.5408 9.49578 19.7673 9.60748 19.9819C9.71895 20.196 9.84801 20.4009 9.99089 20.647Z" fill="#FF7900"/>
<path d="M8.55859 33.0717C8.57629 32.9923 8.57482 32.9014 8.61454 32.8352C9.2251 31.8178 9.54823 30.6745 10.0374 29.6043C10.0521 29.5723 10.0997 29.5553 10.1454 29.5214C10.3089 29.6863 10.3352 29.89 10.3027 30.0789C10.1225 31.1229 9.78264 32.0973 8.99192 32.8535C8.8818 32.9589 8.74579 33.0371 8.62173 33.1279C8.60071 33.1092 8.57965 33.0904 8.55859 33.0717Z" fill="#FF7900"/>
<path d="M10.6804 38.8144C11.0307 38.3717 11.3305 37.981 11.6442 37.6018C11.7794 37.4385 11.9531 37.3165 12.1778 37.2958C12.4597 37.2699 12.6153 37.3811 12.6799 37.6557C12.7596 37.9944 12.5928 38.4013 12.25 38.5964C12.0634 38.7026 11.844 38.7797 11.6315 38.8056C11.3437 38.8409 11.0484 38.8144 10.6804 38.8144Z" fill="#FF7900"/>
<path d="M13.0787 4.59157C13.1829 4.83452 13.2001 5.0992 13.1257 5.35224C13.0812 5.50362 12.9866 5.68309 12.8599 5.75921C12.5379 5.95267 12.186 6.09675 11.8438 6.25594C11.7985 6.27707 11.7406 6.27649 11.6884 6.27692C11.4006 6.2792 11.2676 6.08419 11.4199 5.84483C11.7278 5.36112 12.0955 4.92764 12.6159 4.65571C12.7526 4.58423 12.8981 4.50595 13.0787 4.59157Z" fill="#FF7900"/>
<path d="M30.9416 26.9003C31.201 26.931 31.4216 26.9502 31.6397 26.985C31.8572 27.0198 32.0025 27.147 32.0526 27.3671C32.1005 27.5777 32.0089 27.7406 31.8518 27.8647C31.7713 27.9282 31.6719 27.9754 31.5736 28.0072C31.0574 28.1743 30.3901 27.9253 30.1039 27.4655C29.9621 27.2377 30.0036 27.0792 30.2618 27.0082C30.493 26.9448 30.7378 26.9309 30.9416 26.9003Z" fill="#FF7900"/>
<path d="M25.4653 24.2351C25.6443 24.2512 25.8184 24.3331 25.8953 24.1602C25.9503 24.0365 25.9772 23.8545 25.9255 23.7395C25.8407 23.5511 25.6368 23.648 25.4653 23.6294V24.2351ZM25.2475 23.4103C25.2598 23.2771 25.2702 23.1641 25.283 23.0255H25.8885C25.9012 23.2129 25.9116 23.3675 25.9243 23.5562C26.0562 23.5271 26.1735 23.4924 26.2933 23.4769C26.4583 23.4555 26.5307 23.5133 26.5399 23.6767C26.5492 23.8414 26.5419 24.007 26.5419 24.1835C26.4071 24.1947 26.3054 24.2032 26.1995 24.2119C26.1541 24.3509 26.1461 24.5213 26.0568 24.6056C25.9728 24.6851 25.8039 24.6926 25.6708 24.6982C25.452 24.7076 25.3999 24.649 25.289 24.335C25.24 24.3715 25.2018 24.4131 25.1545 24.4332C24.968 24.5121 24.769 24.3866 24.7521 24.182C24.7469 24.1194 24.7505 24.0561 24.7502 23.9931C24.7483 23.4924 24.7483 23.4924 25.2475 23.4103Z" fill="#FF7900"/>
<path d="M11.402 36.2022C11.399 36.2441 11.3985 36.2864 11.3925 36.328C11.3737 36.4604 11.3288 36.5782 11.1782 36.6034C11.0322 36.6279 10.9314 36.5483 10.8773 36.424C10.8146 36.2801 10.7559 36.1312 10.7221 35.9785C10.619 35.5126 10.384 35.1248 10.07 34.7718C9.87503 34.5526 9.69757 34.3155 9.53432 34.0717C9.46168 33.9632 9.4254 33.8206 9.40894 33.6889C9.40172 33.6312 9.47498 33.5247 9.53088 33.509C9.58691 33.4933 9.70827 33.5462 9.72987 33.5984C9.90142 34.0131 10.2391 34.289 10.5342 34.6016C10.8167 34.9008 11.0876 35.2123 11.2504 35.5953C11.3313 35.7857 11.3735 35.9927 11.4333 36.1922C11.4229 36.1955 11.4125 36.1989 11.402 36.2022Z" fill="#FF7900"/>
<path d="M4.51552 10.7184C4.50953 10.629 4.49117 10.5385 4.49948 10.4505C4.55585 9.85455 4.40706 9.30044 4.16631 8.76391C4.15336 8.73505 4.13652 8.70738 4.12771 8.67732C4.08706 8.53892 3.9781 8.36532 4.02532 8.26881C4.10294 8.11035 4.27005 7.98416 4.42244 7.87713C4.56996 7.77354 4.69383 7.81678 4.79939 7.97067C4.98493 8.24122 5.07975 8.55129 5.04486 8.86974C4.99111 9.36071 4.89884 9.84825 4.8031 10.3334C4.77474 10.4772 4.67988 10.6079 4.61547 10.7446L4.51552 10.7184Z" fill="#FF7900"/>
<path d="M5.9827 31.4541C5.39954 31.4476 5.0958 31.1632 5.113 30.7459C5.12679 30.4106 5.3665 30.1866 5.69859 30.2365C6.10398 30.2974 6.46355 30.4791 6.75631 30.7663C6.984 30.9896 6.94355 31.1733 6.63568 31.2856C6.39091 31.375 6.1291 31.4176 5.9827 31.4541Z" fill="#FF7900"/>
<path d="M7.19755 20.8258C6.90796 21.0684 6.63066 21.322 6.33063 21.545C6.1141 21.7059 5.84789 21.7462 5.57936 21.7149C5.39729 21.6937 5.21925 21.6355 5.14325 21.4512C5.06342 21.2576 5.17717 21.1047 5.30456 20.9743C5.63723 20.6339 6.05974 20.5393 6.51548 20.5626C6.88006 20.5812 6.99053 20.6285 7.19755 20.8258Z" fill="#FF7900"/>
<path d="M7.34729 22.0123C6.98699 22.3479 6.62286 22.6821 6.16937 22.8923C6.0013 22.9701 5.81062 23.0287 5.62732 23.0378C5.29704 23.0544 5.17124 22.8396 5.31798 22.5419C5.58663 21.9967 6.05581 21.7805 6.63534 21.7946C6.86918 21.8003 7.10132 21.8762 7.33427 21.9202C7.33859 21.9509 7.34292 21.9816 7.34729 22.0123Z" fill="#FF7900"/>
<path d="M8.63298 39.5999C8.95424 40.3197 9.53527 40.6117 10.2884 40.7113C10.1106 41.0418 9.9274 41.3092 9.60073 41.4014C9.27769 41.4927 9.00985 41.3424 8.78834 41.1018C8.47468 40.7611 8.32628 40.0765 8.63298 39.5999Z" fill="#FF7900"/>
<path d="M8.05529 10.9808C7.34933 10.8631 6.66498 10.7553 5.98375 10.6306C5.82244 10.6011 5.66109 10.5324 5.5189 10.4491C5.38506 10.3706 5.38927 10.2292 5.52357 10.1819C6.03576 10.0017 6.56429 9.9029 7.10078 10.0491C7.56729 10.1762 7.86241 10.5128 8.06572 10.9375C8.06916 10.9448 8.06124 10.9575 8.05529 10.9808Z" fill="#FF7900"/>
<path d="M9.28198 39.0624C9.38271 38.3771 9.60357 37.7941 10.2011 37.423C10.466 37.2585 10.7022 37.264 10.8401 37.4173C10.9901 37.584 10.9924 37.851 10.7964 38.0833C10.6499 38.2569 10.4682 38.4125 10.2751 38.5323C9.9731 38.7196 9.64819 38.8697 9.28198 39.0624Z" fill="#FF7900"/>
<path d="M25.6379 15.8115C25.6315 16.4223 25.1529 16.8577 24.6341 16.7694C24.2996 16.7124 24.1834 16.5181 24.3161 16.2097C24.4422 15.9164 24.6344 15.6667 24.8885 15.472C25.0432 15.3534 25.2242 15.2751 25.4151 15.3703C25.6093 15.4671 25.6349 15.6614 25.6379 15.8115Z" fill="#FF7900"/>
<path d="M28.9877 34.6695C28.8831 34.7593 28.8202 34.8289 28.7436 34.8764C28.4146 35.08 28.1654 35.3603 27.9394 35.6688C27.841 35.8031 27.7296 35.9371 27.5971 36.0343C27.4931 36.1104 27.3498 36.1578 27.2199 36.1683C26.9455 36.1905 26.7638 35.9389 26.8692 35.6823C26.9235 35.5503 27.0129 35.4195 27.119 35.3246C27.6061 34.889 28.1866 34.665 28.8357 34.6153C28.8631 34.6131 28.8922 34.6345 28.9877 34.6695Z" fill="#FF7900"/>
<path d="M25.1336 14.3791C25.1258 14.8826 24.7232 15.3549 24.292 15.4319C24.024 15.4798 23.7824 15.2657 23.8268 14.9829C23.9019 14.5054 24.173 14.1506 24.6033 13.9333C24.819 13.8243 24.9923 13.9069 25.0806 14.1377C25.1173 14.2338 25.1256 14.3407 25.1336 14.3791Z" fill="#FF7900"/>
<path d="M20.6373 37.9462C20.6302 38.0147 20.6301 38.0787 20.6161 38.1394C20.5715 38.3334 20.4817 38.4986 20.2753 38.5554C20.0516 38.617 19.8876 38.5067 19.7588 38.3378C19.5885 38.1144 19.5051 37.8586 19.4917 37.5779C19.4812 37.3577 19.5807 37.1931 19.7443 37.0622C19.9461 36.9007 20.1572 36.9156 20.3306 37.1103C20.5428 37.3485 20.6176 37.6406 20.6373 37.9462Z" fill="#FF7900"/>
<path d="M10.6886 15.8495C11.0888 15.9773 11.4719 16.0842 11.8426 16.2246C12.0233 16.293 12.1362 16.4609 12.1895 16.6523C12.2655 16.9251 12.0955 17.1405 11.8243 17.077C11.384 16.9741 10.9612 16.8127 10.5828 16.556C10.5235 16.5158 10.4754 16.4555 10.4307 16.3979C10.3441 16.2865 10.3326 16.1512 10.411 16.0451C10.4713 15.9634 10.5839 15.9202 10.6886 15.8495Z" fill="#FF7900"/>
<path d="M10.8063 21.602C11.1749 21.6082 11.3862 21.8132 11.3872 22.1656C11.3883 22.5717 11.0615 22.9434 10.7084 22.9379C10.3382 22.9321 10.0599 22.6351 10.0715 22.258C10.0839 21.858 10.3786 21.5949 10.8063 21.602Z" fill="#FF7900"/>
<path d="M11.0169 29.0297C11.2534 28.5601 11.6416 28.3149 12.1303 28.2254C12.3799 28.1797 12.545 28.3273 12.6255 28.6091C12.7089 28.9015 12.6162 29.167 12.3849 29.2979C12.0191 29.5048 11.3458 29.3855 11.0169 29.0297Z" fill="#FF7900"/>
<path d="M20.8435 37.344C20.9184 37.1403 20.9656 36.9199 21.0751 36.7369C21.2181 36.498 21.431 36.497 21.6284 36.6928C21.9253 36.9873 22.0348 37.5416 21.8724 37.9276C21.7196 38.2909 21.3453 38.3455 21.0957 38.0409C20.9637 37.8799 20.8837 37.6189 20.8435 37.344Z" fill="#FF7900"/>
<path d="M9.67765 28.129C9.51425 28.0103 9.37094 27.9478 9.28942 27.839C9.05643 27.5281 9.00717 27.157 9.06926 26.7867C9.11709 26.5012 9.62997 26.2506 9.89031 26.3695C9.9854 26.4129 10.0651 26.5165 10.1206 26.6109C10.1592 26.6766 10.1652 26.7777 10.1502 26.8561C10.0686 27.281 9.89773 27.6729 9.67765 28.129Z" fill="#FF7900"/>
<path d="M13.9812 25.3514C14.124 24.9831 14.2479 24.6369 14.3925 24.2997C14.503 24.0417 14.6683 24.002 14.8513 24.2011C15.0128 24.3768 15.1695 24.5742 15.2646 24.7901C15.4724 25.2617 15.2019 25.6209 14.6916 25.5819C14.4488 25.5634 14.2162 25.5009 13.9812 25.3514Z" fill="#FF7900"/>
<path d="M16.3472 25.1312C16.3473 25.3539 16.2661 25.4948 16.1228 25.5338C15.9486 25.5813 15.8485 25.475 15.764 25.3468C15.7353 25.3033 15.7071 25.2574 15.6896 25.2087C15.5266 24.7553 15.3576 24.3037 15.2082 23.8457C15.1358 23.6239 15.1844 23.5154 15.3314 23.44C15.4679 23.3699 15.5936 23.3686 15.6919 23.5063C15.7345 23.5659 15.7858 23.6228 15.8132 23.6892C15.9846 24.1054 16.1524 24.5231 16.3159 24.9425C16.3419 25.0091 16.3403 25.0865 16.3472 25.1312Z" fill="#FF7900"/>
<path d="M24.85 19.6874C24.6107 19.6174 24.3605 19.5717 24.1349 19.471C23.884 19.3591 23.8733 19.2165 24.0822 19.045C24.389 18.7931 24.74 18.6361 25.1422 18.6081C25.3515 18.5936 25.5125 18.6592 25.6018 18.8621C25.6903 19.0631 25.6535 19.2879 25.5016 19.4455C25.3249 19.6286 25.0995 19.6568 24.85 19.6874Z" fill="#FF7900"/>
<path d="M23.4023 35.8747C23.4164 35.8255 23.4329 35.7083 23.482 35.6071C23.6689 35.2218 24.0511 35.1786 24.3069 35.5243C24.43 35.6907 24.5172 35.8872 24.599 36.0793C24.6767 36.2619 24.6181 36.4283 24.4789 36.5677C24.3324 36.7144 24.1641 36.7684 23.9617 36.704C23.645 36.6032 23.4037 36.2756 23.4023 35.8747Z" fill="#FF7900"/>
<path d="M24.7901 18.2772C24.6034 18.2592 24.4515 18.1945 24.3264 18.0719C24.2133 17.9611 24.2064 17.8392 24.3385 17.7515C24.6697 17.5313 25.0068 17.317 25.3577 17.1306C25.5113 17.049 25.712 17.0276 25.8508 17.1942C25.9899 17.3612 25.9794 17.5662 25.8636 17.7223C25.7495 17.8761 25.591 18.0189 25.4206 18.1032C25.2287 18.1981 25.0017 18.2223 24.7901 18.2772Z" fill="#FF7900"/>
<path d="M8.68478 39.2457C8.58181 39.1749 8.51539 39.1418 8.46481 39.0924C8.15834 38.7931 8.02426 38.1271 8.19234 37.7341C8.22491 37.6579 8.2707 37.5827 8.32649 37.5219C8.54418 37.2848 8.78655 37.3173 8.93287 37.6007C8.96637 37.6655 8.99469 37.7362 9.0086 37.8075C9.10821 38.3191 8.97789 38.7781 8.68478 39.2457Z" fill="#FF7900"/>
<path d="M18.978 38.5621C18.5548 38.461 18.2477 38.2143 18.0824 37.8096C17.9806 37.5604 18.0201 37.3105 18.1815 37.0918C18.3234 36.8995 18.514 36.8797 18.703 37.0249C19.1067 37.3349 19.2458 38.076 18.978 38.5621Z" fill="#FF7900"/>
<path d="M28.6228 32.4398C28.5175 32.4418 28.3287 32.392 28.1759 32.2446C28.0062 32.0809 27.9846 31.9114 28.1547 31.7533C28.2804 31.6365 28.4405 31.5245 28.6031 31.4861C28.9833 31.3964 29.3312 31.5186 29.6274 31.7655C29.8177 31.9242 29.8048 32.0641 29.5898 32.1841C29.3226 32.3334 29.0381 32.44 28.6228 32.4398Z" fill="#FF7900"/>
<path d="M6.98303 19.6883C6.5322 19.9905 6.10626 20.2468 5.58005 20.257C5.30873 20.2623 5.1381 20.1398 5.09255 19.9435C5.04348 19.7319 5.17782 19.4933 5.42175 19.3963C5.53631 19.3507 5.66482 19.3233 5.78799 19.3195C6.20749 19.3064 6.58834 19.4318 6.98303 19.6883Z" fill="#FF7900"/>
<path d="M25.8763 27.9868C26.05 28.021 26.2501 28.0444 26.4398 28.1019C26.6789 28.1745 26.7911 28.3578 26.7658 28.578C26.7403 28.799 26.5893 28.9571 26.3462 28.9802C25.9989 29.0132 25.6746 28.9346 25.397 28.7137C25.2803 28.6208 25.1686 28.5114 25.214 28.3408C25.2577 28.1763 25.3649 28.0639 25.5382 28.0319C25.6411 28.0129 25.7458 28.0038 25.8763 27.9868Z" fill="#FF7900"/>
<path d="M21.834 40.1625C21.8353 40.5155 21.6176 40.6889 21.314 40.6288C20.9856 40.5638 20.6339 40.1466 20.6278 39.814C20.6272 39.7828 20.6287 39.7509 20.6345 39.7203C20.6747 39.5082 20.8592 39.4004 21.2349 39.3678C21.5343 39.3418 21.6602 39.4053 21.7375 39.6273C21.758 39.686 21.768 39.7488 21.7784 39.8105C21.8011 39.9445 21.8209 40.0789 21.834 40.1625Z" fill="#FF7900"/>
<path d="M6.84094 18.4399C6.53264 18.7461 6.22045 18.9833 5.77468 18.9424C5.54475 18.9213 5.34584 18.8341 5.18348 18.6737C5.01788 18.5102 5.02534 18.3772 5.19766 18.2154C5.36833 18.0551 5.58022 17.9977 5.80625 17.9905C6.12621 17.9803 6.56862 18.1717 6.84094 18.4399Z" fill="#FF7900"/>
<path d="M13.9475 24.3217C13.9098 24.8526 13.7214 25.3065 13.3778 25.6966C13.12 25.9893 12.8356 26.1411 12.5858 26.1371C12.5159 25.8808 12.6082 25.5978 12.9136 25.1318C13.1942 24.7037 13.6013 24.3753 13.9475 24.3217Z" fill="#FF7900"/>
<path d="M17.6144 37.6291C17.6236 38.0083 17.3011 38.2358 16.9558 38.0721C16.7896 37.9933 16.6353 37.8717 16.5036 37.7413C16.2986 37.5381 16.292 37.3287 16.4445 37.0836C16.5745 36.8745 16.7798 36.8136 17.0507 36.9036C17.3621 37.007 17.6069 37.3222 17.6144 37.6291Z" fill="#FF7900"/>
<path d="M8.67287 28.2174C8.39178 27.8519 8.10791 27.4886 7.83091 27.1201C7.72605 26.9806 7.68452 26.8167 7.71222 26.6413C7.7446 26.4361 7.90869 26.2895 8.12479 26.2676C8.3237 26.2474 8.44785 26.328 8.53335 26.5404C8.56075 26.6085 8.58567 26.6803 8.59479 26.7526C8.64784 27.1708 8.69698 27.5895 8.74412 28.0084C8.75088 28.0686 8.73964 28.1309 8.7367 28.1921C8.71545 28.2005 8.69416 28.2089 8.67287 28.2174Z" fill="#FF7900"/>
<path d="M22.4071 12.8411C22.2519 12.7883 22.0826 12.7592 21.9448 12.6772C21.7369 12.5535 21.7022 12.3156 21.8694 12.1395C21.9717 12.0317 22.1182 11.9352 22.2604 11.9034C22.4596 11.859 22.6742 11.8653 22.8806 11.8771C23.0344 11.8858 23.153 11.9748 23.2032 12.1356C23.2567 12.3073 23.1988 12.4468 23.0798 12.5636C22.8975 12.7424 22.6689 12.8056 22.4071 12.8411Z" fill="#FF7900"/>
<path d="M7.0034 16.4683C6.53503 16.5289 6.05754 16.5771 5.57739 16.4997C5.46758 16.482 5.35735 16.4236 5.26376 16.3597C5.1385 16.2743 5.03777 16.1537 5.08649 15.987C5.13135 15.8334 5.25488 15.7437 5.40808 15.7148C5.4993 15.6976 5.60065 15.6955 5.69052 15.7164C6.15935 15.8254 6.58012 16.0388 6.96171 16.3304C6.98501 16.3482 6.99884 16.3793 7.01414 16.406C7.01816 16.413 7.0112 16.4263 7.0034 16.4683Z" fill="#FF7900"/>
<path d="M10.2998 28.1461C10.3189 27.6372 10.4034 27.205 10.5135 26.7788C10.5637 26.5845 10.7275 26.4803 10.9118 26.4767C11.081 26.4735 11.1955 26.5639 11.2766 26.7695C11.4015 27.0862 11.3464 27.3694 11.1045 27.6092C10.8868 27.8251 10.625 27.9754 10.2998 28.1461Z" fill="#FF7900"/>
<path d="M29.5984 10.5331C29.4635 10.5137 29.3693 10.5142 29.2849 10.4856C28.8771 10.3474 28.4666 10.2144 28.0683 10.0519C27.8985 9.98257 27.7499 9.85368 27.6039 9.73653C27.5049 9.65705 27.4917 9.53715 27.5421 9.41908C27.5944 9.29644 27.7046 9.24324 27.8234 9.25846C27.9558 9.27538 28.1057 9.29876 28.2091 9.37325C28.6602 9.69816 29.0976 10.0421 29.5381 10.3816C29.5584 10.3972 29.5609 10.4359 29.5984 10.5331Z" fill="#FF7900"/>
<path d="M24.6855 34.6452C24.6937 34.3984 24.7693 34.2183 24.9749 34.1259C25.178 34.0345 25.3447 34.1334 25.4927 34.2626C25.8043 34.5345 25.8548 34.9448 25.6205 35.2559C25.4896 35.4298 25.3706 35.4663 25.1843 35.3668C24.8853 35.2071 24.7054 34.9626 24.6855 34.6452Z" fill="#FF7900"/>
<path d="M25.9299 32.4291C26.0227 32.4789 26.189 32.5442 26.3251 32.6487C26.4297 32.7291 26.5055 32.8531 26.578 32.9679C26.709 33.1754 26.6765 33.3779 26.5021 33.5338C26.3555 33.6649 26.1582 33.681 25.9824 33.5464C25.8164 33.4194 25.6651 33.2717 25.5158 33.1245C25.4042 33.0144 25.3484 32.8837 25.4331 32.726C25.5233 32.5583 25.6468 32.442 25.9299 32.4291Z" fill="#FF7900"/>
<path d="M22.2524 36.8314C22.276 36.7249 22.2974 36.5687 22.3468 36.4219C22.4006 36.2623 22.5217 36.1668 22.6968 36.1485C22.8811 36.1292 22.9897 36.2318 23.0746 36.3753C23.2298 36.6377 23.2233 36.9174 23.1428 37.196C23.0761 37.4266 22.854 37.572 22.6452 37.5475C22.463 37.5261 22.3174 37.3647 22.2776 37.1315C22.2637 37.0495 22.2631 36.9651 22.2524 36.8314Z" fill="#FF7900"/>
<path d="M8.54037 20.6282C8.65922 20.6716 8.77478 20.7123 8.88923 20.756C9.18346 20.8684 9.47722 20.9819 9.77099 21.0955C9.88636 21.14 10.0601 21.1602 10.0474 21.3062C10.0389 21.404 9.92195 21.5196 9.82415 21.5778C9.31324 21.8817 8.67228 21.6329 8.4906 21.0683C8.44918 20.9395 8.41047 20.803 8.54037 20.6282Z" fill="#FF7900"/>
<path d="M26.5456 31.9845C26.3008 31.9765 26.0846 31.9112 25.9145 31.7355C25.781 31.5977 25.7222 31.4352 25.7914 31.2475C25.8545 31.0765 26.0399 30.9504 26.2459 30.9835C26.4481 31.016 26.6503 31.0833 26.8368 31.1694C27.0061 31.2476 27.1122 31.3969 27.0791 31.6026C27.0482 31.7945 26.8807 31.9424 26.6643 31.9759C26.6231 31.9823 26.5809 31.9821 26.5456 31.9845Z" fill="#FF7900"/>
<path d="M23.8941 12.8413C24.2159 12.8441 24.3439 12.9264 24.4097 13.1515C24.4635 13.3357 24.387 13.5215 24.1884 13.6631C24.0045 13.7941 23.8001 13.874 23.57 13.8563C23.3921 13.8427 23.2411 13.7712 23.171 13.5956C23.0976 13.4118 23.1441 13.243 23.2756 13.1008C23.4503 12.9119 23.6723 12.8335 23.8941 12.8413Z" fill="#FF7900"/>
<path d="M6.9838 15.7199C6.60217 15.6513 5.90332 15.2745 5.71338 15.0536C5.55068 14.8643 5.52525 14.6666 5.64356 14.5101C5.7764 14.3343 6.02368 14.2901 6.23708 14.4245C6.3409 14.4898 6.45407 14.5748 6.50743 14.6793C6.67639 15.0104 6.8192 15.3548 6.9838 15.7199Z" fill="#FF7900"/>
<path d="M26.221 29.5335C26.4341 29.5876 26.65 29.6325 26.8595 29.698C27.1945 29.8026 27.1679 30.2298 26.9204 30.3714C26.8239 30.4265 26.706 30.4652 26.5957 30.4711C26.2931 30.4872 26.0454 30.3517 25.839 30.1399C25.7409 30.0392 25.6604 29.919 25.7265 29.7716C25.7875 29.6354 25.9123 29.5771 26.0571 29.563C26.1094 29.5579 26.1621 29.5577 26.2146 29.5553C26.2168 29.548 26.2189 29.5408 26.221 29.5335Z" fill="#FF7900"/>
<path d="M30.9495 19.5664C30.6457 19.8908 30.2524 20.0283 29.8161 20.0543C29.663 20.0635 29.5002 20.0435 29.3537 19.9983C29.12 19.9262 29.0818 19.7534 29.2454 19.5659C29.3907 19.3993 29.5848 19.316 29.8026 19.3204C29.9788 19.324 30.1549 19.3563 30.33 19.3824C30.5324 19.4126 30.7337 19.45 30.9355 19.4843C30.9402 19.5117 30.9448 19.5391 30.9495 19.5664Z" fill="#FF7900"/>
<path d="M26.898 14.07C27.1976 14.07 27.4669 14.3083 27.4758 14.5814C27.4855 14.8754 27.1772 15.1553 26.8457 15.1535C26.5513 15.1518 26.3471 14.9544 26.3422 14.6667C26.3364 14.3311 26.5797 14.07 26.898 14.07Z" fill="#FF7900"/>
<path d="M29.6754 31.0122C29.2403 31.0122 28.8428 31.0254 28.4469 31.0058C28.2879 30.9979 28.0999 30.9589 28.0474 30.7597C28.0127 30.6282 28.1565 30.4801 28.3852 30.3975C28.6622 30.2975 28.9458 30.2967 29.2171 30.4032C29.4749 30.5044 29.6396 30.6959 29.6754 31.0122Z" fill="#FF7900"/>
<path d="M6.74964 17.3657C6.37605 17.4913 6.00454 17.6298 5.59892 17.6139C5.49688 17.6099 5.38943 17.5903 5.29604 17.5506C5.1132 17.4729 5.02754 17.3345 5.05088 17.1894C5.07928 17.0126 5.22131 16.9355 5.36489 16.9292C5.60159 16.9188 5.84991 16.9189 6.07548 16.9803C6.31264 17.0448 6.52882 17.1864 6.75416 17.2944C6.75265 17.3182 6.75115 17.3419 6.74964 17.3657Z" fill="#FF7900"/>
<path d="M7.81817 15.3483C7.8072 15.6329 7.56343 15.7745 7.36754 15.6256C7.23165 15.5222 7.10469 15.3699 7.04456 15.2124C6.93657 14.9295 6.878 14.6271 6.80841 14.3306C6.79593 14.2774 6.81196 14.1806 6.84635 14.1619C6.90091 14.1322 6.99233 14.1291 7.04936 14.1554C7.12153 14.1887 7.18865 14.2535 7.23389 14.3209C7.40386 14.574 7.56904 14.8308 7.7251 15.0927C7.77729 15.1803 7.79681 15.2874 7.81817 15.3483Z" fill="#FF7900"/>
<path d="M20.7905 12.2317C20.6937 12.2133 20.5442 12.203 20.408 12.155C20.1918 12.0787 20.1458 11.9132 20.295 11.7358C20.5016 11.4902 20.7782 11.3633 21.0991 11.368C21.3152 11.3711 21.4911 11.5679 21.5032 11.7818C21.5146 11.983 21.3738 12.1602 21.1545 12.2032C21.0523 12.2233 20.9457 12.2205 20.7905 12.2317Z" fill="#FF7900"/>
<path d="M21.8462 10.6622C21.6995 10.6492 21.5036 10.6931 21.4174 10.5062C21.3368 10.3316 21.4029 10.1585 21.5025 10.0014C21.7173 9.66251 22.3243 9.66506 22.542 10.0064C22.6424 10.1639 22.6084 10.339 22.4496 10.4819C22.3182 10.6002 22.1256 10.6593 21.8462 10.6622Z" fill="#FF7900"/>
<path d="M26.3809 13.5646C26.0848 13.5706 25.8926 13.3944 25.888 13.1129C25.8833 12.8157 26.1317 12.5554 26.4173 12.5585C26.7322 12.5619 26.9686 12.7656 26.9784 13.0419C26.9883 13.3207 26.7173 13.5578 26.3809 13.5646Z" fill="#FF7900"/>
<path d="M11.6499 3.90124C11.3096 4.17225 11.1166 4.53444 10.9133 4.88921C10.8663 4.97116 10.8119 5.04883 10.7619 5.12912C10.6946 5.23715 10.6057 5.30333 10.4734 5.26056C10.3445 5.21887 10.3056 5.11235 10.2987 4.98874C10.2832 4.71175 10.3668 4.46694 10.5599 4.2693C10.8556 3.96669 11.222 3.84873 11.6499 3.90124Z" fill="#FF7900"/>
<path d="M25.028 10.9354C25.028 11.0132 25.0292 11.0744 25.0278 11.1356C25.0244 11.2914 24.9949 11.4305 24.8135 11.4754C24.6213 11.5229 24.4296 11.5299 24.2827 11.3782C24.113 11.203 24.2827 10.8049 24.5596 10.7252C24.6482 10.6997 24.7462 10.7069 24.7945 10.7029C24.9455 10.5745 25.0553 10.4477 25.1934 10.3729C25.3351 10.2962 25.4594 10.3608 25.5012 10.4838C25.5599 10.6565 25.4977 10.8263 25.3475 10.8745C25.2585 10.903 25.1627 10.9107 25.028 10.9354Z" fill="#FF7900"/>
<path d="M26.3181 9.48315C26.5009 9.64277 26.6844 9.76915 26.8236 9.93321C26.994 10.1342 26.9151 10.4167 26.6838 10.5432C26.6285 10.5735 26.5676 10.5943 26.5146 10.628C26.4162 10.6906 26.3256 10.7668 26.2013 10.6774C26.0603 10.5761 25.9354 10.47 25.9411 10.2733C25.9499 9.96914 26.1157 9.74508 26.3181 9.48315Z" fill="#FF7900"/>
<path d="M10.4667 39.6742C10.4792 39.9212 10.3441 40.0958 10.1633 40.2295C9.97923 40.3656 9.65853 40.2377 9.60966 40.0144C9.55529 39.7663 9.61986 39.5352 9.76811 39.3326C9.84577 39.2266 10.1191 39.1833 10.2658 39.2288C10.4287 39.2793 10.4581 39.4038 10.4605 39.5485C10.4612 39.5904 10.4645 39.6323 10.4667 39.6742Z" fill="#FF7900"/>
<path d="M26.1463 11.9249C26.1415 12.0649 25.9976 12.195 25.814 12.2924C25.6308 12.3896 25.4509 12.3747 25.279 12.2597C25.2704 12.2539 25.2628 12.2465 25.2551 12.2394C25.1215 12.1161 25.099 11.8923 25.2026 11.7178C25.3237 11.5137 25.6432 11.3777 25.8545 11.4402C26.0443 11.4963 26.1503 11.6395 26.1463 11.9249Z" fill="#FF7900"/>
<path d="M7.16271 23.1489C7.22069 22.7191 7.49033 22.4234 7.85824 22.3492C8.09148 22.3022 8.22537 22.3509 8.28756 22.5054C8.35994 22.6853 8.29894 22.8924 8.11629 22.9972C7.82634 23.1636 7.51542 23.2329 7.16271 23.1489Z" fill="#FF7900"/>
<path d="M27.6073 16.0927C27.5981 16.3356 27.3706 16.5472 27.13 16.5369C26.877 16.5261 26.6796 16.2986 26.6846 16.0234C26.6893 15.7651 26.8716 15.5789 27.116 15.5828C27.3817 15.587 27.6173 15.8315 27.6073 16.0927Z" fill="#FF7900"/>
<path d="M18.7215 10.8007C18.2613 10.5159 18.2119 9.85792 18.6249 9.1603C18.6919 9.30081 18.7706 9.41258 18.7988 9.53593C18.8595 9.80105 18.9106 10.0708 18.9338 10.3414C18.9491 10.5196 18.9044 10.7003 18.7215 10.8007Z" fill="#FF7900"/>
<path d="M21.3555 41.0227C21.3929 41.0334 21.4881 41.0465 21.5699 41.0869C21.7378 41.1697 21.8216 41.3559 21.7871 41.5332C21.7579 41.6839 21.6409 41.8023 21.4541 41.815C21.3363 41.8229 21.2036 41.7961 21.0972 41.7446C20.9001 41.6491 20.8049 41.4444 20.8494 41.2832C20.8965 41.1127 21.0581 41.019 21.3555 41.0227Z" fill="#FF7900"/>
<path d="M19.7055 4.31198C19.4643 4.31414 19.2037 4.11821 19.1677 3.90767C19.139 3.74002 19.1903 3.65679 19.3563 3.66062C19.51 3.66413 19.6371 3.64362 19.7634 3.54231C19.8814 3.44768 20.0566 3.52001 20.1225 3.66309C20.2616 3.9652 20.0406 4.30896 19.7055 4.31198Z" fill="#FF7900"/>
<path d="M24.638 40.3369C24.6455 40.0941 24.851 39.8958 25.0849 39.9058C25.3144 39.9156 25.5008 40.1123 25.4946 40.338C25.4882 40.5729 25.2676 40.7869 25.0468 40.7728C24.8203 40.7582 24.6313 40.5567 24.638 40.3369Z" fill="#FF7900"/>
<path d="M4.9321 11.2499C4.7534 11.8286 4.67369 12.3833 4.77121 12.9691C4.724 12.9245 4.66573 12.8871 4.63134 12.8342C4.41741 12.5051 4.33016 12.1407 4.36953 11.7522C4.39303 11.5206 4.49372 11.3271 4.73779 11.2518C4.7813 11.2384 4.83246 11.2499 4.9321 11.2499Z" fill="#FF7900"/>
<path d="M11.3628 27.9453C11.46 27.42 11.8753 27.1457 12.0593 26.6852C12.2683 26.9432 12.3416 27.1705 12.2203 27.4249C12.0619 27.7569 11.7795 27.9067 11.3628 27.9453Z" fill="#FF7900"/>
<path d="M24.9124 38.6794C25.1466 38.6827 25.3257 38.8672 25.3264 39.1056C25.3271 39.3352 25.1606 39.5069 24.9331 39.511C24.7033 39.5153 24.5027 39.3262 24.4981 39.1012C24.4932 38.8642 24.678 38.6761 24.9124 38.6794Z" fill="#FF7900"/>
<path d="M25.5747 41.4804C25.5687 41.6914 25.3841 41.859 25.1562 41.8602C24.9398 41.8615 24.7519 41.6777 24.7537 41.4663C24.7554 41.2473 24.9883 41.0088 25.1935 41.0157C25.3883 41.0223 25.581 41.2572 25.5747 41.4804Z" fill="#FF7900"/>
<path d="M18.5913 12.2503C18.8535 11.8965 19.1296 11.7301 19.4844 11.7094C19.7076 11.6965 19.8066 11.7777 19.8154 11.9524C19.8249 12.1432 19.727 12.264 19.5109 12.2711C19.2298 12.2803 18.9478 12.26 18.5913 12.2503Z" fill="#FF7900"/>
<path d="M11.4899 41.2986C11.1795 41.4465 10.9097 41.5832 10.6329 41.7038C10.4975 41.7627 10.3501 41.7791 10.2185 41.6818C10.2808 41.1121 10.9131 40.9038 11.4899 41.2986Z" fill="#FF7900"/>
<path d="M26.3646 39.1091C26.3634 39.3331 26.2434 39.4925 26.0766 39.4915C25.8553 39.4902 25.6276 39.2697 25.6232 39.0522C25.6186 38.8248 25.7409 38.6941 25.9614 38.6906C26.2094 38.6866 26.3659 38.849 26.3646 39.1091Z" fill="#FF7900"/>
<path d="M25.8209 40.376C25.8171 40.1651 25.9826 39.9741 26.1772 39.965C26.3622 39.9563 26.5541 40.1465 26.5655 40.3499C26.5762 40.5411 26.3944 40.7458 26.2015 40.7595C26.0143 40.7729 25.8246 40.5817 25.8209 40.376Z" fill="#FF7900"/>
<path d="M26.6557 41.3202C26.6514 41.5283 26.4976 41.6768 26.2921 41.6716C26.0863 41.6662 25.9345 41.5066 25.9437 41.3053C25.9529 41.1052 26.1208 40.9389 26.3089 40.9434C26.4993 40.948 26.6597 41.1223 26.6557 41.3202Z" fill="#FF7900"/>
<path d="M14.3138 22.9627C14.1379 22.9625 14.049 22.8349 14.1249 22.6847C14.2356 22.4659 14.4282 22.3385 14.6659 22.2994C14.7339 22.2882 14.8506 22.3285 14.8789 22.3809C14.9159 22.4495 14.9184 22.5701 14.8814 22.6393C14.7612 22.8639 14.5266 22.9114 14.3138 22.9627Z" fill="#FF7900"/>
<path d="M17.566 8.16887C17.5591 8.01461 17.5531 7.88057 17.546 7.72166C17.6304 7.70854 17.7062 7.69674 17.8123 7.6803L17.8123 8.16888L17.566 8.16887Z" fill="#FF7900"/>
<path d="M2.32533 41.0229C2.18738 41.0328 2.0681 41.0414 1.92628 41.0515L1.92627 40.532C2.04235 40.5128 2.17094 40.4916 2.32537 40.466L2.32533 41.0229Z" fill="#FF7900"/>
<path d="M31.301 17.4811H30.9227V16.8496C31.0582 16.8729 31.1664 16.8915 31.2806 16.9111C31.3327 17.1088 31.3524 17.288 31.301 17.4811Z" fill="#FF7900"/>
<path d="M25.465 24.2352V23.6295C25.6365 23.6481 25.8404 23.5511 25.9252 23.7396C25.9769 23.8546 25.95 24.0366 25.8949 24.1603C25.818 24.3332 25.644 24.2512 25.465 24.2352Z" fill="#FF7900"/>
<path d="M40.5124 12.8978L41.0628 11.2467H45.9223L46.4861 12.8978H40.5124ZM38.4048 14.9114L42.5797 5.51456H44.7275L48.9427 14.9114H46.6606L43.2106 6.61531H44.0832L40.6332 14.9114H38.4048Z" fill="black"/>
<path d="M53.0236 15.0726C52.2719 15.0726 51.549 14.972 50.8556 14.7706C50.162 14.5692 49.6049 14.3075 49.1843 13.9853L49.9227 12.3476C50.3163 12.6341 50.7906 12.869 51.3456 13.0523C51.9004 13.2358 52.4598 13.3275 53.0236 13.3275C53.4532 13.3275 53.7999 13.2828 54.064 13.1933C54.3279 13.1039 54.5225 12.9852 54.648 12.8375C54.7732 12.6898 54.8359 12.5177 54.8359 12.3207C54.8359 12.0702 54.7373 11.871 54.5406 11.7233C54.3436 11.5756 54.0818 11.4548 53.7552 11.3609C53.4285 11.2669 53.0727 11.1775 52.688 11.0924C52.3031 11.0074 51.9161 10.9045 51.5268 10.7836C51.1376 10.6628 50.7795 10.5017 50.4529 10.3004C50.1261 10.099 49.8666 9.83512 49.6743 9.50832C49.4818 9.18175 49.3857 8.7723 49.3857 8.28002C49.3857 7.74306 49.5287 7.2531 49.8152 6.81007C50.1016 6.36709 50.5379 6.01367 51.1241 5.74958C51.7102 5.48568 52.4464 5.35358 53.3324 5.35358C53.923 5.35358 54.507 5.42529 55.0842 5.56837C55.6615 5.7116 56.1649 5.91738 56.5944 6.18588L55.9098 7.82359C55.4891 7.58198 55.0551 7.40073 54.6077 7.27991C54.1601 7.15913 53.7305 7.0987 53.319 7.0987C52.8894 7.0987 52.5447 7.14568 52.2853 7.23965C52.0256 7.33362 51.8356 7.46116 51.7148 7.62224C51.594 7.78333 51.5336 7.96245 51.5336 8.1592C51.5336 8.40988 51.6319 8.61122 51.8289 8.7633C52.0256 8.91557 52.2853 9.03408 52.6075 9.11904C52.9297 9.2042 53.2875 9.28912 53.6814 9.37409C54.0751 9.45925 54.4644 9.56434 54.8493 9.68957C55.234 9.81499 55.5876 9.97379 55.9098 10.1661C56.232 10.3587 56.4938 10.6181 56.6951 10.9447C56.8965 11.2715 56.9972 11.6763 56.9972 12.1596C56.9972 12.6878 56.8516 13.171 56.5609 13.6094C56.27 14.048 55.8293 14.4014 55.2386 14.6699C54.648 14.9384 53.9096 15.0726 53.0236 15.0726Z" fill="black"/>
<path d="M63.0377 13.2333C63.4583 13.2333 63.8453 13.1594 64.1989 13.0118C64.5523 12.8641 64.8634 12.6539 65.1319 12.3809C65.4004 12.108 65.6084 11.7902 65.7561 11.4277C65.9038 11.0653 65.9776 10.6605 65.9776 10.2128C65.9776 9.76545 65.9038 9.36041 65.7561 8.99798C65.6084 8.63552 65.4004 8.31795 65.1319 8.04486C64.8634 7.77196 64.5523 7.56158 64.1989 7.4139C63.8453 7.26623 63.4583 7.19243 63.0377 7.19243C62.6169 7.19243 62.2276 7.26623 61.8698 7.4139C61.5117 7.56158 61.2007 7.77196 60.9368 8.04486C60.6728 8.31795 60.467 8.63552 60.3193 8.99798C60.1716 9.36041 60.0978 9.76545 60.0978 10.2128C60.0978 10.6605 60.1716 11.0653 60.3193 11.4277C60.467 11.7902 60.6728 12.108 60.9368 12.3809C61.2007 12.6539 61.5117 12.8641 61.8698 13.0118C62.2276 13.1594 62.6169 13.2333 63.0377 13.2333ZM63.0511 15.0724C62.3082 15.0724 61.6235 14.9516 60.9972 14.71C60.3707 14.4683 59.8247 14.1283 59.3595 13.6897C58.894 13.2513 58.5339 12.7366 58.2788 12.1459C58.0238 11.5553 57.8962 10.9109 57.8962 10.2128C57.8962 9.50599 58.0238 8.85931 58.2788 8.27306C58.5339 7.68704 58.894 7.17458 59.3595 6.736C59.8247 6.29761 60.3684 5.95741 60.9905 5.71576C61.6124 5.47412 62.2947 5.3533 63.0377 5.3533C63.7805 5.3533 64.4628 5.47204 65.0849 5.70904C65.7068 5.94628 66.2505 6.28417 66.7159 6.72259C67.1811 7.16117 67.5415 7.67568 67.7966 8.26633C68.0517 8.85699 68.1792 9.50599 68.1792 10.2128C68.1792 10.9109 68.0517 11.5576 67.7966 12.1527C67.5415 12.7479 67.1811 13.2647 66.7159 13.7031C66.2505 14.1417 65.7068 14.4796 65.0849 14.7167C64.4628 14.9537 63.7849 15.0724 63.0511 15.0724Z" fill="black"/>
<path d="M74.3141 15.0726C73.5892 15.0726 72.9157 14.9539 72.2937 14.7169C71.6716 14.4799 71.1326 14.142 70.6762 13.7034C70.2197 13.265 69.864 12.7503 69.6089 12.1596C69.3539 11.5689 69.2263 10.9202 69.2263 10.2131C69.2263 9.50623 69.3539 8.85727 69.6089 8.26661C69.864 7.67591 70.2218 7.16141 70.6829 6.72283C71.1436 6.28444 71.685 5.94651 72.3072 5.70932C72.9291 5.47227 73.6026 5.35358 74.3275 5.35358C75.1418 5.35358 75.8801 5.49449 76.5425 5.77643C77.2047 6.05833 77.7595 6.47238 78.2071 7.01818L76.7975 8.30687C76.4842 7.94 76.1285 7.6625 75.7303 7.47457C75.332 7.28663 74.9001 7.19267 74.4349 7.19267C73.9963 7.19267 73.5936 7.2665 73.2267 7.41418C72.8596 7.56181 72.5421 7.76992 72.2736 8.03837C72.0051 8.30687 71.7971 8.62467 71.6494 8.9915C71.5017 9.35856 71.4279 9.76569 71.4279 10.2131C71.4279 10.6607 71.5017 11.0679 71.6494 11.4347C71.7971 11.8018 72.0051 12.1193 72.2736 12.3878C72.5421 12.6563 72.8596 12.8644 73.2267 13.012C73.5936 13.1597 73.9963 13.2335 74.4349 13.2335C74.9001 13.2335 75.332 13.1375 75.7303 12.9449C76.1285 12.7526 76.4842 12.473 76.7975 12.1059L78.2071 13.3946C77.7595 13.9406 77.2047 14.3568 76.5425 14.6431C75.8801 14.9294 75.1374 15.0726 74.3141 15.0726Z" fill="black"/>
<path d="M81.8446 5.51443H79.6565V14.9113H81.8446V5.51443Z" fill="black"/>
<path d="M84.932 12.8978L85.4824 11.2467H90.342L90.9058 12.8978H84.932ZM82.8245 14.9114L86.9994 5.51456H89.1473L93.3624 14.9114H91.0803L87.6303 6.61531H88.5029L85.0529 14.9114H82.8245Z" fill="black"/>
<path d="M98.8395 15.0726C98.1146 15.0726 97.4411 14.9539 96.8191 14.7169C96.197 14.4799 95.658 14.142 95.2016 13.7034C94.7451 13.265 94.3894 12.7503 94.1343 12.1596C93.8793 11.5689 93.7517 10.9202 93.7517 10.2131C93.7517 9.50623 93.8793 8.85727 94.1343 8.26661C94.3894 7.67591 94.7472 7.16141 95.2082 6.72283C95.669 6.28444 96.2104 5.94651 96.8326 5.70932C97.4545 5.47227 98.128 5.35358 98.8529 5.35358C99.6671 5.35358 100.405 5.49449 101.068 5.77643C101.73 6.05833 102.285 6.47238 102.732 7.01818L101.323 8.30687C101.01 7.94 100.654 7.6625 100.256 7.47457C99.8574 7.28663 99.4255 7.19267 98.9603 7.19267C98.5217 7.19267 98.119 7.2665 97.7521 7.41418C97.385 7.56181 97.0675 7.76992 96.799 8.03837C96.5305 8.30687 96.3224 8.62467 96.1748 8.9915C96.0271 9.35856 95.9533 9.76569 95.9533 10.2131C95.9533 10.6607 96.0271 11.0679 96.1748 11.4347C96.3224 11.8018 96.5305 12.1193 96.799 12.3878C97.0675 12.6563 97.385 12.8644 97.7521 13.012C98.119 13.1597 98.5217 13.2335 98.9603 13.2335C99.4255 13.2335 99.8574 13.1375 100.256 12.9449C100.654 12.7526 101.01 12.473 101.323 12.1059L102.732 13.3946C102.285 13.9406 101.73 14.3568 101.068 14.6431C100.405 14.9294 99.6628 15.0726 98.8395 15.0726Z" fill="black"/>
<path d="M106.37 5.51443H104.182V14.9113H106.37V5.51443Z" fill="black"/>
<path d="M111.914 4.74941L113.727 2.81631H115.969L113.552 4.74941H111.914ZM113.136 13.2335C113.557 13.2335 113.944 13.1596 114.297 13.0119C114.651 12.8643 114.962 12.6541 115.23 12.381C115.499 12.1081 115.707 11.7904 115.854 11.4279C116.002 11.0654 116.076 10.6606 116.076 10.213C116.076 9.76563 116.002 9.36058 115.854 8.99816C115.707 8.6357 115.499 8.31813 115.23 8.04504C114.962 7.77214 114.651 7.56175 114.297 7.41408C113.944 7.26644 113.557 7.19261 113.136 7.19261C112.715 7.19261 112.326 7.26644 111.968 7.41408C111.61 7.56175 111.299 7.77214 111.035 8.04504C110.771 8.31813 110.565 8.6357 110.418 8.99816C110.27 9.36058 110.196 9.76563 110.196 10.213C110.196 10.6606 110.27 11.0654 110.418 11.4279C110.565 11.7904 110.771 12.1081 111.035 12.381C111.299 12.6541 111.61 12.8643 111.968 13.0119C112.326 13.1596 112.715 13.2335 113.136 13.2335ZM113.15 15.0726C112.407 15.0726 111.722 14.9518 111.096 14.7101C110.469 14.4685 109.923 14.1285 109.458 13.6899C108.992 13.2515 108.632 12.7368 108.377 12.1461C108.122 11.5555 107.995 10.9111 107.995 10.213C107.995 9.50617 108.122 8.85953 108.377 8.27323C108.632 7.68721 108.992 7.17476 109.458 6.73618C109.923 6.29779 110.467 5.95758 111.089 5.71594C111.711 5.4743 112.393 5.35348 113.136 5.35348C113.879 5.35348 114.561 5.47221 115.183 5.70922C115.805 5.94645 116.349 6.28438 116.814 6.72277C117.28 7.16135 117.64 7.67585 117.895 8.26651C118.15 8.85717 118.278 9.50617 118.278 10.213C118.278 10.9111 118.15 11.5577 117.895 12.1528C117.64 12.7481 117.28 13.265 116.814 13.7033C116.349 14.1419 115.805 14.4798 115.183 14.7169C114.561 14.9539 113.883 15.0726 113.15 15.0726Z" fill="black"/>
<path d="M119.915 14.9113V5.51437H121.714L127.258 12.2802H126.385V5.51437H128.533V14.9113H126.734L121.19 8.1455H122.063V14.9113H119.915Z" fill="black"/>
<path d="M41.8009 29.3825H44.3515C44.9063 29.3825 45.3315 29.2885 45.6268 29.1006C45.9221 28.9127 46.0698 28.6219 46.0698 28.228C46.0698 27.8253 45.9221 27.53 45.6268 27.342C45.3315 27.1541 44.9063 27.0601 44.3515 27.0601H41.6399V25.4761H43.9622C44.4902 25.4761 44.8952 25.3844 45.1771 25.2009C45.459 25.0175 45.6 24.7378 45.6 24.3619C45.6 23.986 45.459 23.7087 45.1771 23.5296C44.8952 23.3507 44.4902 23.2611 43.9622 23.2611H41.8009V29.3825ZM39.6396 31.0203V21.6234H44.2307C45.412 21.6234 46.3001 21.8472 46.8954 22.2946C47.4905 22.7422 47.7881 23.3329 47.7881 24.0665C47.7881 24.5588 47.6673 24.9861 47.4257 25.3486C47.184 25.711 46.8505 25.9908 46.4256 26.1876C46.0004 26.3845 45.5194 26.4829 44.9825 26.4829L45.2375 25.9191C45.8282 25.9191 46.3494 26.0176 46.8014 26.2144C47.2532 26.4114 47.609 26.6977 47.8686 27.0735C48.1281 27.4495 48.258 27.9104 48.258 28.4562C48.258 29.2617 47.9402 29.8905 47.3048 30.3423C46.6693 30.7943 45.7342 31.0203 44.4992 31.0203H39.6396Z" fill="black"/>
<path d="M52.0973 21.6236H49.9092V31.0205H52.0973V21.6236Z" fill="black"/>
<path d="M56.2587 31.0205V23.3956H53.2517V21.6236H61.4404V23.3956H58.4334V31.0205H56.2587Z" fill="black"/>
<path d="M67.1054 31.1815C66.3805 31.1815 65.707 31.0628 65.085 30.8258C64.4629 30.5888 63.9239 30.2509 63.4675 29.8123C63.011 29.3739 62.6553 28.8592 62.4002 28.2685C62.1451 27.6778 62.0176 27.0291 62.0176 26.322C62.0176 25.6152 62.1451 24.9662 62.4002 24.3755C62.6553 23.7848 63.0131 23.2703 63.4741 22.8317C63.9349 22.3934 64.4763 22.0554 65.0985 21.8182C65.7204 21.5812 66.3939 21.4625 67.1188 21.4625C67.933 21.4625 68.6713 21.6034 69.3338 21.8853C69.996 22.1672 70.5507 22.5813 70.9984 23.1271L69.5888 24.4158C69.2755 24.0489 68.9197 23.7714 68.5216 23.5835C68.1233 23.3955 67.6914 23.3016 67.2262 23.3016C66.7876 23.3016 66.3849 23.3754 66.018 23.5231C65.6509 23.6707 65.3334 23.8788 65.0649 24.1473C64.7964 24.4158 64.5883 24.7336 64.4406 25.1004C64.293 25.4675 64.2192 25.8746 64.2192 26.322C64.2192 26.7696 64.293 27.1767 64.4406 27.5436C64.5883 27.9107 64.7964 28.2282 65.0649 28.4967C65.3334 28.7652 65.6509 28.9733 66.018 29.1209C66.3849 29.2686 66.7876 29.3424 67.2262 29.3424C67.6914 29.3424 68.1233 29.2464 68.5216 29.0538C68.9197 28.8615 69.2755 28.5819 69.5888 28.2148L70.9984 29.5035C70.5507 30.0495 69.996 30.4657 69.3338 30.752C68.6713 31.0383 67.9286 31.1815 67.1054 31.1815Z" fill="black"/>
<path d="M76.9989 29.3425C77.4194 29.3425 77.8064 29.2687 78.16 29.1211C78.5135 28.9734 78.8245 28.7632 79.093 28.4901C79.3615 28.2172 79.5696 27.8994 79.7172 27.537C79.8649 27.1746 79.9387 26.7697 79.9387 26.3221C79.9387 25.8747 79.8649 25.4697 79.7172 25.1072C79.5696 24.7448 79.3615 24.4272 79.093 24.1541C78.8245 23.8812 78.5135 23.6709 78.16 23.5232C77.8064 23.3755 77.4194 23.3017 76.9989 23.3017C76.5781 23.3017 76.1888 23.3755 75.831 23.5232C75.4729 23.6709 75.1619 23.8812 74.898 24.1541C74.6339 24.4272 74.4282 24.7448 74.2805 25.1072C74.1328 25.4697 74.059 25.8747 74.059 26.3221C74.059 26.7697 74.1328 27.1746 74.2805 27.537C74.4282 27.8994 74.6339 28.2172 74.898 28.4901C75.1619 28.7632 75.4729 28.9734 75.831 29.1211C76.1888 29.2687 76.5781 29.3425 76.9989 29.3425ZM77.0123 31.1817C76.2693 31.1817 75.5847 31.0608 74.9584 30.8192C74.3319 30.5776 73.7859 30.2375 73.3206 29.799C72.8552 29.3606 72.4951 28.8459 72.24 28.2552C71.9849 27.6645 71.8574 27.0202 71.8574 26.3221C71.8574 25.6152 71.9849 24.9686 72.24 24.3823C72.4951 23.7963 72.8552 23.2838 73.3206 22.8453C73.7859 22.4069 74.3296 22.0667 74.9517 21.825C75.5736 21.5834 76.2559 21.4626 76.9989 21.4626C77.7416 21.4626 78.4239 21.5813 79.046 21.8183C79.6679 22.0555 80.2116 22.3935 80.6771 22.8318C81.1423 23.2705 81.5027 23.785 81.7577 24.3756C82.0128 24.9663 82.1403 25.6152 82.1403 26.3221C82.1403 27.0202 82.0128 27.6668 81.7577 28.2619C81.5027 28.8572 81.1423 29.374 80.6771 29.8124C80.2116 30.251 79.6679 30.5889 79.046 30.8259C78.4239 31.0629 77.746 31.1817 77.0123 31.1817Z" fill="black"/>
<path d="M85.9657 21.6236H83.7776V31.0205H85.9657V21.6236Z" fill="black"/>
<path d="M88.1809 31.0205V21.6236H89.9798L95.5239 28.3894H94.6513V21.6236H96.7992V31.0205H95.0004L89.4562 24.2548H90.3288V31.0205H88.1809Z" fill="black"/>
<path d="M41.8278 45.3575H43.8012C44.4275 45.3575 44.9711 45.239 45.4322 45.0018C45.893 44.7648 46.251 44.4246 46.5061 43.9816C46.7612 43.5386 46.8887 43.0218 46.8887 42.4311C46.8887 41.8316 46.7612 41.3125 46.5061 40.8739C46.251 40.4355 45.893 40.0976 45.4322 39.8604C44.9711 39.6234 44.4275 39.5046 43.8012 39.5046H41.8278V45.3575ZM39.6396 47.1295V37.7326H43.9085C44.9288 37.7326 45.8282 37.9273 46.6068 38.3166C47.3854 38.7059 47.9939 39.2519 48.4325 39.9543C48.8708 40.657 49.0903 41.4826 49.0903 42.4311C49.0903 43.3798 48.8708 44.2054 48.4325 44.9078C47.9939 45.6105 47.3854 46.1563 46.6068 46.5456C45.8282 46.9349 44.9288 47.1295 43.9085 47.1295H39.6396Z" fill="black"/>
<path d="M52.7283 41.5047H57.2521V43.2094H52.7283V41.5047ZM52.8894 45.3843H58.0039V47.1292H50.728V37.7325H57.8293V39.4778H52.8894V45.3843Z" fill="black"/>
<path d="M63.5339 47.1295V37.7326H65.3328L69.3332 44.3642H68.3801L72.2999 37.7326H74.1122V47.1295H72.0851L72.0583 40.8604H72.461L69.2929 46.1227H68.3264L65.118 40.8604H65.561V47.1295H63.5339Z" fill="black"/>
<path d="M78.6898 36.9672L80.5021 35.0342H82.7439L80.3276 36.9672H78.6898ZM78.3542 41.5046H82.8781V43.2095H78.3542V41.5046ZM78.5153 45.3842H83.6299V47.1293H76.354V37.7324H83.4554V39.4776H78.5153V45.3842Z" fill="black"/>
<path d="M84.301 47.1295L88.3283 41.5585V43.1425L84.4756 37.7326H86.9322L89.6035 41.4914L88.5565 41.5182L91.2145 37.7326H93.5637L89.7244 43.0486V41.4914L93.7919 47.1295H91.2816L88.5162 43.1425H89.5096L86.7845 47.1295H84.301Z" fill="black"/>
<path d="M97.1347 37.7325H94.9465V47.1294H97.1347V37.7325Z" fill="black"/>
<path d="M103.846 47.2905C103.121 47.2905 102.448 47.1718 101.826 46.9347C101.204 46.6977 100.665 46.3598 100.208 45.9212C99.7517 45.4828 99.3959 44.9681 99.1409 44.3775C98.8858 43.7868 98.7583 43.138 98.7583 42.4309C98.7583 41.7241 98.8858 41.0751 99.1409 40.4845C99.3959 39.8938 99.7538 39.3793 100.215 38.9407C100.676 38.5023 101.217 38.1644 101.839 37.9272C102.461 37.6901 103.135 37.5714 103.86 37.5714C104.674 37.5714 105.412 37.7124 106.074 37.9943C106.737 38.2762 107.291 38.6903 107.739 39.236L106.33 40.5247C106.016 40.1578 105.66 39.8804 105.262 39.6924C104.864 39.5045 104.432 39.4105 103.967 39.4105C103.528 39.4105 103.126 39.4844 102.759 39.632C102.392 39.7797 102.074 39.9878 101.806 40.2562C101.537 40.5247 101.329 40.8425 101.181 41.2093C101.034 41.5764 100.96 41.9835 100.96 42.4309C100.96 42.8785 101.034 43.2857 101.181 43.6526C101.329 44.0196 101.537 44.3372 101.806 44.6057C102.074 44.8741 102.392 45.0822 102.759 45.2299C103.126 45.3776 103.528 45.4514 103.967 45.4514C104.432 45.4514 104.864 45.3553 105.262 45.1628C105.66 44.9704 106.016 44.6908 106.33 44.3238L107.739 45.6125C107.291 46.1585 106.737 46.5746 106.074 46.8609C105.412 47.1473 104.669 47.2905 103.846 47.2905Z" fill="black"/>
<path d="M113.74 45.4514C114.16 45.4514 114.547 45.3776 114.901 45.2299C115.254 45.0823 115.566 44.8721 115.834 44.599C116.102 44.3261 116.311 44.0083 116.458 43.6459C116.606 43.2834 116.68 42.8786 116.68 42.431C116.68 41.9836 116.606 41.5786 116.458 41.2161C116.311 40.8537 116.102 40.5361 115.834 40.263C115.566 39.9901 115.254 39.7797 114.901 39.6321C114.547 39.4844 114.16 39.4106 113.74 39.4106C113.319 39.4106 112.93 39.4844 112.572 39.6321C112.214 39.7797 111.903 39.9901 111.639 40.263C111.375 40.5361 111.169 40.8537 111.021 41.2161C110.874 41.5786 110.8 41.9836 110.8 42.431C110.8 42.8786 110.874 43.2834 111.021 43.6459C111.169 44.0083 111.375 44.3261 111.639 44.599C111.903 44.8721 112.214 45.0823 112.572 45.2299C112.93 45.3776 113.319 45.4514 113.74 45.4514ZM113.753 47.2905C113.01 47.2905 112.326 47.1697 111.699 46.9281C111.073 46.6865 110.527 46.3464 110.062 45.9078C109.596 45.4695 109.236 44.9548 108.981 44.3641C108.726 43.7734 108.598 43.1291 108.598 42.431C108.598 41.7241 108.726 41.0775 108.981 40.4912C109.236 39.9052 109.596 39.3927 110.062 38.9542C110.527 38.5157 111.071 38.1755 111.693 37.9339C112.315 37.6923 112.997 37.5715 113.74 37.5715C114.483 37.5715 115.165 37.6902 115.787 37.9272C116.409 38.1644 116.953 38.5023 117.418 38.9407C117.883 39.3793 118.244 39.8938 118.499 40.4845C118.754 41.0752 118.881 41.7241 118.881 42.431C118.881 43.1291 118.754 43.7757 118.499 44.3708C118.244 44.966 117.883 45.4829 117.418 45.9213C116.953 46.3599 116.409 46.6978 115.787 46.9348C115.165 47.1718 114.487 47.2905 113.753 47.2905Z" fill="black"/>
</svg>
