<svg width="470" height="188" viewBox="0 0 470 188" fill="none" xmlns="http://www.w3.org/2000/svg">
<path d="M229.146 40.2383H211.129L211.041 35.668H226.554C229.718 35.668 232.413 35.2139 234.64 34.3057C236.866 33.3975 238.551 32.0498 239.693 30.2627C240.865 28.4463 241.451 26.2197 241.451 23.583C241.451 20.8877 240.88 18.6611 239.737 16.9033C238.595 15.1162 236.881 13.7979 234.596 12.9482C232.311 12.0986 229.439 11.6738 225.982 11.6738H212.535V71H207.13V7.01562H225.982C229.234 7.01562 232.149 7.33789 234.728 7.98242C237.306 8.62695 239.503 9.6377 241.319 11.0146C243.136 12.3916 244.513 14.1348 245.45 16.2441C246.417 18.3242 246.9 20.8145 246.9 23.7148C246.9 26.3516 246.314 28.7393 245.143 30.8779C243.971 32.9873 242.315 34.7158 240.177 36.0635C238.067 37.3818 235.533 38.2021 232.574 38.5244L229.146 40.2383ZM228.751 71H209.415L212.184 66.3857H228.751C231.915 66.3857 234.61 65.8584 236.837 64.8037C239.093 63.7197 240.821 62.1816 242.022 60.1895C243.224 58.1973 243.824 55.8242 243.824 53.0703C243.824 50.6387 243.297 48.4561 242.242 46.5225C241.188 44.5889 239.576 43.0654 237.408 41.9521C235.24 40.8096 232.486 40.2383 229.146 40.2383H217.94L218.028 35.668H233.893L234.859 37.2939C237.73 37.5869 240.235 38.4805 242.374 39.9746C244.542 41.4395 246.212 43.2998 247.384 45.5557C248.585 47.8115 249.186 50.2871 249.186 52.9824C249.186 56.8496 248.321 60.1309 246.593 62.8262C244.894 65.4922 242.506 67.5283 239.43 68.9346C236.383 70.3115 232.823 71 228.751 71ZM266.939 23.4512V71H261.71V23.4512H266.939ZM260.787 9.69629C260.787 8.7002 261.095 7.86523 261.71 7.19141C262.354 6.48828 263.233 6.13672 264.347 6.13672C265.46 6.13672 266.339 6.48828 266.983 7.19141C267.657 7.86523 267.994 8.7002 267.994 9.69629C267.994 10.6631 267.657 11.498 266.983 12.2012C266.339 12.875 265.46 13.2119 264.347 13.2119C263.233 13.2119 262.354 12.875 261.71 12.2012C261.095 11.498 260.787 10.6631 260.787 9.69629ZM299.283 23.4512V27.7578H275.465V23.4512H299.283ZM284.21 11.2344H289.439V59.4424C289.439 61.6396 289.732 63.2949 290.318 64.4082C290.904 65.5215 291.666 66.2686 292.604 66.6494C293.541 67.0303 294.552 67.2207 295.636 67.2207C296.427 67.2207 297.188 67.1768 297.921 67.0889C298.653 66.9717 299.312 66.8545 299.898 66.7373L300.118 71.1758C299.474 71.3809 298.639 71.542 297.613 71.6592C296.588 71.8057 295.562 71.8789 294.537 71.8789C292.516 71.8789 290.729 71.5127 289.176 70.7803C287.623 70.0186 286.407 68.7295 285.528 66.9131C284.649 65.0674 284.21 62.5625 284.21 59.3984V11.2344ZM327.848 67.3525C330.074 67.3525 332.154 66.9424 334.088 66.1221C336.051 65.2725 337.662 64.0273 338.922 62.3867C340.211 60.7168 340.943 58.6807 341.119 56.2783H346.129C345.982 59.2959 345.06 61.9912 343.36 64.3643C341.69 66.708 339.493 68.5537 336.769 69.9014C334.073 71.2197 331.1 71.8789 327.848 71.8789C324.537 71.8789 321.607 71.2783 319.059 70.0771C316.539 68.876 314.43 67.2061 312.73 65.0674C311.031 62.8994 309.742 60.3799 308.863 57.5088C308.014 54.6084 307.589 51.4883 307.589 48.1484V46.3027C307.589 42.9629 308.014 39.8574 308.863 36.9863C309.742 34.0859 311.031 31.5664 312.73 29.4277C314.43 27.2598 316.539 25.5752 319.059 24.374C321.578 23.1729 324.493 22.5723 327.804 22.5723C331.202 22.5723 334.249 23.2607 336.944 24.6377C339.669 26.0146 341.837 27.9629 343.448 30.4824C345.089 33.002 345.982 35.9902 346.129 39.4473H341.119C340.973 36.8984 340.299 34.7012 339.098 32.8555C337.896 31.0098 336.314 29.5889 334.352 28.5928C332.389 27.5967 330.206 27.0986 327.804 27.0986C325.108 27.0986 322.809 27.626 320.904 28.6807C319 29.7061 317.447 31.127 316.246 32.9434C315.074 34.7305 314.21 36.7812 313.653 39.0957C313.097 41.3809 312.818 43.7832 312.818 46.3027V48.1484C312.818 50.6973 313.082 53.1289 313.609 55.4434C314.166 57.7285 315.03 59.7646 316.202 61.5518C317.403 63.3389 318.956 64.7598 320.86 65.8145C322.794 66.8398 325.123 67.3525 327.848 67.3525ZM353.819 47.9727V46.5225C353.819 43.0654 354.317 39.8721 355.313 36.9424C356.31 34.0127 357.73 31.4785 359.576 29.3398C361.451 27.2012 363.692 25.5459 366.3 24.374C368.907 23.1729 371.808 22.5723 375.001 22.5723C378.224 22.5723 381.139 23.1729 383.746 24.374C386.354 25.5459 388.595 27.2012 390.47 29.3398C392.345 31.4785 393.78 34.0127 394.776 36.9424C395.772 39.8721 396.271 43.0654 396.271 46.5225V47.9727C396.271 51.4297 395.772 54.623 394.776 57.5527C393.78 60.4531 392.345 62.9727 390.47 65.1113C388.624 67.25 386.397 68.9199 383.79 70.1211C381.183 71.293 378.282 71.8789 375.089 71.8789C371.866 71.8789 368.951 71.293 366.344 70.1211C363.736 68.9199 361.495 67.25 359.62 65.1113C357.745 62.9727 356.31 60.4531 355.313 57.5527C354.317 54.623 353.819 51.4297 353.819 47.9727ZM359.049 46.5225V47.9727C359.049 50.5801 359.4 53.0557 360.104 55.3994C360.807 57.7139 361.832 59.7793 363.18 61.5957C364.527 63.3828 366.197 64.7891 368.189 65.8145C370.182 66.8398 372.481 67.3525 375.089 67.3525C377.667 67.3525 379.938 66.8398 381.9 65.8145C383.893 64.7891 385.562 63.3828 386.91 61.5957C388.258 59.7793 389.269 57.7139 389.942 55.3994C390.646 53.0557 390.997 50.5801 390.997 47.9727V46.5225C390.997 43.9443 390.646 41.498 389.942 39.1836C389.269 36.8691 388.243 34.8037 386.866 32.9873C385.519 31.1709 383.849 29.7354 381.856 28.6807C379.864 27.626 377.579 27.0986 375.001 27.0986C372.423 27.0986 370.138 27.626 368.146 28.6807C366.183 29.7354 364.513 31.1709 363.136 32.9873C361.788 34.8037 360.763 36.8691 360.06 39.1836C359.386 41.498 359.049 43.9443 359.049 46.5225ZM413.014 23.4512V71H407.784V23.4512H413.014ZM406.861 9.69629C406.861 8.7002 407.169 7.86523 407.784 7.19141C408.429 6.48828 409.308 6.13672 410.421 6.13672C411.534 6.13672 412.413 6.48828 413.058 7.19141C413.731 7.86523 414.068 8.7002 414.068 9.69629C414.068 10.6631 413.731 11.498 413.058 12.2012C412.413 12.875 411.534 13.2119 410.421 13.2119C409.308 13.2119 408.429 12.875 407.784 12.2012C407.169 11.498 406.861 10.6631 406.861 9.69629ZM432.613 33.6025V71H427.384V23.4512H432.394L432.613 33.6025ZM431.427 44.2812L429.098 42.9629C429.273 40.1504 429.845 37.5137 430.812 35.0527C431.778 32.5918 433.082 30.4238 434.723 28.5488C436.393 26.6738 438.341 25.209 440.567 24.1543C442.823 23.0996 445.313 22.5723 448.038 22.5723C450.411 22.5723 452.535 22.8945 454.41 23.5391C456.285 24.1836 457.882 25.209 459.2 26.6152C460.519 28.0215 461.515 29.8232 462.188 32.0205C462.892 34.2178 463.243 36.8984 463.243 40.0625V71H457.97V40.0186C457.97 36.7373 457.516 34.1738 456.607 32.3281C455.699 30.4531 454.41 29.1201 452.74 28.3291C451.07 27.5381 449.093 27.1426 446.808 27.1426C444.288 27.1426 442.076 27.6992 440.172 28.8125C438.297 29.8965 436.715 31.3174 435.426 33.0752C434.166 34.8037 433.199 36.6641 432.525 38.6562C431.852 40.6191 431.485 42.4941 431.427 44.2812ZM223.346 159.081L237.232 112.016H241.583L238.067 125.99L223.258 176H219.083L223.346 159.081ZM207.218 112.016L218.907 158.642L222.423 176H218.072L201.681 112.016H207.218ZM260.304 158.642L271.817 112.016H277.354L261.007 176H256.656L260.304 158.642ZM242.066 112.016L255.777 159.081L259.996 176H255.821L241.319 125.99L237.76 112.016H242.066ZM303.546 176.879C300.44 176.879 297.584 176.308 294.977 175.165C292.398 174.022 290.143 172.411 288.209 170.331C286.305 168.251 284.825 165.79 283.771 162.948C282.745 160.077 282.232 156.942 282.232 153.544V151.654C282.232 147.992 282.774 144.682 283.858 141.723C284.942 138.764 286.437 136.229 288.341 134.12C290.245 132.011 292.413 130.399 294.845 129.286C297.306 128.144 299.884 127.572 302.579 127.572C305.597 127.572 308.277 128.114 310.621 129.198C312.965 130.253 314.928 131.762 316.51 133.725C318.121 135.658 319.337 137.958 320.157 140.624C320.978 143.261 321.388 146.176 321.388 149.369V152.577H285.396V148.095H316.158V147.479C316.1 144.813 315.558 142.323 314.532 140.009C313.536 137.665 312.042 135.761 310.05 134.296C308.058 132.831 305.567 132.099 302.579 132.099C300.353 132.099 298.302 132.567 296.427 133.505C294.581 134.442 292.984 135.79 291.637 137.548C290.318 139.276 289.293 141.342 288.561 143.744C287.857 146.117 287.506 148.754 287.506 151.654V153.544C287.506 156.181 287.887 158.642 288.648 160.927C289.439 163.183 290.553 165.175 291.988 166.903C293.453 168.632 295.182 169.979 297.174 170.946C299.166 171.913 301.363 172.396 303.766 172.396C306.578 172.396 309.068 171.884 311.236 170.858C313.404 169.804 315.353 168.148 317.081 165.893L320.377 168.441C319.352 169.965 318.062 171.371 316.51 172.66C314.986 173.949 313.155 174.975 311.017 175.736C308.878 176.498 306.388 176.879 303.546 176.879ZM350.128 176.879C347.022 176.879 344.166 176.308 341.559 175.165C338.98 174.022 336.725 172.411 334.791 170.331C332.887 168.251 331.407 165.79 330.353 162.948C329.327 160.077 328.814 156.942 328.814 153.544V151.654C328.814 147.992 329.356 144.682 330.44 141.723C331.524 138.764 333.019 136.229 334.923 134.12C336.827 132.011 338.995 130.399 341.427 129.286C343.888 128.144 346.466 127.572 349.161 127.572C352.179 127.572 354.859 128.114 357.203 129.198C359.547 130.253 361.51 131.762 363.092 133.725C364.703 135.658 365.919 137.958 366.739 140.624C367.56 143.261 367.97 146.176 367.97 149.369V152.577H331.979V148.095H362.74V147.479C362.682 144.813 362.14 142.323 361.114 140.009C360.118 137.665 358.624 135.761 356.632 134.296C354.64 132.831 352.149 132.099 349.161 132.099C346.935 132.099 344.884 132.567 343.009 133.505C341.163 134.442 339.566 135.79 338.219 137.548C336.9 139.276 335.875 141.342 335.143 143.744C334.439 146.117 334.088 148.754 334.088 151.654V153.544C334.088 156.181 334.469 158.642 335.23 160.927C336.021 163.183 337.135 165.175 338.57 166.903C340.035 168.632 341.764 169.979 343.756 170.946C345.748 171.913 347.945 172.396 350.348 172.396C353.16 172.396 355.65 171.884 357.818 170.858C359.986 169.804 361.935 168.148 363.663 165.893L366.959 168.441C365.934 169.965 364.645 171.371 363.092 172.66C361.568 173.949 359.737 174.975 357.599 175.736C355.46 176.498 352.97 176.879 350.128 176.879ZM383.57 108.5V176H378.341V108.5H383.57ZM413.409 128.451L391.173 150.512L381.725 159.652L380.934 154.511L388.536 146.293L406.773 128.451H413.409ZM408.839 176L388.976 151.303L391.876 146.776L415.167 176H408.839Z" fill="#F7931A"/>
<g clip-path="url(#clip0_98_41)">
<path fill-rule="evenodd" clip-rule="evenodd" d="M94 181.42C142.281 181.42 181.42 142.281 181.42 94C181.42 45.7193 142.281 6.58 94 6.58C45.7193 6.58 6.57996 45.7193 6.57996 94C6.57996 142.281 45.7193 181.42 94 181.42ZM93.9999 187.06C145.396 187.06 187.06 145.396 187.06 94C187.06 42.6044 145.396 0.940002 93.9999 0.940002C42.6043 0.940002 0.939941 42.6044 0.939941 94C0.939941 145.396 42.6043 187.06 93.9999 187.06Z" fill="#F7931A"/>
<path fill-rule="evenodd" clip-rule="evenodd" d="M93.9999 140.06C119.438 140.06 140.06 119.438 140.06 94C140.06 68.5617 119.438 47.94 93.9999 47.94C68.5617 47.94 47.9399 68.5617 47.9399 94C47.9399 119.438 68.5617 140.06 93.9999 140.06ZM94 145.7C122.553 145.7 145.7 122.553 145.7 94C145.7 65.4469 122.553 42.3 94 42.3C65.447 42.3 42.3 65.4469 42.3 94C42.3 122.553 65.447 145.7 94 145.7Z" fill="#F7931A"/>
<path fill-rule="evenodd" clip-rule="evenodd" d="M118.342 86.2837C119.301 79.1587 113.895 75.4391 106.484 72.9245L108.786 63.2848L102.927 61.8702L100.695 71.3003C99.1431 70.9337 97.5739 70.5669 96.0219 70.2526L98.2539 60.8225L92.3251 59.408L90.0234 69.0475C88.768 68.7507 87.495 68.5238 86.2396 68.2269L78.1659 66.2884L76.6837 72.5227C76.6837 72.5227 81.0605 73.4832 80.9035 73.5706C83.2752 74.1643 83.7284 75.7185 83.6414 76.9061L81.043 87.8904C81.2 87.9601 81.4093 87.9601 81.636 88.1173C81.4093 88.0475 81.2698 88.0475 81.043 87.9776L77.4859 103.345C77.1894 104.079 76.4397 105.126 74.818 104.76C74.8877 104.83 70.5109 103.712 70.5109 103.712L67.7383 110.47L75.376 112.251C76.7884 112.618 78.2009 112.915 79.5261 113.299L77.2244 123.026L83.0832 124.441L85.3851 114.801C87.0243 115.238 88.5762 115.622 90.0582 115.988L87.7565 125.558L93.6155 126.973L95.9172 117.246C105.926 119.027 113.407 118.206 116.441 109.073C118.882 101.791 116.214 97.6348 110.879 94.893C114.785 94.0024 117.609 91.4703 118.342 86.2837ZM105.159 105.196C103.45 112.478 91.1569 108.689 87.216 107.729L90.2502 94.8058C94.2608 95.7837 106.938 97.5649 105.159 105.196ZM106.781 86.2837C105.229 92.8848 94.993 89.7065 91.6626 88.8856L94.4875 77.168C97.7482 77.9713 108.42 79.3858 106.781 86.2837Z" fill="#F7931A"/>
</g>
<defs>
<clipPath id="clip0_98_41">
<rect width="188" height="188" fill="white"/>
</clipPath>
</defs>
</svg>
