<svg width="50" height="54" viewBox="0 0 50 54" fill="none" xmlns="http://www.w3.org/2000/svg">
<path d="M13.0968 22.1762C13.0715 22.2362 13.047 22.297 13.0242 22.3578L13.0968 22.1762Z" fill="black"/>
<path d="M13.8999 25.6297C13.8898 25.5976 13.8797 25.5655 13.8704 25.5334L13.8999 25.6297Z" fill="black"/>
<path d="M15.1359 26.1186H15.1289V26.0891L15.1359 26.1186Z" fill="black"/>
<path d="M16.7008 20.1475C16.6954 20.1489 16.6907 20.1502 16.6853 20.1522L16.7008 20.1475Z" fill="black"/>
<path d="M13.0968 22.1762C13.0715 22.2362 13.047 22.297 13.0242 22.3578L13.0968 22.1762Z" fill="black"/>
<path d="M13.8999 25.6297C13.8898 25.5976 13.8797 25.5655 13.8704 25.5334L13.8999 25.6297Z" fill="black"/>
<path d="M15.1359 26.1186H15.1289V26.0891L15.1359 26.1186Z" fill="black"/>
<path d="M16.7008 20.1475C16.6954 20.1489 16.6907 20.1502 16.6853 20.1522L16.7008 20.1475Z" fill="black"/>
<path d="M15.1359 26.1186H15.1289V26.0891L15.1359 26.1186Z" fill="black"/>
<path d="M16.7008 20.1475C16.6954 20.1489 16.6907 20.1502 16.6853 20.1522L16.7008 20.1475Z" fill="black"/>
<path d="M15.2176 19.7015C15.188 19.7201 15.1585 19.7387 15.1289 19.7581V19.7015H15.2176Z" fill="black"/>
<path d="M11.6171 29.1617C11.5099 29.0224 11.4085 28.8796 11.3123 28.7327L11.6171 29.1617Z" fill="black"/>
<path d="M13.0968 22.1762C13.0715 22.2362 13.047 22.297 13.0242 22.3578L13.0968 22.1762Z" fill="black"/>
<path d="M13.8999 25.6297C13.8898 25.5976 13.8797 25.5655 13.8704 25.5334L13.8999 25.6297Z" fill="black"/>
<path d="M15.1359 26.1186H15.1289V26.0891L15.1359 26.1186Z" fill="black"/>
<path d="M16.7008 20.1475C16.6954 20.1489 16.6907 20.1502 16.6853 20.1522L16.7008 20.1475Z" fill="black"/>
<path d="M16.7008 20.1475C16.6954 20.1489 16.6907 20.1502 16.6853 20.1522L16.7008 20.1475Z" fill="black"/>
<path d="M11.6171 29.1617C11.5099 29.0224 11.4085 28.8796 11.3123 28.7327L11.6171 29.1617Z" fill="black"/>
<path d="M15.1359 26.1186H15.1289V26.0891L15.1359 26.1186Z" fill="black"/>
<path d="M48.9443 33.1701C48.4055 35.0949 47.6234 36.915 46.6277 38.5965L49.4722 41.9715C48.62 43.2527 47.6606 44.4545 46.6023 45.5669L46.5998 45.5694C45.1412 47.1099 43.5044 48.479 41.7181 49.6386H41.7156L41.0382 49.0457L38.4166 46.7459C36.6531 47.7704 34.7402 48.5634 32.7166 49.082L32.285 53.484C30.5781 53.8226 28.8112 54 27.0021 54C25.2893 54 23.6128 53.8395 21.9904 53.5346C21.8324 53.5068 21.677 53.4755 21.5216 53.4443L21.2024 49.0482C19.2269 48.5288 17.3587 47.7501 15.6349 46.7484L11.9694 49.4317C9.48634 47.7636 7.29381 45.6952 5.49062 43.3169L4.47206 41.8836L7.33097 38.4555C6.32085 36.7173 5.53623 34.8322 5.01428 32.8432L0.572626 32.5552C0.197632 30.763 0 28.9041 0 26.9987C0 26.0249 0.0506752 25.063 0.152025 24.1179C0.236483 23.3079 0.358103 22.5123 0.516039 21.7277L5.03117 21.1948C5.54721 19.2396 6.32085 17.3849 7.31154 15.6754L4.59452 11.9306C6.5472 9.0328 9.04716 6.53537 11.9483 4.5827L15.439 7.46103C17.1712 6.43402 19.0538 5.62998 21.0427 5.09029L21.7767 0.50506C23.4667 0.174829 25.2133 0 27.003 0C28.8399 0 30.6321 0.183275 32.3644 0.532931L32.85 5.04806C34.8027 5.56157 36.654 6.33183 38.3643 7.31661L42.0272 4.56243C44.8295 6.44162 47.2586 8.83432 49.1859 11.6029L49.403 11.9187L46.5939 15.4432L46.4072 15.6771L42.5044 17.8756C42.4622 17.8021 42.42 17.732 42.3777 17.661C40.9411 15.3047 38.9833 13.3038 36.6582 11.8225C36.1532 11.5007 35.6312 11.2042 35.0924 10.934C34.7849 10.776 34.4691 10.6291 34.1498 10.4905C33.904 10.3808 33.6532 10.2786 33.399 10.1857V10.1831C31.4125 9.42722 29.2538 9.01168 27.0021 9.01168C24.5951 9.01168 22.2978 9.48549 20.199 10.3436C19.9195 10.4568 19.6458 10.5775 19.3747 10.7051C19.2505 10.7642 19.1264 10.8233 19.0022 10.8858C18.9372 10.9171 18.8722 10.9508 18.8071 10.9846C18.6855 11.0463 18.5614 11.1088 18.4406 11.1763C18.4347 11.1789 18.4262 11.1823 18.4178 11.1873C18.2936 11.2549 18.1695 11.3225 18.0479 11.3959C17.8815 11.4888 17.7202 11.5877 17.5572 11.6865C17.5462 11.6949 17.5318 11.7008 17.5208 11.7093H17.2244V11.8985C17.2185 11.901 17.216 11.9044 17.21 11.9069C17.0268 12.0252 16.846 12.1493 16.6678 12.2735C16.5774 12.3351 16.4871 12.4035 16.3967 12.4686C16.3063 12.5336 16.216 12.6012 16.129 12.6687C15.9516 12.8039 15.7793 12.9398 15.607 13.0809C15.4432 13.2109 15.2852 13.3486 15.1273 13.4871C14.9609 13.6341 14.7945 13.7836 14.6332 13.9356C14.2861 14.2658 13.9533 14.607 13.6375 14.9601C13.5699 15.0335 13.5023 15.1121 13.4339 15.189C13.3663 15.265 13.2988 15.3444 13.2337 15.4204C12.8756 15.8469 12.537 16.2894 12.2177 16.7464C12.091 16.9296 11.9669 17.1163 11.8478 17.3021C11.7211 17.4972 11.5995 17.694 11.4838 17.895C11.374 18.0816 11.2667 18.2675 11.1645 18.4592C11.0573 18.6543 10.9559 18.8544 10.8571 19.0571C10.809 19.15 10.7642 19.2438 10.722 19.3367C10.6797 19.4245 10.64 19.509 10.6003 19.596C10.5438 19.7227 10.4872 19.8502 10.434 19.9769C10.3495 20.177 10.2676 20.3806 10.1916 20.5833C9.42975 22.5757 9.01169 24.7369 9.01169 26.997C9.01169 28.7411 9.25999 30.4252 9.72282 32.0198V32.0223C9.836 32.4091 9.96015 32.7926 10.0978 33.1676C10.2617 33.6135 10.4424 34.0535 10.6392 34.4826C12.0133 37.4825 14.1864 40.0391 16.8899 41.8786C17.8553 42.5357 18.8908 43.1032 19.9794 43.5635C20.259 43.6818 20.5411 43.7949 20.8291 43.8997C22.7539 44.6023 24.8332 44.9858 27.0004 44.9858C28.0587 44.9858 29.0941 44.8954 30.1017 44.7181H30.1043C31.182 44.5314 32.2267 44.2493 33.2284 43.8769C33.6718 43.7164 34.1 43.5356 34.5265 43.338H34.529C34.7123 43.2535 34.8956 43.1657 35.0738 43.0753C35.0763 43.0728 35.0797 43.0728 35.0822 43.0694C35.0848 43.0669 35.0881 43.0669 35.0907 43.0635C35.268 42.9757 35.4437 42.8828 35.6152 42.7899C35.7621 42.708 35.9116 42.626 36.0552 42.539C36.0577 42.539 36.0577 42.5365 36.0611 42.5365C36.2613 42.4208 36.4614 42.2992 36.6565 42.175C36.7748 42.099 36.8905 42.023 37.0062 41.9461C37.1582 41.8414 37.3111 41.7375 37.458 41.6303C37.5256 41.5821 37.5932 41.534 37.6616 41.4833C37.7291 41.4352 37.7942 41.387 37.8592 41.3363C37.9943 41.235 38.1244 41.1328 38.2545 41.0289C38.3761 40.9326 38.4943 40.8338 38.6126 40.7299C38.6717 40.6818 38.7308 40.6311 38.7899 40.5804C39.0019 40.3972 39.2105 40.208 39.4107 40.0129C39.5011 39.9284 39.5881 39.844 39.6759 39.7561C39.8313 39.6007 39.9833 39.4453 40.1303 39.2874C40.2485 39.1607 40.3676 39.0306 40.4833 38.9006C40.4892 38.8947 40.4943 38.8862 40.5002 38.8811C40.6185 38.7486 40.7316 38.6134 40.8448 38.4774C40.9799 38.3136 41.1125 38.1497 41.2401 37.9834C41.2933 37.9183 41.3414 37.8533 41.3896 37.7857C41.4909 37.6531 41.5872 37.5205 41.6826 37.3854C41.8043 37.2131 41.925 37.0383 42.0407 36.8609C42.0914 36.7815 42.1421 36.7055 42.1928 36.627C42.246 36.545 42.2975 36.4606 42.3507 36.3727C42.3676 36.3449 42.3845 36.3136 42.4039 36.2849C42.4183 36.2621 42.4318 36.2401 42.4436 36.214C42.5145 36.1008 42.5787 35.9885 42.6438 35.8727C42.6522 35.8584 42.6607 35.8449 42.6691 35.8305C42.675 35.8221 42.6801 35.8111 42.6835 35.8027C42.7282 35.7207 42.7738 35.6422 42.8186 35.5603C42.833 35.5324 42.8498 35.5037 42.8634 35.4724C42.9056 35.393 42.9478 35.312 42.99 35.23C43.0069 35.2047 43.0179 35.1794 43.0323 35.154C43.0466 35.1287 43.0576 35.1033 43.0686 35.078C43.1446 34.931 43.2155 34.7816 43.2857 34.6321V34.6295C43.4014 34.3812 43.5112 34.1329 43.6159 33.8787C43.6522 33.7942 43.6868 33.7098 43.7206 33.6245C43.7797 33.4725 43.8388 33.3196 43.8954 33.1676H36.6548V37.8744C34.8263 39.5112 32.5831 40.6936 30.1 41.2409V33.1676H23.802V41.2409C21.9059 40.8203 20.1475 40.0306 18.6095 38.9496V38.947C18.1239 38.6058 17.6585 38.2359 17.221 37.8381V33.1676H13.7641C13.5158 32.6346 13.2988 32.0814 13.1155 31.5139C13.0817 31.4066 13.0479 31.2993 13.0167 31.1921C12.6248 29.8771 12.4128 28.4835 12.4128 27.0384V26.9962H17.221V16.2421C17.52 15.971 17.8308 15.7143 18.1492 15.4719V15.4694C18.5892 15.1332 19.0462 14.8232 19.5233 14.5412C20.4296 13.9998 21.4 13.5538 22.4211 13.2202C22.4439 13.2118 22.4633 13.2059 22.4861 13.2008C22.9152 13.0623 23.3552 12.9415 23.8012 12.8452V26.9996H30.0992V12.8393C32.5797 13.3866 34.8255 14.569 36.654 16.2058V26.9996H49.7729V27.0503C49.7771 29.1693 49.4857 31.2233 48.9443 33.1701Z" fill="black"/>
<path d="M15.1289 26.0891V26.1186H15.1359L15.1289 26.0891Z" fill="black"/>
<path d="M13.8999 25.6297C13.8898 25.5976 13.8797 25.5655 13.8704 25.5334L13.8999 25.6297Z" fill="black"/>
<path d="M15.1359 26.1186H15.1289V26.0891L15.1359 26.1186Z" fill="black"/>
<path d="M15.1359 26.1186H15.1289V26.0891L15.1359 26.1186Z" fill="black"/>
<path d="M15.2176 19.7015C15.188 19.7201 15.1585 19.7387 15.1289 19.7581V19.7015H15.2176Z" fill="black"/>
<path d="M16.7008 20.1475C16.6954 20.1489 16.6907 20.1502 16.6853 20.1522L16.7008 20.1475Z" fill="black"/>
</svg>
