<svg width="193" height="50" viewBox="0 0 193 50" fill="none" xmlns="http://www.w3.org/2000/svg">
<path d="M73.1528 5.26022V44.4178H69.8435V26.1239H8.49519V44.4178H5.18652V5.26022H8.49519V23.547H69.8435V5.26022H73.1528ZM66.5412 5.26022H63.2319V18.3318H15.1144V5.26022H11.8051V20.9093H66.5412V5.26022ZM21.7446 5.26022H18.4739V15.6814H21.7446V5.26022ZM59.8975 5.26022H56.5901V15.6814H59.8995L59.8975 5.26022ZM11.8051 44.4178H15.1144V31.3467H63.2319V44.4178H66.5412V28.7424H11.8051V44.4178ZM56.5631 44.4178H59.8724V33.9677H56.5631V44.4178ZM18.4476 44.4178H21.7562V33.9677H18.4476V44.4178Z" fill="#E12991"/>
<path d="M91.5425 5.25922V16.773H88.679V12.0028H82.7469V16.773H79.8628V5.25922H82.7469V9.83192H88.679V5.25922H91.5425Z" fill="#010101"/>
<path d="M103.307 8.54849V16.773H100.611V15.8521C99.9842 16.5922 98.897 17.0033 97.4965 17.0033C95.2815 17.0033 93.5464 15.7883 93.5464 13.5986V8.54849H96.2426V13.3353C96.2426 14.4537 97.0995 15.0294 98.3122 15.0294C99.6291 15.0294 100.611 14.4218 100.611 12.9901V8.54849H103.307Z" fill="#010101"/>
<path d="M121.281 11.7067V16.773H118.584V11.855C118.584 10.8845 117.957 10.2921 116.828 10.2921C115.637 10.2921 114.885 10.9174 114.885 12.1512V16.773H112.188V11.855C112.188 10.8845 111.561 10.2921 110.433 10.2921C109.283 10.2921 108.468 10.9174 108.468 12.1512V16.773H105.772V8.54852H108.466V9.42033C109.051 8.72976 110.033 8.31866 111.371 8.31866C112.667 8.31866 113.629 8.74647 114.214 9.50285C114.861 8.76267 115.907 8.31866 117.328 8.31866C119.713 8.31866 121.281 9.65068 121.281 11.7067Z" fill="#010101"/>
<path d="M134.215 8.54852V16.773H131.519V15.8025C130.766 16.5426 129.637 17.0034 128.109 17.0034C125.329 17.0034 123.03 15.1119 123.03 12.661C123.03 10.2101 125.329 8.31866 128.109 8.31866C129.635 8.31866 130.763 8.77887 131.519 9.51905V8.54852H134.215ZM131.519 12.661C131.519 11.2794 130.285 10.3418 128.613 10.3418C126.962 10.3418 125.729 11.2794 125.729 12.661C125.729 14.0426 126.962 14.9803 128.613 14.9803C130.285 14.9803 131.519 14.0426 131.519 12.661Z" fill="#010101"/>
<path d="M146.418 11.7234V16.773H143.721V11.9866C143.721 10.8683 142.864 10.2921 141.652 10.2921C140.335 10.2921 139.352 10.8997 139.352 12.3319V16.773H136.656V8.54852H139.352V9.46994C139.98 8.72976 141.066 8.31866 142.467 8.31866C144.686 8.31866 146.418 9.53576 146.418 11.7234Z" fill="#010101"/>
<path d="M84.6929 26.5978H82.7469V30.5949H79.8628V19.0811H85.9642C86.6024 19.0798 87.2347 19.1774 87.8249 19.3685C88.4152 19.5596 88.9518 19.8404 89.4041 20.1947C89.8563 20.5491 90.2154 20.9702 90.4608 21.4338C90.7062 21.8975 90.8331 22.3947 90.8342 22.8969C90.8342 24.3444 89.6846 25.644 88.0125 26.2525L91.2524 30.5949H88.1367L84.6929 26.5978ZM82.7469 24.6076H85.9635C87.0501 24.6076 87.9488 23.8512 87.9488 22.8969C87.9488 21.9426 87.0482 21.2029 85.9635 21.2029H82.7469V24.6076Z" fill="#010101"/>
<path d="M92.5037 20.0845C92.5037 19.3758 93.5053 18.7682 94.4041 18.7682C95.3234 18.7682 95.8271 19.3758 95.8271 20.0845C95.8271 20.4314 95.652 20.764 95.3404 21.0092C95.0288 21.2545 94.6061 21.3923 94.1654 21.3923C93.7247 21.3923 93.302 21.2545 92.9904 21.0092C92.6787 20.764 92.5037 20.4314 92.5037 20.0845ZM92.8176 22.3709H95.5138V30.5949H92.8176V22.3709Z" fill="#010101"/>
<path d="M108.2 22.3709V30.2C108.2 32.8974 105.503 34.115 102.744 34.115C100.508 34.115 98.7104 33.4407 97.7904 32.1081L100.09 31.0718C100.528 31.7132 101.218 32.2236 102.828 32.2236C104.521 32.2236 105.566 31.4996 105.566 30.1985V29.3135C104.834 30.0866 103.706 30.5635 102.22 30.5635C99.2521 30.5635 97.0159 28.672 97.0159 26.3528C97.0159 24.0502 99.2521 22.1421 102.22 22.1421C103.705 22.1421 104.833 22.619 105.566 23.3921V22.3709H108.2ZM105.566 26.3513C105.566 25.0516 104.332 24.1145 102.64 24.1145C100.947 24.1145 99.7166 25.0516 99.7166 26.3513C99.7166 27.6676 100.95 28.6047 102.643 28.6047C104.336 28.6047 105.566 27.6671 105.566 26.3513Z" fill="#010101"/>
<path d="M120.403 25.5453V30.5949H117.707V25.8085C117.707 24.6902 116.85 24.1145 115.638 24.1145C114.321 24.1145 113.339 24.7221 113.339 26.1538V30.5949H110.642V19.0811H113.339V23.2918C113.966 22.5516 115.052 22.1406 116.453 22.1406C118.669 22.1406 120.403 23.3576 120.403 25.5453Z" fill="#010101"/>
<path d="M126.316 24.4102V27.8316C126.316 28.7196 127.131 28.7363 128.678 28.6705V30.5944C124.895 30.9234 123.62 30.0516 123.62 27.8311V24.4102H121.802V22.3709H123.62V20.7093L126.316 20.0678V22.3709H128.678V24.4102H126.316Z" fill="#010101"/>
<path d="M138.229 28.1936C138.229 29.9701 136.264 30.8263 134.028 30.8263C131.937 30.8263 130.391 30.1352 129.638 28.869L131.979 27.8326C132.272 28.507 132.982 28.9019 134.028 28.9019C134.885 28.9019 135.47 28.6715 135.47 28.1931C135.47 26.9922 130.077 27.6499 130.077 24.7555C130.077 23.0777 131.896 22.14 134.048 22.14C135.741 22.14 137.204 22.7476 138.02 23.8837L135.72 24.8704C135.407 24.3439 134.82 24.0315 134.048 24.0315C133.379 24.0315 132.836 24.2619 132.836 24.7059C132.836 25.9214 138.229 25.1671 138.229 28.1936Z" fill="#010101"/>
<path d="M82.7469 35.0744V37.8048H88.9299V39.9762H82.7469V44.4173H79.8628V32.903H89.0972V35.0744H82.7469Z" fill="#010101"/>
<path d="M90.1194 40.3047C90.1194 37.8544 92.5641 35.9624 95.6373 35.9624C98.7105 35.9624 101.176 37.8544 101.176 40.3047C101.176 42.7551 98.7098 44.6471 95.6373 44.6471C92.5647 44.6471 90.1194 42.7556 90.1194 40.3047ZM98.4827 40.3047C98.4827 38.9727 97.2495 38.0351 95.6398 38.0351C94.0514 38.0351 92.8182 38.9727 92.8182 40.3047C92.8182 41.6368 94.0514 42.5749 95.6398 42.5749C97.2469 42.5749 98.4802 41.6373 98.4802 40.3047H98.4827Z" fill="#010101"/>
<path d="M112.251 36.1928V44.4173H109.555V43.4959C108.928 44.236 107.841 44.6471 106.441 44.6471C104.225 44.6471 102.491 43.4321 102.491 41.2424V36.1928H105.185V40.9792C105.185 42.098 106.042 42.6737 107.254 42.6737C108.571 42.6737 109.553 42.0661 109.553 40.6339V36.1928H112.251Z" fill="#010101"/>
<path d="M124.476 39.3671V44.4172H121.783V39.6304C121.783 38.512 120.926 37.9364 119.714 37.9364C118.397 37.9364 117.415 38.5439 117.415 39.9762V44.4172H114.719V36.1928H117.415V37.1142C118.042 36.374 119.129 35.9624 120.529 35.9624C122.742 35.9624 124.476 37.1795 124.476 39.3671Z" fill="#010101"/>
<path d="M137.391 32.903V44.4173H134.695V43.4468C133.943 44.2031 132.835 44.6471 131.309 44.6471C128.508 44.6471 126.209 42.7557 126.209 40.3048C126.209 37.8539 128.508 35.9625 131.309 35.9625C132.835 35.9625 133.943 36.407 134.695 37.1633V32.903H137.391ZM134.695 40.3048C134.695 38.9237 133.462 37.986 131.811 37.986C130.138 37.986 128.905 38.9237 128.905 40.3048C128.905 41.6859 130.139 42.6246 131.811 42.6246C133.462 42.6246 134.695 41.6869 134.695 40.3048Z" fill="#010101"/>
<path d="M150.37 36.1928V44.4172H147.673V43.4467C146.921 44.1869 145.792 44.6471 144.264 44.6471C141.484 44.6471 139.185 42.7556 139.185 40.3047C139.185 37.8539 141.484 35.9624 144.264 35.9624C145.789 35.9624 146.918 36.4231 147.673 37.1633V36.1928H150.37ZM147.673 40.3047C147.673 38.9236 146.44 37.986 144.767 37.986C143.117 37.986 141.883 38.9236 141.883 40.3047C141.883 41.6859 143.117 42.6245 144.767 42.6245C146.44 42.6245 147.673 41.6869 147.673 40.3047Z" fill="#010101"/>
<path d="M156.553 38.2326V41.654C156.553 42.542 157.368 42.5582 158.914 42.4924V44.4163C155.131 44.7454 153.856 43.8735 153.856 41.653V38.2326H152.038V36.1928H153.856V34.5317L156.553 33.8903V36.1928H158.914V38.2326H156.553Z" fill="#010101"/>
<path d="M160.501 33.9064C160.501 33.1976 161.254 32.5901 162.153 32.5901C162.595 32.5936 163.018 32.7335 163.331 32.9796C163.643 33.2257 163.821 33.5584 163.826 33.9064C163.817 34.2487 163.638 34.5747 163.328 34.8144C163.017 35.0541 162.599 35.1884 162.164 35.1884C161.729 35.1884 161.311 35.0541 161.001 34.8144C160.69 34.5747 160.511 34.2487 160.503 33.9064H160.501ZM160.815 36.1928H163.511V44.4172H160.815V36.1928Z" fill="#010101"/>
<path d="M165.015 40.3047C165.015 37.8544 167.46 35.9624 170.533 35.9624C173.606 35.9624 176.072 37.8544 176.072 40.3047C176.072 42.7551 173.605 44.6471 170.533 44.6471C167.46 44.6471 165.015 42.7556 165.015 40.3047ZM173.378 40.3047C173.378 38.9727 172.145 38.0351 170.535 38.0351C168.947 38.0351 167.714 38.9727 167.714 40.3047C167.714 41.6368 168.947 42.5749 170.535 42.5749C172.142 42.5749 173.378 41.6373 173.378 40.3047Z" fill="#010101"/>
<path d="M187.314 39.3671V44.4172H184.618V39.6304C184.618 38.512 183.761 37.9364 182.549 37.9364C181.232 37.9364 180.25 38.5439 180.25 39.9762V44.4172H177.553V36.1928H180.25V37.1142C180.877 36.374 181.964 35.9624 183.364 35.9624C185.58 35.9624 187.314 37.1795 187.314 39.3671Z" fill="#010101"/>
</svg>
