<svg width="55" height="54" viewBox="0 0 55 54" fill="none" xmlns="http://www.w3.org/2000/svg">
<path d="M19.8575 33.0037L12.4926 20.266L19.841 7.53406H23.1006L27.4426 0H14.9119L3.22778 20.266L14.9119 40.4709H22.1667L26.5091 33.0037H19.8575Z" fill="#F7931A"/>
<path d="M34.5406 7.4672L41.9055 20.2049L34.5571 32.9368H31.2979L26.9558 40.4709H39.4866L51.1703 20.2049L39.4866 0H32.2314L27.8889 7.4672H34.5406Z" fill="#F7931A"/>
<path d="M27.9687 25.9281C27.9697 25.9045 27.9711 25.8903 27.9711 25.8761C27.973 25.3735 27.9765 24.8704 27.9746 24.3678C27.9746 24.2982 27.9982 24.2856 28.0576 24.2789C28.3635 24.2458 28.6702 24.2175 28.9745 24.1715C29.3335 24.1164 29.6763 24.0075 29.9956 23.8278C30.2036 23.7106 30.3872 23.5639 30.5335 23.3782C30.6514 23.2284 30.7407 23.0611 30.8104 22.8779C30.911 22.6152 30.9558 22.3457 30.9719 22.0707C30.9892 21.773 30.975 21.4737 30.861 21.1944C30.7949 21.0336 30.7155 20.8688 30.6031 20.7398C30.3908 20.4963 30.1155 20.3331 29.8034 20.2383C29.724 20.2143 29.6456 20.186 29.5544 20.1553C29.7743 20.0436 29.9527 19.9056 30.0978 19.7265C30.296 19.4831 30.3872 19.1971 30.4069 18.8892C30.4238 18.6186 30.3931 18.355 30.3121 18.0899C30.2276 17.813 30.0758 17.5877 29.8631 17.4138C29.4802 17.0999 29.0193 16.956 28.5365 16.8785C28.3623 16.8506 28.1873 16.8286 28.006 16.8026V15.1802H27.018V16.7597H26.2229V15.1731H25.2305V16.7873C25.1987 16.7935 25.1735 16.803 25.1484 16.803C24.9525 16.8014 24.7567 16.7964 24.5605 16.7952C24.1355 16.7928 23.7104 16.7916 23.2854 16.7888C23.2417 16.7888 23.2312 16.7964 23.2316 16.8471C23.2343 17.0697 23.2275 17.2923 23.2252 17.5149C23.2236 17.6254 23.2252 17.7356 23.2252 17.8469C23.2617 17.8489 23.2795 17.8501 23.2972 17.8504C23.5598 17.8559 23.824 17.8457 24.0847 17.8712C24.3514 17.8972 24.509 18.0852 24.52 18.3366C24.5338 18.6429 24.519 18.9509 24.5177 19.2581C24.5141 20.0172 24.5102 20.7767 24.5071 21.5359C24.5059 21.9382 24.5071 22.341 24.5043 22.7433C24.5031 22.914 24.3922 23.0388 24.2169 23.0627C24.1056 23.0776 23.9915 23.0792 23.8787 23.0812C23.7219 23.0844 23.5641 23.0823 23.4049 23.0823C23.3432 23.4516 23.2846 23.8123 23.2217 24.1722C23.2091 24.2445 23.2287 24.2651 23.3011 24.2643C23.5799 24.2614 23.8586 24.2643 24.1379 24.2643C24.4894 24.2643 24.8409 24.2643 25.1991 24.2643V25.9209H26.1934V24.3055H26.9837C26.9837 24.346 26.9837 24.3751 26.9837 24.4042C26.9827 24.8872 26.9825 25.3702 26.9806 25.8533C26.9806 25.8973 26.9834 25.9284 27.0384 25.9284C27.3451 25.9274 27.6518 25.9284 27.9691 25.9284M26.2056 11.8904C28.6545 11.7464 30.7671 12.397 32.5797 13.9211C34.2826 15.3533 35.3132 17.1884 35.6167 19.3966C35.9678 21.9485 35.3233 24.247 33.6806 26.2321C32.1971 28.024 30.2743 29.0687 27.9616 29.335C25.6193 29.6049 23.4832 29.022 21.6143 27.5847C19.8135 26.2002 18.6874 24.3674 18.3142 22.1215C17.8935 19.5862 18.4629 17.2664 20.0518 15.2361C21.6351 13.2124 23.7423 12.1252 26.2056 11.8904Z" fill="#F7931A"/>
<path d="M26.2388 17.9308V19.9076C26.5368 19.9076 26.8286 19.9163 27.1195 19.9049C27.4266 19.8931 27.7278 19.8435 28.0122 19.713C28.274 19.5926 28.4742 19.4195 28.5331 19.1245C28.5957 18.8114 28.5295 18.5235 28.2948 18.3036C28.1238 18.1432 27.9028 18.0508 27.6704 18.013C27.433 17.9745 27.1927 17.9473 26.9525 17.934C26.7185 17.9206 26.4834 17.9308 26.2388 17.9308ZM26.227 23.0967C26.7134 23.101 27.1943 23.1167 27.6724 23.0482C27.9815 23.0042 28.2834 22.9362 28.5539 22.7738C28.8178 22.6153 28.9884 22.3935 28.9998 22.0712C29.0097 21.8058 28.9437 21.571 28.7498 21.3779C28.4994 21.1289 28.1781 21.0412 27.8478 20.9799C27.4456 20.9051 27.0374 20.9007 26.6292 20.9071C26.4968 20.909 26.3646 20.9071 26.227 20.9071V23.0963V23.0967ZM27.9685 25.9282C27.6512 25.9282 27.3445 25.9282 27.0378 25.9282C26.9827 25.9282 26.98 25.8971 26.98 25.8531C26.9819 25.3701 26.9823 24.8871 26.9831 24.404C26.9831 24.3749 26.9831 24.3458 26.9831 24.3054H26.1932V25.9207H25.1985V24.2641C24.8407 24.2641 24.4888 24.2641 24.1373 24.2641C23.858 24.2641 23.5793 24.2609 23.3005 24.2641C23.2281 24.2651 23.2085 24.2444 23.2211 24.1721C23.284 23.8121 23.3426 23.451 23.4043 23.0821C23.5635 23.0821 23.7212 23.0845 23.8781 23.0811C23.9909 23.0791 24.1049 23.0778 24.2163 23.0625C24.3916 23.0386 24.5024 22.9138 24.5041 22.7432C24.5072 22.3404 24.5053 21.938 24.5065 21.5357C24.5096 20.7762 24.5135 20.0171 24.517 19.258C24.5187 18.9507 24.5331 18.6427 24.5194 18.3364C24.5084 18.085 24.3508 17.897 24.0841 17.8711C23.8234 17.8459 23.5592 17.8557 23.2966 17.8502C23.2789 17.8502 23.2615 17.8487 23.2246 17.8467C23.2246 17.7358 23.2236 17.6253 23.2246 17.5151C23.2269 17.2921 23.2337 17.0696 23.2309 16.8465C23.2309 16.7962 23.2411 16.7886 23.2848 16.789C23.7098 16.7919 24.1348 16.7923 24.5599 16.795C24.7561 16.7962 24.9519 16.8012 25.1478 16.8028C25.1729 16.8028 25.1981 16.7934 25.2299 16.7871V15.1725H26.2223V16.7595H27.0174V15.18H28.0054V16.8024C28.1867 16.8284 28.3617 16.8505 28.5359 16.8783C29.0187 16.9559 29.48 17.0998 29.8625 17.4136C30.0752 17.5879 30.2269 17.8133 30.3115 18.0902C30.3925 18.3549 30.4236 18.6184 30.4063 18.889C30.3866 19.1969 30.2954 19.4829 30.0972 19.7268C29.9521 19.9054 29.7737 20.0434 29.5538 20.1551C29.645 20.1858 29.7233 20.2141 29.8028 20.2381C30.1153 20.3329 30.3902 20.4962 30.6025 20.7396C30.7149 20.8686 30.7947 21.0338 30.8604 21.1942C30.9744 21.4736 30.9886 21.7732 30.9713 22.0705C30.9552 22.3455 30.9104 22.615 30.8098 22.8777C30.7401 23.0606 30.6508 23.2278 30.5329 23.378C30.3866 23.5637 30.203 23.7104 29.995 23.8276C29.6757 24.0073 29.3329 24.1167 28.9739 24.1709C28.6696 24.2174 28.3633 24.2457 28.057 24.2787C27.9976 24.285 27.9736 24.298 27.974 24.3676C27.9763 24.8702 27.9724 25.3733 27.9705 25.8759C27.9705 25.8901 27.9689 25.9043 27.9681 25.9279" fill="#FEFEFD"/>
<path d="M26.2273 23.0959V20.9074C26.3649 20.9074 26.4975 20.9093 26.6295 20.9074C27.0377 20.901 27.4459 20.9054 27.8481 20.9802C28.1779 21.0415 28.4996 21.1295 28.7501 21.3781C28.9442 21.5711 29.01 21.8059 29.0005 22.0712C28.9887 22.3933 28.8184 22.615 28.5542 22.7735C28.2837 22.9358 27.9817 23.0039 27.6727 23.0479C27.1946 23.1163 26.7137 23.101 26.2273 23.0963" fill="#F7931A"/>
<path d="M26.2393 17.9306C26.4839 17.9306 26.719 17.9205 26.9529 17.9339C27.1932 17.9471 27.4334 17.9743 27.6709 18.0129C27.9033 18.0506 28.1243 18.143 28.2953 18.3034C28.53 18.5232 28.5961 18.811 28.5335 19.124C28.4747 19.4189 28.2744 19.5919 28.0126 19.7123C27.7283 19.8427 27.4271 19.8924 27.12 19.9041C26.8291 19.9155 26.5373 19.9068 26.2393 19.9068V17.9306Z" fill="#F7931A"/>
<path d="M5.0771 52.6426L3.76544 50.3742L5.07398 48.1072H5.65468L6.42772 46.7655H4.19635L2.11597 50.3742L4.19635 53.972H5.4884L6.03607 52.6426H5.0771Z" fill="#F7931A"/>
<path d="M0.199951 46.7615H1.89694V53.9762H0.199951V46.7615Z" fill="#171717"/>
<path d="M48.1666 48.1969L49.4618 50.4365L48.1698 52.6753H47.5964L46.8333 54H49.0363L51.0908 50.4365L49.0363 46.884H47.7608L46.9972 48.1969H48.1666Z" fill="#F7931A"/>
<path d="M52.2214 46.8827L50.8241 49.5144L51.3541 50.4415L50.7415 51.5043L52.3536 53.996H54.1984L52.0492 50.6684L54.066 46.8827H52.2214Z" fill="#171717"/>
<path d="M10.3278 48.8053L9.45769 51.1554H11.1782L10.3278 48.8053ZM12.1644 53.8245L11.6328 52.4801H8.98389L8.48131 53.8245H6.68286L9.55443 46.9775H11.159L14.0014 53.8245H12.1644Z" fill="#171717"/>
<path d="M18.1102 49.0955C18.1102 48.9342 18.0779 48.8021 18.0135 48.699C17.9489 48.596 17.8621 48.5153 17.7524 48.4575C17.6426 48.3993 17.5188 48.3604 17.38 48.3412C17.2416 48.3218 17.0981 48.3125 16.9498 48.3125H16.2248V49.9274H16.9211C17.0756 49.9274 17.2239 49.9144 17.3654 49.8885C17.5074 49.8629 17.6348 49.8177 17.7476 49.7531C17.8605 49.6887 17.9489 49.6033 18.0135 49.4967C18.0779 49.3905 18.1102 49.2568 18.1102 49.0955ZM19.7632 49.0861C19.7632 49.4857 19.6888 49.8224 19.541 50.0965C19.3924 50.3707 19.1927 50.5913 18.9413 50.7589C18.6901 50.9269 18.4 51.0487 18.0712 51.1262C17.7425 51.2038 17.4013 51.2422 17.0465 51.2422H16.2248V53.8244H14.5718V46.9779H17.0851C17.459 46.9779 17.8086 47.0149 18.1342 47.0888C18.4597 47.1632 18.7432 47.2823 18.985 47.4467C19.2268 47.6111 19.4167 47.8274 19.5551 48.0949C19.6935 48.3624 19.7632 48.6928 19.7632 49.0861Z" fill="#171717"/>
<path d="M20.759 46.9775H22.4215V53.8245H20.759V46.9775Z" fill="#171717"/>
<path d="M26.7623 48.3895V53.8245H25.1089V48.3895H23.1755V46.9775H28.6956V48.3895H26.7623Z" fill="#171717"/>
<path d="M31.6735 48.8053L30.8033 51.1554H32.5239L31.6735 48.8053ZM33.5101 53.8245L32.9785 52.4801H30.3295L29.827 53.8245H28.0286L30.9 46.9775H32.5047L35.3471 53.8245H33.5101Z" fill="#171717"/>
<path d="M35.9175 53.8244V46.9779H37.5802V52.3837H40.2293V53.8244H35.9175Z" fill="#171717"/>
<path d="M41.0017 53.8244V46.9779H45.6036V48.3703H42.5968V49.6662H45.4389V50.9909H42.5968V52.4124H45.7774V53.8244H41.0017Z" fill="#171717"/>
</svg>
