<svg width="639" height="75" viewBox="0 0 639 75" fill="none" xmlns="http://www.w3.org/2000/svg">
<path d="M0 0.952181L6.18136 0.48691C12.4292 0.0881125 24.7919 -0.842414 37.354 1.81623C49.8496 4.47488 62.4782 10.7227 74.9739 12.2514C87.536 13.7802 99.8987 10.7227 112.461 11.5868C124.956 12.4508 137.585 17.3693 150.081 16.1065C162.643 14.9101 175.006 7.59879 187.568 6.8012C200.063 6.07007 212.692 11.7862 225.187 11.5868C237.75 11.3874 250.112 5.13955 262.674 4.94015C275.17 4.74075 287.799 10.4569 300.294 13.049C312.856 15.5748 325.219 14.9101 337.781 15.5747C350.277 16.2394 362.905 18.2334 375.401 16.7711C387.963 15.3753 400.326 10.4568 412.888 7.13353C425.384 3.81022 438.012 2.08211 450.508 1.28451C463.07 0.486918 475.433 0.752791 487.995 3.74377C500.49 6.73475 513.119 12.4508 525.615 14.046C538.177 15.5748 550.54 12.9161 563.102 10.9221C575.597 8.92812 588.226 7.59881 600.721 6.40242C613.284 5.13956 625.646 4.07608 631.894 3.47789L638.075 2.94617V74.065H631.894C625.646 74.065 613.284 74.065 600.721 74.065C588.226 74.065 575.597 74.065 563.102 74.065C550.54 74.065 538.177 74.065 525.615 74.065C513.119 74.065 500.49 74.065 487.995 74.065C475.433 74.065 463.07 74.065 450.508 74.065C438.012 74.065 425.384 74.065 412.888 74.065C400.326 74.065 387.963 74.065 375.401 74.065C362.905 74.065 350.277 74.065 337.781 74.065C325.219 74.065 312.856 74.065 300.294 74.065C287.799 74.065 275.17 74.065 262.674 74.065C250.112 74.065 237.75 74.065 225.187 74.065C212.692 74.065 200.063 74.065 187.568 74.065C175.006 74.065 162.643 74.065 150.081 74.065C137.585 74.065 124.956 74.065 112.461 74.065C99.8987 74.065 87.536 74.065 74.9739 74.065C62.4782 74.065 49.8496 74.065 37.354 74.065C24.7919 74.065 12.4292 74.065 6.18136 74.065H0V0.952181Z" fill="#6006C6"/>
<path d="M0 14.9101L6.18136 15.7741C12.4292 16.7047 24.7919 18.4328 37.354 18.5657C49.8496 18.6987 62.4782 17.1035 74.9739 16.7711C87.536 16.4388 99.8987 17.3693 112.461 17.4358C124.956 17.5687 137.585 16.9041 150.081 18.6987C162.643 20.4268 175.006 24.6806 187.568 24.6806C200.063 24.6806 212.692 20.4268 225.187 20.2274C237.75 20.028 250.112 23.7501 262.674 26.5417C275.17 29.3333 287.799 31.0614 300.294 31.5266C312.856 31.9919 325.219 31.0614 337.781 28.6686C350.277 26.2093 362.905 22.2214 375.401 20.2274C387.963 18.2334 400.326 18.2334 412.888 18.6987C425.384 19.0975 438.012 20.028 450.508 21.7561C463.07 23.5507 475.433 26.2093 487.995 27.6716C500.49 29.0674 513.119 29.3333 525.615 26.874C538.177 24.4148 550.54 19.3633 563.102 16.9041C575.597 14.4448 588.226 14.7107 600.721 16.3724C613.284 18.034 625.646 21.0915 631.894 22.6866L638.075 24.2154V74.065H631.894C625.646 74.065 613.284 74.065 600.721 74.065C588.226 74.065 575.597 74.065 563.102 74.065C550.54 74.065 538.177 74.065 525.615 74.065C513.119 74.065 500.49 74.065 487.995 74.065C475.433 74.065 463.07 74.065 450.508 74.065C438.012 74.065 425.384 74.065 412.888 74.065C400.326 74.065 387.963 74.065 375.401 74.065C362.905 74.065 350.277 74.065 337.781 74.065C325.219 74.065 312.856 74.065 300.294 74.065C287.799 74.065 275.17 74.065 262.674 74.065C250.112 74.065 237.75 74.065 225.187 74.065C212.692 74.065 200.063 74.065 187.568 74.065C175.006 74.065 162.643 74.065 150.081 74.065C137.585 74.065 124.956 74.065 112.461 74.065C99.8987 74.065 87.536 74.065 74.9739 74.065C62.4782 74.065 49.8496 74.065 37.354 74.065C24.7919 74.065 12.4292 74.065 6.18136 74.065H0V14.9101Z" fill="#EA0079"/>
<path d="M0 34.8499L6.18136 36.1793C12.4292 37.5086 24.7919 40.1672 37.354 40.8319C49.8496 41.4966 62.4782 40.1672 74.9739 39.702C87.536 39.3032 99.8987 39.702 112.461 37.9739C124.956 36.1793 137.585 32.1913 150.081 30.3967C162.643 28.6686 175.006 29.0674 187.568 29.732C200.063 30.3967 212.692 31.3272 225.187 31.6596C237.75 31.9919 250.112 31.726 262.674 32.5236C275.17 33.3212 287.799 35.0493 300.294 35.0493C312.856 35.0493 325.219 33.3212 337.781 33.72C350.277 34.1853 362.905 36.8439 375.401 39.0373C387.963 41.2972 400.326 43.0253 412.888 42.2942C425.384 41.4966 438.012 38.1732 450.508 38.0403C463.07 37.9738 475.433 41.0313 487.995 40.1672C500.49 39.3032 513.119 34.3847 525.615 33.3877C538.177 32.3907 550.54 35.3152 563.102 36.8439C575.597 38.3727 588.226 38.6385 600.721 39.6355C613.284 40.6325 625.646 42.3606 631.894 43.2912L638.075 44.1552V74.065H631.894C625.646 74.065 613.284 74.065 600.721 74.065C588.226 74.065 575.597 74.065 563.102 74.065C550.54 74.065 538.177 74.065 525.615 74.065C513.119 74.065 500.49 74.065 487.995 74.065C475.433 74.065 463.07 74.065 450.508 74.065C438.012 74.065 425.384 74.065 412.888 74.065C400.326 74.065 387.963 74.065 375.401 74.065C362.905 74.065 350.277 74.065 337.781 74.065C325.219 74.065 312.856 74.065 300.294 74.065C287.799 74.065 275.17 74.065 262.674 74.065C250.112 74.065 237.75 74.065 225.187 74.065C212.692 74.065 200.063 74.065 187.568 74.065C175.006 74.065 162.643 74.065 150.081 74.065C137.585 74.065 124.956 74.065 112.461 74.065C99.8987 74.065 87.536 74.065 74.9739 74.065C62.4782 74.065 49.8496 74.065 37.354 74.065C24.7919 74.065 12.4292 74.065 6.18136 74.065H0V34.8499Z" fill="#FF6930"/>
<path d="M0 48.1432L6.18136 48.9408C12.4292 49.6719 24.7919 51.2671 37.354 51.1342C49.8496 51.0012 62.4782 49.2731 74.9739 49.9378C87.536 50.6024 99.8987 53.6599 112.461 54.7898C124.956 55.9197 137.585 54.9892 150.081 53.3275C162.643 51.6659 175.006 49.2731 187.568 49.2731C200.063 49.2731 212.692 51.6659 225.187 53.1282C237.75 54.5904 250.112 54.9892 262.674 54.5904C275.17 54.1252 287.799 52.7958 300.294 51.7988C312.856 50.8018 325.219 50.1372 337.781 49.2731C350.277 48.3426 362.905 47.2791 375.401 48.3426C387.963 49.4725 400.326 52.7958 412.888 53.3275C425.384 53.9257 438.012 51.6659 450.508 51.1342C463.07 50.6024 475.433 51.6659 487.995 50.9348C500.49 50.1372 513.119 47.4785 525.615 47.0133C538.177 46.6145 550.54 48.3426 563.102 48.9408C575.597 49.4725 588.226 48.8079 600.721 48.2761C613.284 47.6779 625.646 47.2791 631.894 47.0133L638.075 46.8139V74.065H631.894C625.646 74.065 613.284 74.065 600.721 74.065C588.226 74.065 575.597 74.065 563.102 74.065C550.54 74.065 538.177 74.065 525.615 74.065C513.119 74.065 500.49 74.065 487.995 74.065C475.433 74.065 463.07 74.065 450.508 74.065C438.012 74.065 425.384 74.065 412.888 74.065C400.326 74.065 387.963 74.065 375.401 74.065C362.905 74.065 350.277 74.065 337.781 74.065C325.219 74.065 312.856 74.065 300.294 74.065C287.799 74.065 275.17 74.065 262.674 74.065C250.112 74.065 237.75 74.065 225.187 74.065C212.692 74.065 200.063 74.065 187.568 74.065C175.006 74.065 162.643 74.065 150.081 74.065C137.585 74.065 124.956 74.065 112.461 74.065C99.8987 74.065 87.536 74.065 74.9739 74.065C62.4782 74.065 49.8496 74.065 37.354 74.065C24.7919 74.065 12.4292 74.065 6.18136 74.065H0V48.1432Z" fill="#FBE301"/>
</svg>
