<svg width="639" height="131" viewBox="0 0 639 131" fill="none" xmlns="http://www.w3.org/2000/svg">
<path d="M0 129.113L6.18136 129.578C12.4292 129.977 24.7919 130.907 37.354 128.249C49.8496 125.59 62.4782 119.342 74.9739 117.814C87.536 116.285 99.8987 119.342 112.461 118.478C124.956 117.614 137.585 112.696 150.081 113.959C162.643 115.155 175.005 122.466 187.568 123.264C200.063 123.995 212.692 118.279 225.187 118.478C237.75 118.678 250.112 124.925 262.674 125.125C275.17 125.324 287.799 119.608 300.294 117.016C312.856 114.49 325.219 115.155 337.781 114.49C350.277 113.826 362.905 111.832 375.401 113.294C387.963 114.69 400.326 119.608 412.888 122.931C425.384 126.255 438.012 127.983 450.508 128.78C463.07 129.578 475.433 129.312 487.995 126.321C500.49 123.33 513.119 117.614 525.615 116.019C538.177 114.49 550.539 117.149 563.102 119.143C575.597 121.137 588.226 122.466 600.721 123.663C613.284 124.925 625.646 125.989 631.894 126.587L638.075 127.119V56H631.894C625.646 56 613.284 56 600.721 56C588.226 56 575.597 56 563.102 56C550.539 56 538.177 56 525.615 56C513.119 56 500.49 56 487.995 56C475.433 56 463.07 56 450.508 56C438.012 56 425.384 56 412.888 56C400.326 56 387.963 56 375.401 56C362.905 56 350.277 56 337.781 56C325.219 56 312.856 56 300.294 56C287.799 56 275.17 56 262.674 56C250.112 56 237.75 56 225.187 56C212.692 56 200.063 56 187.568 56C175.005 56 162.643 56 150.081 56C137.585 56 124.956 56 112.461 56C99.8987 56 87.536 56 74.9739 56C62.4782 56 49.8496 56 37.354 56C24.7919 56 12.4292 56 6.18136 56H0V129.113Z" fill="#6006C6"/>
<path d="M0 115.155L6.18136 114.291C12.4292 113.36 24.7919 111.632 37.354 111.499C49.8496 111.366 62.4782 112.962 74.9739 113.294C87.536 113.626 99.8987 112.696 112.461 112.629C124.956 112.496 137.585 113.161 150.081 111.366C162.643 109.638 175.005 105.384 187.568 105.384C200.063 105.384 212.692 109.638 225.187 109.838C237.75 110.037 250.112 106.315 262.674 103.523C275.17 100.732 287.799 99.0036 300.294 98.5384C312.856 98.0731 325.219 99.0036 337.781 101.396C350.277 103.856 362.905 107.844 375.401 109.838C387.963 111.832 400.326 111.832 412.888 111.366C425.384 110.968 438.012 110.037 450.508 108.309C463.07 106.514 475.433 103.856 487.995 102.393C500.49 100.998 513.119 100.732 525.615 103.191C538.177 105.65 550.539 110.702 563.102 113.161C575.597 115.62 588.226 115.354 600.721 113.693C613.284 112.031 625.646 108.974 631.894 107.378L638.075 105.85V56H631.894C625.646 56 613.284 56 600.721 56C588.226 56 575.597 56 563.102 56C550.539 56 538.177 56 525.615 56C513.119 56 500.49 56 487.995 56C475.433 56 463.07 56 450.508 56C438.012 56 425.384 56 412.888 56C400.326 56 387.963 56 375.401 56C362.905 56 350.277 56 337.781 56C325.219 56 312.856 56 300.294 56C287.799 56 275.17 56 262.674 56C250.112 56 237.75 56 225.187 56C212.692 56 200.063 56 187.568 56C175.005 56 162.643 56 150.081 56C137.585 56 124.956 56 112.461 56C99.8987 56 87.536 56 74.9739 56C62.4782 56 49.8496 56 37.354 56C24.7919 56 12.4292 56 6.18136 56H0V115.155Z" fill="#EA0079"/>
<path d="M0 95.215L6.18136 93.8857C12.4292 92.5564 24.7919 89.8978 37.354 89.2331C49.8496 88.5684 62.4782 89.8978 74.9739 90.363C87.536 90.7618 99.8987 90.363 112.461 92.0911C124.956 93.8857 137.585 97.8737 150.081 99.6683C162.643 101.396 175.005 100.998 187.568 100.333C200.063 99.6683 212.692 98.7377 225.187 98.4054C237.75 98.0731 250.112 98.339 262.674 97.5414C275.17 96.7438 287.799 95.0157 300.294 95.0157C312.856 95.0157 325.219 96.7438 337.781 96.345C350.277 95.8797 362.905 93.2211 375.401 91.0277C387.963 88.7678 400.326 87.0397 412.888 87.7708C425.384 88.5684 438.012 91.8917 450.508 92.0247C463.07 92.0911 475.433 89.0337 487.995 89.8978C500.49 90.7618 513.119 95.6803 525.615 96.6773C538.177 97.6743 550.539 94.7498 563.102 93.2211C575.597 91.6923 588.226 91.4265 600.721 90.4295C613.284 89.4325 625.646 87.7044 631.894 86.7738L638.075 85.9098V56H631.894C625.646 56 613.284 56 600.721 56C588.226 56 575.597 56 563.102 56C550.539 56 538.177 56 525.615 56C513.119 56 500.49 56 487.995 56C475.433 56 463.07 56 450.508 56C438.012 56 425.384 56 412.888 56C400.326 56 387.963 56 375.401 56C362.905 56 350.277 56 337.781 56C325.219 56 312.856 56 300.294 56C287.799 56 275.17 56 262.674 56C250.112 56 237.75 56 225.187 56C212.692 56 200.063 56 187.568 56C175.005 56 162.643 56 150.081 56C137.585 56 124.956 56 112.461 56C99.8987 56 87.536 56 74.9739 56C62.4782 56 49.8496 56 37.354 56C24.7919 56 12.4292 56 6.18136 56H0V95.215Z" fill="#FF6930"/>
<path d="M0 81.9218L6.18136 81.1242C12.4292 80.3931 24.7919 78.7979 37.354 78.9308C49.8496 79.0638 62.4782 80.7919 74.9739 80.1272C87.536 79.4625 99.8987 76.4051 112.461 75.2752C124.956 74.1453 137.585 75.0758 150.081 76.7375C162.643 78.3991 175.005 80.7919 187.568 80.7919C200.063 80.7919 212.692 78.3991 225.187 76.9368C237.75 75.4746 250.112 75.0758 262.674 75.4746C275.17 75.9398 287.799 77.2692 300.294 78.2662C312.856 79.2632 325.219 79.9278 337.781 80.7919C350.277 81.7224 362.905 82.7859 375.401 81.7224C387.963 80.5925 400.326 77.2692 412.888 76.7375C425.384 76.1393 438.012 78.3991 450.508 78.9308C463.07 79.4626 475.433 78.3991 487.995 79.1302C500.49 79.9278 513.119 82.5865 525.615 83.0517C538.177 83.4505 550.539 81.7224 563.102 81.1242C575.597 80.5925 588.226 81.2571 600.721 81.7889C613.284 82.3871 625.646 82.7859 631.894 83.0517L638.075 83.2511V56H631.894C625.646 56 613.284 56 600.721 56C588.226 56 575.597 56 563.102 56C550.539 56 538.177 56 525.615 56C513.119 56 500.49 56 487.995 56C475.433 56 463.07 56 450.508 56C438.012 56 425.384 56 412.888 56C400.326 56 387.963 56 375.401 56C362.905 56 350.277 56 337.781 56C325.219 56 312.856 56 300.294 56C287.799 56 275.17 56 262.674 56C250.112 56 237.75 56 225.187 56C212.692 56 200.063 56 187.568 56C175.005 56 162.643 56 150.081 56C137.585 56 124.956 56 112.461 56C99.8987 56 87.536 56 74.9739 56C62.4782 56 49.8496 56 37.354 56C24.7919 56 12.4292 56 6.18136 56H0V81.9218Z" fill="#FBE301"/>
<path d="M0 0.952181L6.18136 0.48691C12.4292 0.0881125 24.7919 -0.842414 37.354 1.81623C49.8496 4.47488 62.4782 10.7227 74.9739 12.2514C87.536 13.7802 99.8987 10.7227 112.461 11.5868C124.956 12.4508 137.585 17.3693 150.081 16.1065C162.643 14.9101 175.005 7.59879 187.568 6.8012C200.063 6.07007 212.692 11.7862 225.187 11.5868C237.75 11.3874 250.112 5.13955 262.674 4.94015C275.17 4.74075 287.799 10.4569 300.294 13.049C312.856 15.5748 325.219 14.9101 337.781 15.5747C350.277 16.2394 362.905 18.2334 375.401 16.7711C387.963 15.3753 400.326 10.4568 412.888 7.13353C425.384 3.81022 438.012 2.08211 450.508 1.28451C463.07 0.486918 475.433 0.752791 487.995 3.74377C500.49 6.73475 513.119 12.4508 525.615 14.046C538.177 15.5748 550.539 12.9161 563.102 10.9221C575.597 8.92812 588.226 7.59881 600.721 6.40242C613.284 5.13956 625.646 4.07608 631.894 3.47789L638.075 2.94617V74.065H631.894C625.646 74.065 613.284 74.065 600.721 74.065C588.226 74.065 575.597 74.065 563.102 74.065C550.539 74.065 538.177 74.065 525.615 74.065C513.119 74.065 500.49 74.065 487.995 74.065C475.433 74.065 463.07 74.065 450.508 74.065C438.012 74.065 425.384 74.065 412.888 74.065C400.326 74.065 387.963 74.065 375.401 74.065C362.905 74.065 350.277 74.065 337.781 74.065C325.219 74.065 312.856 74.065 300.294 74.065C287.799 74.065 275.17 74.065 262.674 74.065C250.112 74.065 237.75 74.065 225.187 74.065C212.692 74.065 200.063 74.065 187.568 74.065C175.005 74.065 162.643 74.065 150.081 74.065C137.585 74.065 124.956 74.065 112.461 74.065C99.8987 74.065 87.536 74.065 74.9739 74.065C62.4782 74.065 49.8496 74.065 37.354 74.065C24.7919 74.065 12.4292 74.065 6.18136 74.065H0V0.952181Z" fill="#6006C6"/>
<path d="M0 14.9101L6.18136 15.7741C12.4292 16.7047 24.7919 18.4328 37.354 18.5657C49.8496 18.6987 62.4782 17.1035 74.9739 16.7711C87.536 16.4388 99.8987 17.3693 112.461 17.4358C124.956 17.5687 137.585 16.9041 150.081 18.6987C162.643 20.4268 175.005 24.6806 187.568 24.6806C200.063 24.6806 212.692 20.4268 225.187 20.2274C237.75 20.028 250.112 23.7501 262.674 26.5417C275.17 29.3333 287.799 31.0614 300.294 31.5266C312.856 31.9919 325.219 31.0614 337.781 28.6686C350.277 26.2094 362.905 22.2214 375.401 20.2274C387.963 18.2334 400.326 18.2334 412.888 18.6987C425.384 19.0975 438.012 20.028 450.508 21.7561C463.07 23.5507 475.433 26.2094 487.995 27.6716C500.49 29.0674 513.119 29.3333 525.615 26.874C538.177 24.4148 550.539 19.3633 563.102 16.9041C575.597 14.4448 588.226 14.7107 600.721 16.3724C613.284 18.034 625.646 21.0915 631.894 22.6866L638.075 24.2154V74.065H631.894C625.646 74.065 613.284 74.065 600.721 74.065C588.226 74.065 575.597 74.065 563.102 74.065C550.539 74.065 538.177 74.065 525.615 74.065C513.119 74.065 500.49 74.065 487.995 74.065C475.433 74.065 463.07 74.065 450.508 74.065C438.012 74.065 425.384 74.065 412.888 74.065C400.326 74.065 387.963 74.065 375.401 74.065C362.905 74.065 350.277 74.065 337.781 74.065C325.219 74.065 312.856 74.065 300.294 74.065C287.799 74.065 275.17 74.065 262.674 74.065C250.112 74.065 237.75 74.065 225.187 74.065C212.692 74.065 200.063 74.065 187.568 74.065C175.005 74.065 162.643 74.065 150.081 74.065C137.585 74.065 124.956 74.065 112.461 74.065C99.8987 74.065 87.536 74.065 74.9739 74.065C62.4782 74.065 49.8496 74.065 37.354 74.065C24.7919 74.065 12.4292 74.065 6.18136 74.065H0V14.9101Z" fill="#EA0079"/>
<path d="M0 34.85L6.18136 36.1793C12.4292 37.5086 24.7919 40.1672 37.354 40.8319C49.8496 41.4966 62.4782 40.1672 74.9739 39.702C87.536 39.3032 99.8987 39.702 112.461 37.9739C124.956 36.1793 137.585 32.1913 150.081 30.3967C162.643 28.6686 175.005 29.0674 187.568 29.732C200.063 30.3967 212.692 31.3273 225.187 31.6596C237.75 31.9919 250.112 31.726 262.674 32.5236C275.17 33.3212 287.799 35.0493 300.294 35.0493C312.856 35.0493 325.219 33.3212 337.781 33.72C350.277 34.1853 362.905 36.8439 375.401 39.0373C387.963 41.2972 400.326 43.0253 412.888 42.2942C425.384 41.4966 438.012 38.1733 450.508 38.0403C463.07 37.9739 475.433 41.0313 487.995 40.1672C500.49 39.3032 513.119 34.3847 525.615 33.3877C538.177 32.3907 550.539 35.3152 563.102 36.8439C575.597 38.3727 588.226 38.6385 600.721 39.6355C613.284 40.6325 625.646 42.3606 631.894 43.2912L638.075 44.1552V74.065H631.894C625.646 74.065 613.284 74.065 600.721 74.065C588.226 74.065 575.597 74.065 563.102 74.065C550.539 74.065 538.177 74.065 525.615 74.065C513.119 74.065 500.49 74.065 487.995 74.065C475.433 74.065 463.07 74.065 450.508 74.065C438.012 74.065 425.384 74.065 412.888 74.065C400.326 74.065 387.963 74.065 375.401 74.065C362.905 74.065 350.277 74.065 337.781 74.065C325.219 74.065 312.856 74.065 300.294 74.065C287.799 74.065 275.17 74.065 262.674 74.065C250.112 74.065 237.75 74.065 225.187 74.065C212.692 74.065 200.063 74.065 187.568 74.065C175.005 74.065 162.643 74.065 150.081 74.065C137.585 74.065 124.956 74.065 112.461 74.065C99.8987 74.065 87.536 74.065 74.9739 74.065C62.4782 74.065 49.8496 74.065 37.354 74.065C24.7919 74.065 12.4292 74.065 6.18136 74.065H0V34.85Z" fill="#FF6930"/>
<path d="M0 48.1432L6.18136 48.9408C12.4292 49.6719 24.7919 51.2671 37.354 51.1342C49.8496 51.0012 62.4782 49.2731 74.9739 49.9378C87.536 50.6025 99.8987 53.6599 112.461 54.7898C124.956 55.9197 137.585 54.9892 150.081 53.3276C162.643 51.6659 175.005 49.2731 187.568 49.2731C200.063 49.2731 212.692 51.6659 225.187 53.1282C237.75 54.5904 250.112 54.9892 262.674 54.5904C275.17 54.1252 287.799 52.7958 300.294 51.7988C312.856 50.8018 325.219 50.1372 337.781 49.2731C350.277 48.3426 362.905 47.2791 375.401 48.3426C387.963 49.4725 400.326 52.7958 412.888 53.3276C425.384 53.9257 438.012 51.6659 450.508 51.1342C463.07 50.6024 475.433 51.6659 487.995 50.9348C500.49 50.1372 513.119 47.4785 525.615 47.0133C538.177 46.6145 550.539 48.3426 563.102 48.9408C575.597 49.4725 588.226 48.8079 600.721 48.2761C613.284 47.6779 625.646 47.2791 631.894 47.0133L638.075 46.8139V74.065H631.894C625.646 74.065 613.284 74.065 600.721 74.065C588.226 74.065 575.597 74.065 563.102 74.065C550.539 74.065 538.177 74.065 525.615 74.065C513.119 74.065 500.49 74.065 487.995 74.065C475.433 74.065 463.07 74.065 450.508 74.065C438.012 74.065 425.384 74.065 412.888 74.065C400.326 74.065 387.963 74.065 375.401 74.065C362.905 74.065 350.277 74.065 337.781 74.065C325.219 74.065 312.856 74.065 300.294 74.065C287.799 74.065 275.17 74.065 262.674 74.065C250.112 74.065 237.75 74.065 225.187 74.065C212.692 74.065 200.063 74.065 187.568 74.065C175.005 74.065 162.643 74.065 150.081 74.065C137.585 74.065 124.956 74.065 112.461 74.065C99.8987 74.065 87.536 74.065 74.9739 74.065C62.4782 74.065 49.8496 74.065 37.354 74.065C24.7919 74.065 12.4292 74.065 6.18136 74.065H0V48.1432Z" fill="#FBE301"/>
</svg>
