<svg width="188" height="188" viewBox="0 0 188 188" fill="none" xmlns="http://www.w3.org/2000/svg">
<g clip-path="url(#clip0_98_6)">
<path fill-rule="evenodd" clip-rule="evenodd" d="M94 181.42C142.281 181.42 181.42 142.281 181.42 94C181.42 45.7193 142.281 6.58 94 6.58C45.7193 6.58 6.57996 45.7193 6.57996 94C6.57996 142.281 45.7193 181.42 94 181.42ZM93.9999 187.06C145.396 187.06 187.06 145.396 187.06 94C187.06 42.6044 145.396 0.940002 93.9999 0.940002C42.6043 0.940002 0.939941 42.6044 0.939941 94C0.939941 145.396 42.6043 187.06 93.9999 187.06Z" fill="#F7931A"/>
<path fill-rule="evenodd" clip-rule="evenodd" d="M93.9999 140.06C119.438 140.06 140.06 119.438 140.06 94C140.06 68.5617 119.438 47.94 93.9999 47.94C68.5617 47.94 47.9399 68.5617 47.9399 94C47.9399 119.438 68.5617 140.06 93.9999 140.06ZM94 145.7C122.553 145.7 145.7 122.553 145.7 94C145.7 65.4469 122.553 42.3 94 42.3C65.447 42.3 42.3 65.4469 42.3 94C42.3 122.553 65.447 145.7 94 145.7Z" fill="#F7931A"/>
<path fill-rule="evenodd" clip-rule="evenodd" d="M118.342 86.2837C119.301 79.1587 113.895 75.4391 106.484 72.9245L108.786 63.2848L102.927 61.8702L100.695 71.3003C99.1431 70.9337 97.5739 70.5669 96.0219 70.2526L98.2539 60.8225L92.3251 59.408L90.0234 69.0475C88.768 68.7507 87.495 68.5238 86.2396 68.2269L78.1659 66.2884L76.6837 72.5227C76.6837 72.5227 81.0605 73.4832 80.9035 73.5706C83.2752 74.1643 83.7284 75.7185 83.6414 76.9061L81.043 87.8904C81.2 87.9601 81.4093 87.9601 81.636 88.1173C81.4093 88.0475 81.2698 88.0475 81.043 87.9776L77.4859 103.345C77.1894 104.079 76.4397 105.126 74.818 104.76C74.8877 104.83 70.5109 103.712 70.5109 103.712L67.7383 110.47L75.376 112.251C76.7884 112.618 78.2009 112.915 79.5261 113.299L77.2244 123.026L83.0832 124.441L85.3851 114.801C87.0243 115.238 88.5762 115.622 90.0582 115.988L87.7565 125.558L93.6155 126.973L95.9172 117.246C105.926 119.027 113.407 118.206 116.441 109.073C118.882 101.791 116.214 97.6348 110.879 94.893C114.785 94.0024 117.609 91.4703 118.342 86.2837ZM105.159 105.196C103.45 112.478 91.1569 108.689 87.216 107.729L90.2502 94.8058C94.2608 95.7837 106.938 97.5649 105.159 105.196ZM106.781 86.2837C105.229 92.8848 94.993 89.7065 91.6626 88.8856L94.4875 77.168C97.7482 77.9713 108.42 79.3858 106.781 86.2837Z" fill="#F7931A"/>
</g>
<defs>
<clipPath id="clip0_98_6">
<rect width="188" height="188" fill="white"/>
</clipPath>
</defs>
</svg>
